<svg width="900" height="900" viewBox="0 0 900 900" fill="none" xmlns="http://www.w3.org/2000/svg">
<g clip-path="url(#clip0)">
<rect width="900" height="900" fill="#536E9F"/>
<rect width="343.75" height="900" fill="#FEB48B"/>
<rect width="450" height="900" fill="#FEB48B"/>
<mask id="mask0" mask-type="alpha" maskUnits="userSpaceOnUse" x="450" y="344" width="198" height="319">
<rect width="198" height="319" transform="matrix(-1 0 0 1 648 344)" fill="#FEB48B"/>
</mask>
<g mask="url(#mask0)">
<circle cx="490" cy="501" r="152" fill="#5992D6"/>
<circle cx="490" cy="501" r="145" fill="#536E9F"/>
</g>
<mask id="mask1" mask-type="alpha" maskUnits="userSpaceOnUse" x="450" y="373" width="164" height="252">
<rect width="164" height="252" transform="matrix(-1 0 0 1 614 373)" fill="#FEB48B"/>
</mask>
<g mask="url(#mask1)">
<circle cx="490" cy="501" r="122" fill="#FEB48B"/>
<circle cx="490.001" cy="501" r="114.942" fill="#536E9F"/>
</g>
<mask id="mask2" mask-type="alpha" maskUnits="userSpaceOnUse" x="450" y="419" width="122" height="166">
<rect width="122" height="166" transform="matrix(-1 0 0 1 572 419)" fill="#FEB48B"/>
</mask>
<g mask="url(#mask2)">
<circle cx="490.5" cy="500.5" r="79.5" fill="#EB6B74"/>
<circle cx="490.803" cy="500.197" r="65.2385" fill="#536E9F"/>
</g>
<mask id="mask3" mask-type="alpha" maskUnits="userSpaceOnUse" x="296" y="349" width="154" height="304">
<rect x="296" y="349" width="154" height="304" fill="#FEB48B"/>
</mask>
<g mask="url(#mask3)">
<circle cx="490" cy="501" r="152" fill="#FFDEC8"/>
<circle cx="490" cy="501" r="145" fill="#FEB48B"/>
</g>
<mask id="mask4" mask-type="alpha" maskUnits="userSpaceOnUse" x="368" y="356" width="82" height="293">
<rect x="368" y="356" width="82" height="293" fill="#FEB48B"/>
</mask>
<g mask="url(#mask4)">
<circle cx="490" cy="501" r="122" fill="#5992D6"/>
<circle cx="490.001" cy="501" r="114.942" fill="#FEB48B"/>
</g>
<mask id="mask5" mask-type="alpha" maskUnits="userSpaceOnUse" x="411" y="423" width="39" height="154">
<rect x="411" y="423" width="39" height="154" fill="#FEB48B"/>
</mask>
<g mask="url(#mask5)">
<circle cx="490.5" cy="500.5" r="79.5" fill="#536E9F"/>
<circle cx="490.803" cy="500.197" r="65.2385" fill="#FEB48B"/>
</g>
<path d="M20.9714 499.814L149.059 427.319L232.08 432.757L256.02 432.757L277.76 442.546L337.941 458.497L382.165 474.009L394.858 480.814L391.596 498.014L261.951 480.814L201.627 484.962L175.161 518.678L202.687 573.392L256.02 572.215L306.39 583.56L305.751 615.887L244.274 616.455L117.718 608.252L35.9377 589L2.55621 540.743L20.9714 499.814Z" fill="#5992D6"/>
<path d="M72.0975 504.344L154.134 434.57L241.197 437.702L246.122 442.088L252.668 436.149L257.864 444.574L262.532 440.216L274.097 444.984L337.941 460.31L364.044 469.373L364.043 480.814L388.193 488.076L393.364 486.281L391.597 498.014L383.621 501.841L261.952 480.814L201.627 484.963L163.471 516.385L147.181 561.893L196.97 586.741L234.661 586.576L278.707 587.459L302.315 589.339L303.034 595.134L279.392 595.202L278.739 616.137L244.275 616.455L182.104 621.449L115.875 607.885L79.7247 559.603L72.0975 504.344Z" fill="#536E9F"/>
<path d="M163.923 500.914L190.512 477.349L258.546 474.139L263.259 469.373L265.072 474.139L320.177 485.325L324.528 482.787L325.978 486.775L380.358 499.101L391.597 498.014L383.621 502.002L375.646 502.002L261.952 480.814L201.989 485.325L170.811 516.866L178.3 557.447L196.97 586.741L234.661 586.575L278.706 587.459L302.314 589.339L267.827 590.434L190.512 591.539L146.5 561.612L163.923 500.914Z" fill="#F28A83"/>
<path d="M258.239 597.868L259.304 611.265L240.404 610.541L239.768 596.142L252.762 597.573L252.93 607.459L245.664 607.605L244.836 600.195" stroke="#FEB48B"/>
<path d="M258.286 436.11L249.419 449.338L250.429 434.833L242.507 444.917" stroke="#FEB48B"/>
<path d="M10.4349 484.729L-25.8515 498.342L-42.4012 504.006L3.01315 626.623L56.0391 620.002L10.4349 484.729Z" fill="#EB6B74"/>
<path d="M10.4329 484.729L-25.8535 498.342L-42.4031 504.005L43.9616 609.443L3.01119 626.622L56.0372 620.002L10.4329 484.729Z" fill="#F28A83"/>
</g>
<defs>
<clipPath id="clip0">
<rect width="900" height="900" fill="white"/>
</clipPath>
</defs>
</svg>
