<svg width="900" height="378" viewBox="0 0 900 378" fill="none" xmlns="http://www.w3.org/2000/svg">
<g clip-path="url(#clip0)">
<mask id="mask0" mask-type="alpha" maskUnits="userSpaceOnUse" x="450" y="34" width="198" height="319">
<rect width="198" height="319" transform="matrix(-1 0 0 1 648 34)" fill="#FEB48B"/>
</mask>
<g mask="url(#mask0)">
<circle cx="490" cy="191" r="152" fill="#5992D6"/>
<circle cx="490" cy="191" r="145" fill="#536E9F"/>
</g>
<mask id="mask1" mask-type="alpha" maskUnits="userSpaceOnUse" x="450" y="63" width="164" height="252">
<rect width="164" height="252" transform="matrix(-1 0 0 1 614 63)" fill="#FEB48B"/>
</mask>
<g mask="url(#mask1)">
<circle cx="490" cy="191" r="122" fill="#FEB48B"/>
<circle cx="490.001" cy="191" r="114.942" fill="#536E9F"/>
</g>
<mask id="mask2" mask-type="alpha" maskUnits="userSpaceOnUse" x="450" y="109" width="122" height="166">
<rect width="122" height="166" transform="matrix(-1 0 0 1 572 109)" fill="#FEB48B"/>
</mask>
<g mask="url(#mask2)">
<circle cx="490.5" cy="190.5" r="79.5" fill="#EB6B74"/>
<circle cx="490.803" cy="190.197" r="65.2385" fill="#536E9F"/>
</g>
<mask id="mask3" mask-type="alpha" maskUnits="userSpaceOnUse" x="296" y="39" width="154" height="304">
<rect x="296" y="39" width="154" height="304" fill="#FEB48B"/>
</mask>
<g mask="url(#mask3)">
<circle cx="490" cy="191" r="152" fill="#FFDEC8"/>
<circle cx="490" cy="191" r="145" fill="#FEB48B"/>
</g>
<mask id="mask4" mask-type="alpha" maskUnits="userSpaceOnUse" x="368" y="46" width="82" height="293">
<rect x="368" y="46" width="82" height="293" fill="#FEB48B"/>
</mask>
<g mask="url(#mask4)">
<circle cx="490" cy="191" r="122" fill="#5992D6"/>
<circle cx="490.001" cy="191" r="114.942" fill="#FEB48B"/>
</g>
<mask id="mask5" mask-type="alpha" maskUnits="userSpaceOnUse" x="411" y="113" width="39" height="154">
<rect x="411" y="113" width="39" height="154" fill="#FEB48B"/>
</mask>
<g mask="url(#mask5)">
<circle cx="490.5" cy="190.5" r="79.5" fill="#536E9F"/>
<circle cx="490.803" cy="190.197" r="65.2385" fill="#FEB48B"/>
</g>
<path d="M20.9714 159.814L149.059 87.3191L232.08 92.7572L256.02 92.7572L277.76 102.546L337.941 118.497L382.165 134.009L394.858 140.814L391.596 158.014L261.951 140.814L201.627 144.962L175.161 178.678L202.687 233.392L256.02 232.215L306.39 243.56L305.751 275.887L244.274 276.455L117.718 268.252L35.9377 249L2.55621 200.743L20.9714 159.814Z" fill="#5992D6"/>
<path d="M72.0975 164.344L154.134 94.5699L241.197 97.7015L246.122 102.088L252.668 96.1486L257.864 104.574L262.532 100.216L274.097 104.984L337.941 120.31L364.044 129.373L364.043 140.814L388.193 148.076L393.364 146.281L391.597 158.014L383.621 161.841L261.952 140.814L201.627 144.963L163.471 176.385L147.181 221.893L196.97 246.741L234.661 246.576L278.707 247.459L302.315 249.339L303.034 255.134L279.392 255.202L278.739 276.137L244.275 276.455L182.104 281.449L115.875 267.885L79.7247 219.603L72.0975 164.344Z" fill="#536E9F"/>
<path d="M163.923 160.914L190.512 137.349L258.546 134.139L263.259 129.373L265.072 134.139L320.177 145.325L324.528 142.787L325.978 146.775L380.358 159.101L391.597 158.014L383.621 162.002L375.646 162.002L261.952 140.814L201.989 145.325L170.811 176.866L178.3 217.447L196.97 246.741L234.661 246.575L278.706 247.459L302.314 249.339L267.827 250.434L190.512 251.539L146.5 221.612L163.923 160.914Z" fill="#F28A83"/>
<path d="M258.239 257.868L259.304 271.265L240.404 270.541L239.768 256.142L252.762 257.573L252.93 267.459L245.664 267.605L244.836 260.195" stroke="#FEB48B"/>
<path d="M258.286 96.1095L249.419 109.338L250.429 94.833L242.507 104.917" stroke="#FEB48B"/>
<path d="M10.4349 144.729L-25.8515 158.342L-42.4012 164.006L3.01315 286.623L56.0391 280.002L10.4349 144.729Z" fill="#EB6B74"/>
<path d="M10.4329 144.729L-25.8535 158.342L-42.4031 164.005L43.9616 269.443L3.0112 286.622L56.0372 280.002L10.4329 144.729Z" fill="#F28A83"/>
</g>
<defs>
<clipPath id="clip0">
<rect width="900" height="378" fill="white"/>
</clipPath>
</defs>
</svg>
