<svg width="1440" height="900" viewBox="0 0 1440 900" fill="none" xmlns="http://www.w3.org/2000/svg">
<g clip-path="url(#clip0)">
<path d="M0 0H1440V900H0V0Z" fill="#536E9F"/>
<rect width="550" height="900" fill="#FEB48B"/>
<rect width="550" height="900" fill="#FEB48B"/>
<mask id="mask0" mask-type="alpha" maskUnits="userSpaceOnUse" x="550" y="345" width="198" height="319">
<rect width="198" height="319" transform="matrix(-1 0 0 1 748 345)" fill="#FEB48B"/>
</mask>
<g mask="url(#mask0)">
<circle cx="590" cy="502" r="152" fill="#5992D6"/>
<circle cx="590" cy="502" r="145" fill="#536E9F"/>
</g>
<mask id="mask1" mask-type="alpha" maskUnits="userSpaceOnUse" x="550" y="374" width="164" height="252">
<rect width="164" height="252" transform="matrix(-1 0 0 1 714 374)" fill="#FEB48B"/>
</mask>
<g mask="url(#mask1)">
<circle cx="590" cy="502" r="122" fill="#F28A83"/>
<circle cx="590" cy="502" r="114.942" fill="#536E9F"/>
</g>
<mask id="mask2" mask-type="alpha" maskUnits="userSpaceOnUse" x="550" y="420" width="122" height="166">
<rect width="122" height="166" transform="matrix(-1 0 0 1 672 420)" fill="#FEB48B"/>
</mask>
<g mask="url(#mask2)">
<circle cx="590.5" cy="501.5" r="79.5" fill="#EB6B74"/>
<circle cx="590.803" cy="501.197" r="65.2385" fill="#536E9F"/>
</g>
<mask id="mask3" mask-type="alpha" maskUnits="userSpaceOnUse" x="396" y="350" width="154" height="304">
<rect x="396" y="350" width="154" height="304" fill="#FEB48B"/>
</mask>
<g mask="url(#mask3)">
<circle cx="590" cy="502" r="152" fill="#FFDEC8"/>
<circle cx="590" cy="502" r="145" fill="#FEB48B"/>
</g>
<mask id="mask4" mask-type="alpha" maskUnits="userSpaceOnUse" x="468" y="357" width="82" height="293">
<rect x="468" y="357" width="82" height="293" fill="#FEB48B"/>
</mask>
<g mask="url(#mask4)">
<circle cx="590" cy="502" r="122" fill="#5992D6"/>
<circle cx="590" cy="502" r="114.942" fill="#FEB48B"/>
</g>
<mask id="mask5" mask-type="alpha" maskUnits="userSpaceOnUse" x="511" y="424" width="39" height="154">
<rect x="511" y="424" width="39" height="154" fill="#FEB48B"/>
</mask>
<g mask="url(#mask5)">
<circle cx="590.5" cy="501.5" r="79.5" fill="#536E9F"/>
<circle cx="590.803" cy="501.197" r="65.2385" fill="#FEB48B"/>
</g>
<path d="M178.923 262.561L314.489 270.801L357.648 288.596L432.699 309.251L479.237 323.024L496.744 332.409L498.07 358.95L327.198 337.778L252.93 342.357L215.743 393.093L245.463 465.46L319.018 463.836L388.487 479.482L387.605 524.067L302.819 524.851L128.276 513.538L15.4869 486.985L-30.552 420.431L-5.1542 363.983L178.923 262.561Z" fill="#5992D6"/>
<path d="M65.3581 370.23L188.756 273.114L298.575 278.319L305.367 284.369L314.396 276.177L321.562 287.797L328 281.787L343.95 288.363L375.156 297.981L420.286 311.173L434.714 329.036L486.806 344.016L493.938 341.541L498.344 359.604L483.883 365.014L327.2 337.778L255.005 342.67L191.378 386.838L168.911 449.6L237.579 483.87L289.561 483.642L350.308 484.86L382.867 487.454L383.859 495.445L351.253 495.539L350.352 524.412L302.82 524.851L217.076 531.738L125.735 513.031L75.8772 446.442L65.3581 370.23Z" fill="#536E9F"/>
<path d="M199.854 367.046L239.992 336.481L331.141 328.573L465.117 357.277L498.343 359.604L483.882 365.014L327.199 337.778L255.004 342.67L215.743 393.093L211.829 443.469L237.577 483.87L289.56 483.642L350.306 484.86L382.865 487.454L335.302 488.963L228.671 490.488L167.971 449.213L199.854 367.046Z" fill="#F28A83"/>
<path d="M322.145 276.124L309.915 294.368L311.308 274.363L300.383 288.271" stroke="#FEB48B"/>
<path d="M322.079 499.216L323.548 517.693L297.482 516.693L296.604 496.836L314.526 498.809L314.757 512.444L304.736 512.644L303.594 502.425" stroke="white"/>
<path d="M322.079 499.216L323.548 517.693L297.482 516.693L296.604 496.836L314.526 498.809L314.757 512.444L304.736 512.644L303.594 502.425" stroke="#FEB48B"/>
<path d="M6.6548 340.816L-38.5142 357.762L-59.115 364.812L-2.58369 517.444L63.4226 509.203L6.6548 340.816Z" fill="#EB6B74"/>
<path d="M6.65383 340.816L-38.5152 357.762L-59.116 364.811L48.39 496.059L-2.58466 517.444L63.4216 509.203L6.65383 340.816Z" fill="#F28A83"/>
<path d="M976.077 124.571C979.983 120.666 979.983 114.334 976.077 110.429L912.438 46.7893C908.533 42.8841 902.201 42.8841 898.296 46.7893C894.39 50.6946 894.39 57.0262 898.296 60.9315L954.864 117.5L898.296 174.069C894.39 177.974 894.39 184.305 898.296 188.211C902.201 192.116 908.533 192.116 912.438 188.211L976.077 124.571ZM-44.0059 127.5H969.006V107.5H-44.0059V127.5Z" fill="#EB6B74"/>
<mask id="mask6" mask-type="alpha" maskUnits="userSpaceOnUse" x="550" y="-12" width="457" height="323">
<rect x="550" y="-12" width="457" height="323" fill="#C4C4C4"/>
</mask>
<g mask="url(#mask6)">
<path d="M976.071 127.071C979.976 123.166 979.976 116.834 976.071 112.929L912.431 49.2893C908.526 45.3841 902.195 45.3841 898.289 49.2893C894.384 53.1946 894.384 59.5262 898.289 63.4315L954.858 120L898.289 176.569C894.384 180.474 894.384 186.805 898.289 190.711C902.195 194.616 908.526 194.616 912.431 190.711L976.071 127.071ZM470 130H969V110H470V130Z" fill="#FEB48B"/>
</g>
<path d="M419.906 771.393C414.048 777.251 414.048 786.749 419.906 792.607L515.366 888.066C521.224 893.924 530.721 893.924 536.579 888.066C542.437 882.208 542.437 872.711 536.579 866.853L451.726 782L536.579 697.147C542.437 691.289 542.437 681.792 536.579 675.934C530.721 670.076 521.224 670.076 515.366 675.934L419.906 771.393ZM1464 767L430.513 767V797L1464 797V767Z" fill="#F28A83"/>
<path d="M411.395 768.393C405.537 774.251 405.537 783.749 411.395 789.607L506.854 885.066C512.712 890.924 522.209 890.924 528.067 885.066C533.925 879.208 533.925 869.711 528.067 863.853L443.214 779L528.067 694.147C533.925 688.289 533.925 678.792 528.067 672.934C522.209 667.076 512.712 667.076 506.854 672.934L411.395 768.393ZM1455.49 764L422.001 764V794L1455.49 794V764Z" fill="#EB6B74"/>
<path d="M1087.63 144.711H1101.77V248H1087.63V144.711ZM1133.41 248H1116.53L1153.52 195.055L1118.85 144.711H1136.36L1162.73 184.227L1188.88 144.711H1205.55L1170.88 195.055L1207.23 248H1189.87L1162.02 205.531L1133.41 248ZM1260.25 236.047C1264.98 236.047 1268.88 235.555 1271.92 234.57C1277.36 232.742 1281.81 229.227 1285.28 224.023C1288.05 219.852 1290.04 214.508 1291.26 207.992C1291.96 204.102 1292.31 200.492 1292.31 197.164C1292.31 184.367 1289.76 174.43 1284.65 167.352C1279.59 160.273 1271.41 156.734 1260.11 156.734H1235.29V236.047H1260.25ZM1221.23 144.711H1263.06C1277.27 144.711 1288.28 149.75 1296.11 159.828C1303.09 168.922 1306.59 180.57 1306.59 194.773C1306.59 205.742 1304.52 215.656 1300.4 224.516C1293.13 240.172 1280.64 248 1262.92 248H1221.23V144.711Z" fill="#EB6B74"/>
<path d="M1079.63 141.711H1093.77V245H1079.63V141.711ZM1125.41 245H1108.53L1145.52 192.055L1110.85 141.711H1128.36L1154.73 181.227L1180.88 141.711H1197.55L1162.88 192.055L1199.23 245H1181.87L1154.02 202.531L1125.41 245ZM1252.25 233.047C1256.98 233.047 1260.88 232.555 1263.92 231.57C1269.36 229.742 1273.81 226.227 1277.28 221.023C1280.05 216.852 1282.04 211.508 1283.26 204.992C1283.96 201.102 1284.31 197.492 1284.31 194.164C1284.31 181.367 1281.76 171.43 1276.65 164.352C1271.59 157.273 1263.41 153.734 1252.11 153.734H1227.29V233.047H1252.25ZM1213.23 141.711H1255.06C1269.27 141.711 1280.28 146.75 1288.11 156.828C1295.09 165.922 1298.59 177.57 1298.59 191.773C1298.59 202.742 1296.52 212.656 1292.4 221.516C1285.13 237.172 1272.64 245 1254.92 245H1213.23V141.711Z" fill="#FFDEC8"/>
<path d="M1031 273.5H1385.5" stroke="#FFC6A6"/>
</g>
<defs>
<clipPath id="clip0">
<path d="M0 0H1440V900H0V0Z" fill="white"/>
</clipPath>
</defs>
</svg>
