<svg width="1440" height="1011" viewBox="0 0 1440 1011" fill="none" xmlns="http://www.w3.org/2000/svg">
<g clip-path="url(#clip0)">
<rect width="1440" height="1011" fill="#536E9F"/>
<rect width="550" height="1505" fill="#FEB48B"/>
<rect width="550" height="1505" fill="#FEB48B"/>
<mask id="mask0" mask-type="alpha" maskUnits="userSpaceOnUse" x="550" y="355" width="198" height="319">
<rect width="198" height="319" transform="matrix(-1 0 0 1 748 355)" fill="#FEB48B"/>
</mask>
<g mask="url(#mask0)">
<circle cx="590" cy="512" r="152" fill="#5992D6"/>
<circle cx="590" cy="512" r="145" fill="#536E9F"/>
</g>
<mask id="mask1" mask-type="alpha" maskUnits="userSpaceOnUse" x="550" y="384" width="164" height="252">
<rect width="164" height="252" transform="matrix(-1 0 0 1 714 384)" fill="#FEB48B"/>
</mask>
<g mask="url(#mask1)">
<circle cx="590" cy="512" r="122" fill="#F28A83"/>
<circle cx="590" cy="512" r="114.942" fill="#536E9F"/>
</g>
<mask id="mask2" mask-type="alpha" maskUnits="userSpaceOnUse" x="550" y="430" width="122" height="166">
<rect width="122" height="166" transform="matrix(-1 0 0 1 672 430)" fill="#FEB48B"/>
</mask>
<g mask="url(#mask2)">
<circle cx="590.5" cy="511.5" r="79.5" fill="#EB6B74"/>
<circle cx="590.803" cy="511.197" r="65.2385" fill="#536E9F"/>
</g>
<mask id="mask3" mask-type="alpha" maskUnits="userSpaceOnUse" x="396" y="360" width="154" height="304">
<rect x="396" y="360" width="154" height="304" fill="#FEB48B"/>
</mask>
<g mask="url(#mask3)">
<circle cx="590" cy="512" r="152" fill="#FFDEC8"/>
<circle cx="590" cy="512" r="145" fill="#FEB48B"/>
</g>
<mask id="mask4" mask-type="alpha" maskUnits="userSpaceOnUse" x="468" y="367" width="82" height="293">
<rect x="468" y="367" width="82" height="293" fill="#FEB48B"/>
</mask>
<g mask="url(#mask4)">
<circle cx="590" cy="512" r="122" fill="#5992D6"/>
<circle cx="590" cy="512" r="114.942" fill="#FEB48B"/>
</g>
<mask id="mask5" mask-type="alpha" maskUnits="userSpaceOnUse" x="511" y="434" width="39" height="154">
<rect x="511" y="434" width="39" height="154" fill="#FEB48B"/>
</mask>
<g mask="url(#mask5)">
<circle cx="590.5" cy="511.5" r="79.5" fill="#536E9F"/>
<circle cx="590.803" cy="511.197" r="65.2385" fill="#FEB48B"/>
</g>
<path d="M178.923 312.561L314.489 320.801L357.648 338.596L432.699 359.251L479.237 373.024L496.744 382.409L498.07 408.95L327.198 387.778L252.93 392.357L215.743 443.093L245.463 515.46L319.018 513.836L388.487 529.482L387.605 574.067L302.819 574.851L128.276 563.538L15.4869 536.985L-30.552 470.431L-5.1542 413.983L178.923 312.561Z" fill="#5992D6"/>
<path d="M65.3581 420.23L188.756 323.114L298.575 328.319L305.367 334.369L314.396 326.177L321.562 337.797L328 331.787L343.95 338.363L375.156 347.981L420.286 361.173L434.714 379.036L486.806 394.016L493.938 391.541L498.344 409.604L483.883 415.014L327.2 387.778L255.005 392.67L191.378 436.838L168.911 499.6L237.579 533.87L289.561 533.642L350.308 534.86L382.867 537.454L383.859 545.445L351.253 545.539L350.352 574.412L302.82 574.851L217.076 581.738L125.735 563.031L75.8772 496.442L65.3581 420.23Z" fill="#536E9F"/>
<path d="M199.854 417.046L239.992 386.481L331.141 378.573L465.117 407.277L498.343 409.604L483.882 415.014L327.199 387.778L255.004 392.67L215.743 443.093L211.829 493.469L237.577 533.87L289.56 533.642L350.306 534.86L382.865 537.454L335.302 538.963L228.671 540.488L167.971 499.213L199.854 417.046Z" fill="#F28A83"/>
<path d="M322.145 326.124L309.915 344.368L311.308 324.363L300.383 338.271" stroke="#FEB48B"/>
<path d="M322.079 549.216L323.548 567.693L297.482 566.693L296.604 546.836L314.526 548.809L314.757 562.444L304.736 562.644L303.594 552.425" stroke="white"/>
<path d="M322.079 549.216L323.548 567.693L297.482 566.693L296.604 546.836L314.526 548.809L314.757 562.444L304.736 562.644L303.594 552.425" stroke="#FEB48B"/>
<path d="M6.6548 390.816L-38.5142 407.762L-59.115 414.812L-2.58369 567.444L63.4226 559.203L6.6548 390.816Z" fill="#EB6B74"/>
<path d="M6.65383 390.816L-38.5152 407.762L-59.116 414.811L48.39 546.059L-2.58466 567.444L63.4216 559.203L6.65383 390.816Z" fill="#F28A83"/>
<path d="M882.304 121.935C885.233 119.006 885.233 114.257 882.304 111.328L834.574 63.5984C831.645 60.6695 826.896 60.6695 823.967 63.5984C821.038 66.5273 821.038 71.2761 823.967 74.205L866.394 116.631L823.967 159.058C821.038 161.987 821.038 166.735 823.967 169.664C826.896 172.593 831.645 172.593 834.574 169.664L882.304 121.935ZM-44.0078 124.131H877V109.131H-44.0078V124.131Z" fill="#EB6B74"/>
<mask id="mask6" mask-type="alpha" maskUnits="userSpaceOnUse" x="550" y="-12" width="457" height="323">
<rect x="550" y="-12" width="457" height="323" fill="#C4C4C4"/>
</mask>
<g mask="url(#mask6)">
<path d="M876.305 124.234C879.234 121.305 879.234 116.556 876.305 113.627L828.576 65.8977C825.647 62.9687 820.898 62.9687 817.969 65.8977C815.04 68.8266 815.04 73.5753 817.969 76.5043L860.395 118.931L817.969 161.357C815.04 164.286 815.04 169.035 817.969 171.964C820.898 174.893 825.647 174.893 828.576 171.964L876.305 124.234ZM469.997 126.431H871.002V111.431H469.997V126.431Z" fill="#FEB48B"/>
</g>
<path d="M631.636 894.929C627.731 898.834 627.731 905.166 631.636 909.071L695.276 972.711C699.181 976.616 705.513 976.616 709.418 972.711C713.323 968.805 713.323 962.474 709.418 958.569L652.85 902L709.418 845.431C713.323 841.526 713.323 835.195 709.418 831.289C705.513 827.384 699.181 827.384 695.276 831.289L631.636 894.929ZM1453 892L638.707 892V912L1453 912V892Z" fill="#F28A83"/>
<path d="M624.929 891.929C621.024 895.834 621.024 902.166 624.929 906.071L688.569 969.711C692.474 973.616 698.806 973.616 702.711 969.711C706.616 965.805 706.616 959.474 702.711 955.569L646.143 899L702.711 842.431C706.616 838.526 706.616 832.195 702.711 828.289C698.806 824.384 692.474 824.384 688.569 828.289L624.929 891.929ZM1446.29 889L632 889V909L1446.29 909V889Z" fill="#EB6B74"/>
<path d="M1129.48 138.09L1109.88 81.0488L1089.05 138.09H1129.48ZM1100.74 61.8887H1120.52L1167.36 191H1148.2L1135.11 152.328H1084.04L1070.07 191H1052.14L1100.74 61.8887ZM1193.29 165.951C1193.29 170.521 1194.96 174.125 1198.3 176.762C1201.64 179.398 1205.59 180.717 1210.16 180.717C1215.73 180.717 1221.12 179.428 1226.34 176.85C1235.12 172.572 1239.52 165.57 1239.52 155.844V143.1C1237.59 144.33 1235.1 145.355 1232.05 146.176C1229 146.996 1226.01 147.582 1223.08 147.934L1213.5 149.164C1207.76 149.926 1203.46 151.127 1200.58 152.768C1195.72 155.521 1193.29 159.916 1193.29 165.951ZM1231.61 133.959C1235.24 133.49 1237.67 131.967 1238.9 129.389C1239.61 127.982 1239.96 125.961 1239.96 123.324C1239.96 117.934 1238.03 114.037 1234.16 111.635C1230.35 109.174 1224.87 107.943 1217.72 107.943C1209.46 107.943 1203.6 110.17 1200.14 114.623C1198.21 117.084 1196.95 120.746 1196.37 125.609H1181.6C1181.89 114.008 1185.64 105.951 1192.85 101.439C1200.12 96.8691 1208.52 94.584 1218.07 94.584C1229.15 94.584 1238.14 96.6934 1245.06 100.912C1251.91 105.131 1255.34 111.693 1255.34 120.6V174.828C1255.34 176.469 1255.66 177.787 1256.31 178.783C1257.01 179.779 1258.45 180.277 1260.61 180.277C1261.32 180.277 1262.11 180.248 1262.99 180.189C1263.87 180.072 1264.8 179.926 1265.8 179.75V191.439C1263.34 192.143 1261.46 192.582 1260.17 192.758C1258.88 192.934 1257.13 193.021 1254.9 193.021C1249.45 193.021 1245.5 191.088 1243.04 187.221C1241.75 185.17 1240.84 182.27 1240.31 178.52C1237.09 182.738 1232.46 186.4 1226.42 189.506C1220.39 192.611 1213.74 194.164 1206.47 194.164C1197.74 194.164 1190.59 191.527 1185.03 186.254C1179.52 180.922 1176.77 174.271 1176.77 166.303C1176.77 157.572 1179.49 150.805 1184.94 146C1190.39 141.195 1197.54 138.236 1206.38 137.123L1231.61 133.959Z" fill="#EB6B74"/>
<path d="M1121.48 135.09L1101.88 78.0488L1081.05 135.09H1121.48ZM1092.74 58.8887H1112.52L1159.36 188H1140.2L1127.11 149.328H1076.04L1062.07 188H1044.14L1092.74 58.8887ZM1185.29 162.951C1185.29 167.521 1186.96 171.125 1190.3 173.762C1193.64 176.398 1197.59 177.717 1202.16 177.717C1207.73 177.717 1213.12 176.428 1218.34 173.85C1227.12 169.572 1231.52 162.57 1231.52 152.844V140.1C1229.59 141.33 1227.1 142.355 1224.05 143.176C1221 143.996 1218.01 144.582 1215.08 144.934L1205.5 146.164C1199.76 146.926 1195.46 148.127 1192.58 149.768C1187.72 152.521 1185.29 156.916 1185.29 162.951ZM1223.61 130.959C1227.24 130.49 1229.67 128.967 1230.9 126.389C1231.61 124.982 1231.96 122.961 1231.96 120.324C1231.96 114.934 1230.03 111.037 1226.16 108.635C1222.35 106.174 1216.87 104.943 1209.72 104.943C1201.46 104.943 1195.6 107.17 1192.14 111.623C1190.21 114.084 1188.95 117.746 1188.37 122.609H1173.6C1173.89 111.008 1177.64 102.951 1184.85 98.4395C1192.12 93.8691 1200.52 91.584 1210.07 91.584C1221.15 91.584 1230.14 93.6934 1237.06 97.9121C1243.91 102.131 1247.34 108.693 1247.34 117.6V171.828C1247.34 173.469 1247.66 174.787 1248.31 175.783C1249.01 176.779 1250.45 177.277 1252.61 177.277C1253.32 177.277 1254.11 177.248 1254.99 177.189C1255.87 177.072 1256.8 176.926 1257.8 176.75V188.439C1255.34 189.143 1253.46 189.582 1252.17 189.758C1250.88 189.934 1249.13 190.021 1246.9 190.021C1241.45 190.021 1237.5 188.088 1235.04 184.221C1233.75 182.17 1232.84 179.27 1232.31 175.52C1229.09 179.738 1224.46 183.4 1218.42 186.506C1212.39 189.611 1205.74 191.164 1198.47 191.164C1189.74 191.164 1182.59 188.527 1177.03 183.254C1171.52 177.922 1168.77 171.271 1168.77 163.303C1168.77 154.572 1171.49 147.805 1176.94 143C1182.39 138.195 1189.54 135.236 1198.38 134.123L1223.61 130.959Z" fill="#FFDEC8"/>
<path d="M1007 203.5H1361.5" stroke="#FFC6A6"/>
<path d="M74.32 792.48C72.5333 792.48 70.9733 792.067 69.64 791.24C68.3333 790.387 67.32 789.253 66.6 787.84C65.9067 786.4 65.3867 784.867 65.04 783.24C64.72 781.613 64.56 779.867 64.56 778C64.56 776.667 64.64 775.373 64.8 774.12C64.9867 772.867 65.3067 771.587 65.76 770.28C66.2133 768.947 66.7867 767.8 67.48 766.84C68.2 765.88 69.1467 765.093 70.32 764.48C71.4933 763.84 72.8267 763.52 74.32 763.52C76.1067 763.52 77.6667 763.947 79 764.8C80.3333 765.627 81.3467 766.76 82.04 768.2C82.76 769.64 83.28 771.173 83.6 772.8C83.9467 774.427 84.12 776.16 84.12 778C84.12 779.707 83.96 781.347 83.64 782.92C83.3467 784.467 82.8533 786 82.16 787.52C81.4667 789.013 80.44 790.213 79.08 791.12C77.7467 792.027 76.16 792.48 74.32 792.48ZM74.32 789.32C75.5467 789.32 76.5867 788.987 77.44 788.32C78.32 787.627 78.96 786.693 79.36 785.52C79.7867 784.347 80.08 783.16 80.24 781.96C80.4267 780.733 80.52 779.413 80.52 778C80.52 776.507 80.4133 775.133 80.2 773.88C80.0133 772.627 79.6933 771.44 79.24 770.32C78.8133 769.173 78.1733 768.28 77.32 767.64C76.4933 767 75.4933 766.68 74.32 766.68C73.0933 766.68 72.04 767.027 71.16 767.72C70.3067 768.387 69.6667 769.32 69.24 770.52C68.8133 771.693 68.5067 772.88 68.32 774.08C68.16 775.28 68.08 776.587 68.08 778C68.08 779.493 68.1733 780.88 68.36 782.16C68.5733 783.413 68.8933 784.6 69.32 785.72C69.7733 786.84 70.4133 787.72 71.24 788.36C72.0933 789 73.12 789.32 74.32 789.32ZM76.16 779.88C75.6533 780.387 75.04 780.64 74.32 780.64C73.6 780.64 72.9867 780.387 72.48 779.88C71.9733 779.347 71.72 778.733 71.72 778.04C71.72 777.32 71.9733 776.707 72.48 776.2C72.9867 775.667 73.6 775.4 74.32 775.4C75.04 775.4 75.6533 775.667 76.16 776.2C76.6933 776.707 76.96 777.32 76.96 778.04C76.96 778.733 76.6933 779.347 76.16 779.88ZM100.728 788.68H107.608V792H90.3284V788.68H97.2884V768.56L91.1684 770.6V767.28L100.728 763.88V788.68ZM125.377 788.68H132.257V792H114.977V788.68H121.937V768.56L115.817 770.6V767.28L125.377 763.88V788.68ZM148.265 792.48C146.479 792.48 144.919 792.067 143.585 791.24C142.279 790.387 141.265 789.253 140.545 787.84C139.852 786.4 139.332 784.867 138.985 783.24C138.665 781.613 138.505 779.867 138.505 778C138.505 776.667 138.585 775.373 138.745 774.12C138.932 772.867 139.252 771.587 139.705 770.28C140.159 768.947 140.732 767.8 141.425 766.84C142.145 765.88 143.092 765.093 144.265 764.48C145.439 763.84 146.772 763.52 148.265 763.52C150.052 763.52 151.612 763.947 152.945 764.8C154.279 765.627 155.292 766.76 155.985 768.2C156.705 769.64 157.225 771.173 157.545 772.8C157.892 774.427 158.065 776.16 158.065 778C158.065 779.707 157.905 781.347 157.585 782.92C157.292 784.467 156.799 786 156.105 787.52C155.412 789.013 154.385 790.213 153.025 791.12C151.692 792.027 150.105 792.48 148.265 792.48ZM148.265 789.32C149.492 789.32 150.532 788.987 151.385 788.32C152.265 787.627 152.905 786.693 153.305 785.52C153.732 784.347 154.025 783.16 154.185 781.96C154.372 780.733 154.465 779.413 154.465 778C154.465 776.507 154.359 775.133 154.145 773.88C153.959 772.627 153.639 771.44 153.185 770.32C152.759 769.173 152.119 768.28 151.265 767.64C150.439 767 149.439 766.68 148.265 766.68C147.039 766.68 145.985 767.027 145.105 767.72C144.252 768.387 143.612 769.32 143.185 770.52C142.759 771.693 142.452 772.88 142.265 774.08C142.105 775.28 142.025 776.587 142.025 778C142.025 779.493 142.119 780.88 142.305 782.16C142.519 783.413 142.839 784.6 143.265 785.72C143.719 786.84 144.359 787.72 145.185 788.36C146.039 789 147.065 789.32 148.265 789.32ZM150.105 779.88C149.599 780.387 148.985 780.64 148.265 780.64C147.545 780.64 146.932 780.387 146.425 779.88C145.919 779.347 145.665 778.733 145.665 778.04C145.665 777.32 145.919 776.707 146.425 776.2C146.932 775.667 147.545 775.4 148.265 775.4C148.985 775.4 149.599 775.667 150.105 776.2C150.639 776.707 150.905 777.32 150.905 778.04C150.905 778.733 150.639 779.347 150.105 779.88ZM174.674 788.68H181.554V792H164.274V788.68H171.234V768.56L165.114 770.6V767.28L174.674 763.88V788.68ZM197.562 792.48C195.776 792.48 194.216 792.067 192.882 791.24C191.576 790.387 190.562 789.253 189.842 787.84C189.149 786.4 188.629 784.867 188.282 783.24C187.962 781.613 187.802 779.867 187.802 778C187.802 776.667 187.882 775.373 188.042 774.12C188.229 772.867 188.549 771.587 189.002 770.28C189.456 768.947 190.029 767.8 190.722 766.84C191.442 765.88 192.389 765.093 193.562 764.48C194.736 763.84 196.069 763.52 197.562 763.52C199.349 763.52 200.909 763.947 202.242 764.8C203.576 765.627 204.589 766.76 205.282 768.2C206.002 769.64 206.522 771.173 206.842 772.8C207.189 774.427 207.362 776.16 207.362 778C207.362 779.707 207.202 781.347 206.882 782.92C206.589 784.467 206.096 786 205.402 787.52C204.709 789.013 203.682 790.213 202.322 791.12C200.989 792.027 199.402 792.48 197.562 792.48ZM197.562 789.32C198.789 789.32 199.829 788.987 200.682 788.32C201.562 787.627 202.202 786.693 202.602 785.52C203.029 784.347 203.322 783.16 203.482 781.96C203.669 780.733 203.762 779.413 203.762 778C203.762 776.507 203.656 775.133 203.442 773.88C203.256 772.627 202.936 771.44 202.482 770.32C202.056 769.173 201.416 768.28 200.562 767.64C199.736 767 198.736 766.68 197.562 766.68C196.336 766.68 195.282 767.027 194.402 767.72C193.549 768.387 192.909 769.32 192.482 770.52C192.056 771.693 191.749 772.88 191.562 774.08C191.402 775.28 191.322 776.587 191.322 778C191.322 779.493 191.416 780.88 191.602 782.16C191.816 783.413 192.136 784.6 192.562 785.72C193.016 786.84 193.656 787.72 194.482 788.36C195.336 789 196.362 789.32 197.562 789.32ZM199.402 779.88C198.896 780.387 198.282 780.64 197.562 780.64C196.842 780.64 196.229 780.387 195.722 779.88C195.216 779.347 194.962 778.733 194.962 778.04C194.962 777.32 195.216 776.707 195.722 776.2C196.229 775.667 196.842 775.4 197.562 775.4C198.282 775.4 198.896 775.667 199.402 776.2C199.936 776.707 200.202 777.32 200.202 778.04C200.202 778.733 199.936 779.347 199.402 779.88ZM222.211 792.48C220.424 792.48 218.864 792.067 217.531 791.24C216.224 790.387 215.211 789.253 214.491 787.84C213.797 786.4 213.277 784.867 212.931 783.24C212.611 781.613 212.451 779.867 212.451 778C212.451 776.667 212.531 775.373 212.691 774.12C212.877 772.867 213.197 771.587 213.651 770.28C214.104 768.947 214.677 767.8 215.371 766.84C216.091 765.88 217.037 765.093 218.211 764.48C219.384 763.84 220.717 763.52 222.211 763.52C223.997 763.52 225.557 763.947 226.891 764.8C228.224 765.627 229.237 766.76 229.931 768.2C230.651 769.64 231.171 771.173 231.491 772.8C231.837 774.427 232.011 776.16 232.011 778C232.011 779.707 231.851 781.347 231.531 782.92C231.237 784.467 230.744 786 230.051 787.52C229.357 789.013 228.331 790.213 226.971 791.12C225.637 792.027 224.051 792.48 222.211 792.48ZM222.211 789.32C223.437 789.32 224.477 788.987 225.331 788.32C226.211 787.627 226.851 786.693 227.251 785.52C227.677 784.347 227.971 783.16 228.131 781.96C228.317 780.733 228.411 779.413 228.411 778C228.411 776.507 228.304 775.133 228.091 773.88C227.904 772.627 227.584 771.44 227.131 770.32C226.704 769.173 226.064 768.28 225.211 767.64C224.384 767 223.384 766.68 222.211 766.68C220.984 766.68 219.931 767.027 219.051 767.72C218.197 768.387 217.557 769.32 217.131 770.52C216.704 771.693 216.397 772.88 216.211 774.08C216.051 775.28 215.971 776.587 215.971 778C215.971 779.493 216.064 780.88 216.251 782.16C216.464 783.413 216.784 784.6 217.211 785.72C217.664 786.84 218.304 787.72 219.131 788.36C219.984 789 221.011 789.32 222.211 789.32ZM224.051 779.88C223.544 780.387 222.931 780.64 222.211 780.64C221.491 780.64 220.877 780.387 220.371 779.88C219.864 779.347 219.611 778.733 219.611 778.04C219.611 777.32 219.864 776.707 220.371 776.2C220.877 775.667 221.491 775.4 222.211 775.4C222.931 775.4 223.544 775.667 224.051 776.2C224.584 776.707 224.851 777.32 224.851 778.04C224.851 778.733 224.584 779.347 224.051 779.88ZM248.619 788.68H255.499V792H238.219V788.68H245.179V768.56L239.059 770.6V767.28L248.619 763.88V788.68ZM296.156 792.48C294.369 792.48 292.809 792.067 291.476 791.24C290.169 790.387 289.156 789.253 288.436 787.84C287.743 786.4 287.223 784.867 286.876 783.24C286.556 781.613 286.396 779.867 286.396 778C286.396 776.667 286.476 775.373 286.636 774.12C286.823 772.867 287.143 771.587 287.596 770.28C288.049 768.947 288.623 767.8 289.316 766.84C290.036 765.88 290.983 765.093 292.156 764.48C293.329 763.84 294.663 763.52 296.156 763.52C297.943 763.52 299.503 763.947 300.836 764.8C302.169 765.627 303.183 766.76 303.876 768.2C304.596 769.64 305.116 771.173 305.436 772.8C305.783 774.427 305.956 776.16 305.956 778C305.956 779.707 305.796 781.347 305.476 782.92C305.183 784.467 304.689 786 303.996 787.52C303.303 789.013 302.276 790.213 300.916 791.12C299.583 792.027 297.996 792.48 296.156 792.48ZM296.156 789.32C297.383 789.32 298.423 788.987 299.276 788.32C300.156 787.627 300.796 786.693 301.196 785.52C301.623 784.347 301.916 783.16 302.076 781.96C302.263 780.733 302.356 779.413 302.356 778C302.356 776.507 302.249 775.133 302.036 773.88C301.849 772.627 301.529 771.44 301.076 770.32C300.649 769.173 300.009 768.28 299.156 767.64C298.329 767 297.329 766.68 296.156 766.68C294.929 766.68 293.876 767.027 292.996 767.72C292.143 768.387 291.503 769.32 291.076 770.52C290.649 771.693 290.343 772.88 290.156 774.08C289.996 775.28 289.916 776.587 289.916 778C289.916 779.493 290.009 780.88 290.196 782.16C290.409 783.413 290.729 784.6 291.156 785.72C291.609 786.84 292.249 787.72 293.076 788.36C293.929 789 294.956 789.32 296.156 789.32ZM297.996 779.88C297.489 780.387 296.876 780.64 296.156 780.64C295.436 780.64 294.823 780.387 294.316 779.88C293.809 779.347 293.556 778.733 293.556 778.04C293.556 777.32 293.809 776.707 294.316 776.2C294.823 775.667 295.436 775.4 296.156 775.4C296.876 775.4 297.489 775.667 297.996 776.2C298.529 776.707 298.796 777.32 298.796 778.04C298.796 778.733 298.529 779.347 297.996 779.88ZM322.564 788.68H329.444V792H312.164V788.68H319.124V768.56L313.004 770.6V767.28L322.564 763.88V788.68ZM347.213 788.68H354.093V792H336.813V788.68H343.773V768.56L337.653 770.6V767.28L347.213 763.88V788.68ZM371.861 788.68H378.741V792H361.461V788.68H368.421V768.56L362.301 770.6V767.28L371.861 763.88V788.68ZM396.51 788.68H403.39V792H386.11V788.68H393.07V768.56L386.95 770.6V767.28L396.51 763.88V788.68ZM419.398 792.48C417.611 792.48 416.051 792.067 414.718 791.24C413.411 790.387 412.398 789.253 411.678 787.84C410.985 786.4 410.465 784.867 410.118 783.24C409.798 781.613 409.638 779.867 409.638 778C409.638 776.667 409.718 775.373 409.878 774.12C410.065 772.867 410.385 771.587 410.838 770.28C411.291 768.947 411.865 767.8 412.558 766.84C413.278 765.88 414.225 765.093 415.398 764.48C416.571 763.84 417.905 763.52 419.398 763.52C421.185 763.52 422.745 763.947 424.078 764.8C425.411 765.627 426.425 766.76 427.118 768.2C427.838 769.64 428.358 771.173 428.678 772.8C429.025 774.427 429.198 776.16 429.198 778C429.198 779.707 429.038 781.347 428.718 782.92C428.425 784.467 427.931 786 427.238 787.52C426.545 789.013 425.518 790.213 424.158 791.12C422.825 792.027 421.238 792.48 419.398 792.48ZM419.398 789.32C420.625 789.32 421.665 788.987 422.518 788.32C423.398 787.627 424.038 786.693 424.438 785.52C424.865 784.347 425.158 783.16 425.318 781.96C425.505 780.733 425.598 779.413 425.598 778C425.598 776.507 425.491 775.133 425.278 773.88C425.091 772.627 424.771 771.44 424.318 770.32C423.891 769.173 423.251 768.28 422.398 767.64C421.571 767 420.571 766.68 419.398 766.68C418.171 766.68 417.118 767.027 416.238 767.72C415.385 768.387 414.745 769.32 414.318 770.52C413.891 771.693 413.585 772.88 413.398 774.08C413.238 775.28 413.158 776.587 413.158 778C413.158 779.493 413.251 780.88 413.438 782.16C413.651 783.413 413.971 784.6 414.398 785.72C414.851 786.84 415.491 787.72 416.318 788.36C417.171 789 418.198 789.32 419.398 789.32ZM421.238 779.88C420.731 780.387 420.118 780.64 419.398 780.64C418.678 780.64 418.065 780.387 417.558 779.88C417.051 779.347 416.798 778.733 416.798 778.04C416.798 777.32 417.051 776.707 417.558 776.2C418.065 775.667 418.678 775.4 419.398 775.4C420.118 775.4 420.731 775.667 421.238 776.2C421.771 776.707 422.038 777.32 422.038 778.04C422.038 778.733 421.771 779.347 421.238 779.88ZM444.047 792.48C442.26 792.48 440.7 792.067 439.367 791.24C438.06 790.387 437.047 789.253 436.327 787.84C435.633 786.4 435.113 784.867 434.767 783.24C434.447 781.613 434.287 779.867 434.287 778C434.287 776.667 434.367 775.373 434.527 774.12C434.713 772.867 435.033 771.587 435.487 770.28C435.94 768.947 436.513 767.8 437.207 766.84C437.927 765.88 438.873 765.093 440.047 764.48C441.22 763.84 442.553 763.52 444.047 763.52C445.833 763.52 447.393 763.947 448.727 764.8C450.06 765.627 451.073 766.76 451.767 768.2C452.487 769.64 453.007 771.173 453.327 772.8C453.673 774.427 453.847 776.16 453.847 778C453.847 779.707 453.687 781.347 453.367 782.92C453.073 784.467 452.58 786 451.887 787.52C451.193 789.013 450.167 790.213 448.807 791.12C447.473 792.027 445.887 792.48 444.047 792.48ZM444.047 789.32C445.273 789.32 446.313 788.987 447.167 788.32C448.047 787.627 448.687 786.693 449.087 785.52C449.513 784.347 449.807 783.16 449.967 781.96C450.153 780.733 450.247 779.413 450.247 778C450.247 776.507 450.14 775.133 449.927 773.88C449.74 772.627 449.42 771.44 448.967 770.32C448.54 769.173 447.9 768.28 447.047 767.64C446.22 767 445.22 766.68 444.047 766.68C442.82 766.68 441.767 767.027 440.887 767.72C440.033 768.387 439.393 769.32 438.967 770.52C438.54 771.693 438.233 772.88 438.047 774.08C437.887 775.28 437.807 776.587 437.807 778C437.807 779.493 437.9 780.88 438.087 782.16C438.3 783.413 438.62 784.6 439.047 785.72C439.5 786.84 440.14 787.72 440.967 788.36C441.82 789 442.847 789.32 444.047 789.32ZM445.887 779.88C445.38 780.387 444.767 780.64 444.047 780.64C443.327 780.64 442.713 780.387 442.207 779.88C441.7 779.347 441.447 778.733 441.447 778.04C441.447 777.32 441.7 776.707 442.207 776.2C442.713 775.667 443.327 775.4 444.047 775.4C444.767 775.4 445.38 775.667 445.887 776.2C446.42 776.707 446.687 777.32 446.687 778.04C446.687 778.733 446.42 779.347 445.887 779.88ZM468.695 792.48C466.908 792.48 465.348 792.067 464.015 791.24C462.708 790.387 461.695 789.253 460.975 787.84C460.282 786.4 459.762 784.867 459.415 783.24C459.095 781.613 458.935 779.867 458.935 778C458.935 776.667 459.015 775.373 459.175 774.12C459.362 772.867 459.682 771.587 460.135 770.28C460.588 768.947 461.162 767.8 461.855 766.84C462.575 765.88 463.522 765.093 464.695 764.48C465.868 763.84 467.202 763.52 468.695 763.52C470.482 763.52 472.042 763.947 473.375 764.8C474.708 765.627 475.722 766.76 476.415 768.2C477.135 769.64 477.655 771.173 477.975 772.8C478.322 774.427 478.495 776.16 478.495 778C478.495 779.707 478.335 781.347 478.015 782.92C477.722 784.467 477.228 786 476.535 787.52C475.842 789.013 474.815 790.213 473.455 791.12C472.122 792.027 470.535 792.48 468.695 792.48ZM468.695 789.32C469.922 789.32 470.962 788.987 471.815 788.32C472.695 787.627 473.335 786.693 473.735 785.52C474.162 784.347 474.455 783.16 474.615 781.96C474.802 780.733 474.895 779.413 474.895 778C474.895 776.507 474.788 775.133 474.575 773.88C474.388 772.627 474.068 771.44 473.615 770.32C473.188 769.173 472.548 768.28 471.695 767.64C470.868 767 469.868 766.68 468.695 766.68C467.468 766.68 466.415 767.027 465.535 767.72C464.682 768.387 464.042 769.32 463.615 770.52C463.188 771.693 462.882 772.88 462.695 774.08C462.535 775.28 462.455 776.587 462.455 778C462.455 779.493 462.548 780.88 462.735 782.16C462.948 783.413 463.268 784.6 463.695 785.72C464.148 786.84 464.788 787.72 465.615 788.36C466.468 789 467.495 789.32 468.695 789.32ZM470.535 779.88C470.028 780.387 469.415 780.64 468.695 780.64C467.975 780.64 467.362 780.387 466.855 779.88C466.348 779.347 466.095 778.733 466.095 778.04C466.095 777.32 466.348 776.707 466.855 776.2C467.362 775.667 467.975 775.4 468.695 775.4C469.415 775.4 470.028 775.667 470.535 776.2C471.068 776.707 471.335 777.32 471.335 778.04C471.335 778.733 471.068 779.347 470.535 779.88ZM197.562 853.48C195.776 853.48 194.216 853.067 192.882 852.24C191.576 851.387 190.562 850.253 189.842 848.84C189.149 847.4 188.629 845.867 188.282 844.24C187.962 842.613 187.802 840.867 187.802 839C187.802 837.667 187.882 836.373 188.042 835.12C188.229 833.867 188.549 832.587 189.002 831.28C189.456 829.947 190.029 828.8 190.722 827.84C191.442 826.88 192.389 826.093 193.562 825.48C194.736 824.84 196.069 824.52 197.562 824.52C199.349 824.52 200.909 824.947 202.242 825.8C203.576 826.627 204.589 827.76 205.282 829.2C206.002 830.64 206.522 832.173 206.842 833.8C207.189 835.427 207.362 837.16 207.362 839C207.362 840.707 207.202 842.347 206.882 843.92C206.589 845.467 206.096 847 205.402 848.52C204.709 850.013 203.682 851.213 202.322 852.12C200.989 853.027 199.402 853.48 197.562 853.48ZM197.562 850.32C198.789 850.32 199.829 849.987 200.682 849.32C201.562 848.627 202.202 847.693 202.602 846.52C203.029 845.347 203.322 844.16 203.482 842.96C203.669 841.733 203.762 840.413 203.762 839C203.762 837.507 203.656 836.133 203.442 834.88C203.256 833.627 202.936 832.44 202.482 831.32C202.056 830.173 201.416 829.28 200.562 828.64C199.736 828 198.736 827.68 197.562 827.68C196.336 827.68 195.282 828.027 194.402 828.72C193.549 829.387 192.909 830.32 192.482 831.52C192.056 832.693 191.749 833.88 191.562 835.08C191.402 836.28 191.322 837.587 191.322 839C191.322 840.493 191.416 841.88 191.602 843.16C191.816 844.413 192.136 845.6 192.562 846.72C193.016 847.84 193.656 848.72 194.482 849.36C195.336 850 196.362 850.32 197.562 850.32ZM199.402 840.88C198.896 841.387 198.282 841.64 197.562 841.64C196.842 841.64 196.229 841.387 195.722 840.88C195.216 840.347 194.962 839.733 194.962 839.04C194.962 838.32 195.216 837.707 195.722 837.2C196.229 836.667 196.842 836.4 197.562 836.4C198.282 836.4 198.896 836.667 199.402 837.2C199.936 837.707 200.202 838.32 200.202 839.04C200.202 839.733 199.936 840.347 199.402 840.88ZM223.971 849.68H230.851V853H213.571V849.68H220.531V829.56L214.411 831.6V828.28L223.971 824.88V849.68ZM248.619 849.68H255.499V853H238.219V849.68H245.179V829.56L239.059 831.6V828.28L248.619 824.88V849.68ZM271.508 853.48C269.721 853.48 268.161 853.067 266.828 852.24C265.521 851.387 264.508 850.253 263.788 848.84C263.094 847.4 262.574 845.867 262.228 844.24C261.908 842.613 261.748 840.867 261.748 839C261.748 837.667 261.828 836.373 261.988 835.12C262.174 833.867 262.494 832.587 262.948 831.28C263.401 829.947 263.974 828.8 264.668 827.84C265.388 826.88 266.334 826.093 267.508 825.48C268.681 824.84 270.014 824.52 271.508 824.52C273.294 824.52 274.854 824.947 276.188 825.8C277.521 826.627 278.534 827.76 279.228 829.2C279.948 830.64 280.468 832.173 280.788 833.8C281.134 835.427 281.308 837.16 281.308 839C281.308 840.707 281.148 842.347 280.828 843.92C280.534 845.467 280.041 847 279.348 848.52C278.654 850.013 277.628 851.213 276.268 852.12C274.934 853.027 273.348 853.48 271.508 853.48ZM271.508 850.32C272.734 850.32 273.774 849.987 274.628 849.32C275.508 848.627 276.148 847.693 276.548 846.52C276.974 845.347 277.268 844.16 277.428 842.96C277.614 841.733 277.708 840.413 277.708 839C277.708 837.507 277.601 836.133 277.388 834.88C277.201 833.627 276.881 832.44 276.428 831.32C276.001 830.173 275.361 829.28 274.508 828.64C273.681 828 272.681 827.68 271.508 827.68C270.281 827.68 269.228 828.027 268.348 828.72C267.494 829.387 266.854 830.32 266.428 831.52C266.001 832.693 265.694 833.88 265.508 835.08C265.348 836.28 265.268 837.587 265.268 839C265.268 840.493 265.361 841.88 265.548 843.16C265.761 844.413 266.081 845.6 266.508 846.72C266.961 847.84 267.601 848.72 268.428 849.36C269.281 850 270.308 850.32 271.508 850.32ZM273.348 840.88C272.841 841.387 272.228 841.64 271.508 841.64C270.788 841.64 270.174 841.387 269.668 840.88C269.161 840.347 268.908 839.733 268.908 839.04C268.908 838.32 269.161 837.707 269.668 837.2C270.174 836.667 270.788 836.4 271.508 836.4C272.228 836.4 272.841 836.667 273.348 837.2C273.881 837.707 274.148 838.32 274.148 839.04C274.148 839.733 273.881 840.347 273.348 840.88ZM296.156 853.48C294.369 853.48 292.809 853.067 291.476 852.24C290.169 851.387 289.156 850.253 288.436 848.84C287.743 847.4 287.223 845.867 286.876 844.24C286.556 842.613 286.396 840.867 286.396 839C286.396 837.667 286.476 836.373 286.636 835.12C286.823 833.867 287.143 832.587 287.596 831.28C288.049 829.947 288.623 828.8 289.316 827.84C290.036 826.88 290.983 826.093 292.156 825.48C293.329 824.84 294.663 824.52 296.156 824.52C297.943 824.52 299.503 824.947 300.836 825.8C302.169 826.627 303.183 827.76 303.876 829.2C304.596 830.64 305.116 832.173 305.436 833.8C305.783 835.427 305.956 837.16 305.956 839C305.956 840.707 305.796 842.347 305.476 843.92C305.183 845.467 304.689 847 303.996 848.52C303.303 850.013 302.276 851.213 300.916 852.12C299.583 853.027 297.996 853.48 296.156 853.48ZM296.156 850.32C297.383 850.32 298.423 849.987 299.276 849.32C300.156 848.627 300.796 847.693 301.196 846.52C301.623 845.347 301.916 844.16 302.076 842.96C302.263 841.733 302.356 840.413 302.356 839C302.356 837.507 302.249 836.133 302.036 834.88C301.849 833.627 301.529 832.44 301.076 831.32C300.649 830.173 300.009 829.28 299.156 828.64C298.329 828 297.329 827.68 296.156 827.68C294.929 827.68 293.876 828.027 292.996 828.72C292.143 829.387 291.503 830.32 291.076 831.52C290.649 832.693 290.343 833.88 290.156 835.08C289.996 836.28 289.916 837.587 289.916 839C289.916 840.493 290.009 841.88 290.196 843.16C290.409 844.413 290.729 845.6 291.156 846.72C291.609 847.84 292.249 848.72 293.076 849.36C293.929 850 294.956 850.32 296.156 850.32ZM297.996 840.88C297.489 841.387 296.876 841.64 296.156 841.64C295.436 841.64 294.823 841.387 294.316 840.88C293.809 840.347 293.556 839.733 293.556 839.04C293.556 838.32 293.809 837.707 294.316 837.2C294.823 836.667 295.436 836.4 296.156 836.4C296.876 836.4 297.489 836.667 297.996 837.2C298.529 837.707 298.796 838.32 298.796 839.04C298.796 839.733 298.529 840.347 297.996 840.88ZM322.564 849.68H329.444V853H312.164V849.68H319.124V829.56L313.004 831.6V828.28L322.564 824.88V849.68ZM345.453 853.48C343.666 853.48 342.106 853.067 340.773 852.24C339.466 851.387 338.453 850.253 337.733 848.84C337.039 847.4 336.519 845.867 336.173 844.24C335.853 842.613 335.693 840.867 335.693 839C335.693 837.667 335.773 836.373 335.933 835.12C336.119 833.867 336.439 832.587 336.893 831.28C337.346 829.947 337.919 828.8 338.613 827.84C339.333 826.88 340.279 826.093 341.453 825.48C342.626 824.84 343.959 824.52 345.453 824.52C347.239 824.52 348.799 824.947 350.133 825.8C351.466 826.627 352.479 827.76 353.173 829.2C353.893 830.64 354.413 832.173 354.733 833.8C355.079 835.427 355.253 837.16 355.253 839C355.253 840.707 355.093 842.347 354.773 843.92C354.479 845.467 353.986 847 353.293 848.52C352.599 850.013 351.573 851.213 350.213 852.12C348.879 853.027 347.293 853.48 345.453 853.48ZM345.453 850.32C346.679 850.32 347.719 849.987 348.573 849.32C349.453 848.627 350.093 847.693 350.493 846.52C350.919 845.347 351.213 844.16 351.373 842.96C351.559 841.733 351.653 840.413 351.653 839C351.653 837.507 351.546 836.133 351.333 834.88C351.146 833.627 350.826 832.44 350.373 831.32C349.946 830.173 349.306 829.28 348.453 828.64C347.626 828 346.626 827.68 345.453 827.68C344.226 827.68 343.173 828.027 342.293 828.72C341.439 829.387 340.799 830.32 340.373 831.52C339.946 832.693 339.639 833.88 339.453 835.08C339.293 836.28 339.213 837.587 339.213 839C339.213 840.493 339.306 841.88 339.493 843.16C339.706 844.413 340.026 845.6 340.453 846.72C340.906 847.84 341.546 848.72 342.373 849.36C343.226 850 344.253 850.32 345.453 850.32ZM347.293 840.88C346.786 841.387 346.173 841.64 345.453 841.64C344.733 841.64 344.119 841.387 343.613 840.88C343.106 840.347 342.853 839.733 342.853 839.04C342.853 838.32 343.106 837.707 343.613 837.2C344.119 836.667 344.733 836.4 345.453 836.4C346.173 836.4 346.786 836.667 347.293 837.2C347.826 837.707 348.093 838.32 348.093 839.04C348.093 839.733 347.826 840.347 347.293 840.88ZM370.101 853.48C368.315 853.48 366.755 853.067 365.421 852.24C364.115 851.387 363.101 850.253 362.381 848.84C361.688 847.4 361.168 845.867 360.821 844.24C360.501 842.613 360.341 840.867 360.341 839C360.341 837.667 360.421 836.373 360.581 835.12C360.768 833.867 361.088 832.587 361.541 831.28C361.995 829.947 362.568 828.8 363.261 827.84C363.981 826.88 364.928 826.093 366.101 825.48C367.275 824.84 368.608 824.52 370.101 824.52C371.888 824.52 373.448 824.947 374.781 825.8C376.115 826.627 377.128 827.76 377.821 829.2C378.541 830.64 379.061 832.173 379.381 833.8C379.728 835.427 379.901 837.16 379.901 839C379.901 840.707 379.741 842.347 379.421 843.92C379.128 845.467 378.635 847 377.941 848.52C377.248 850.013 376.221 851.213 374.861 852.12C373.528 853.027 371.941 853.48 370.101 853.48ZM370.101 850.32C371.328 850.32 372.368 849.987 373.221 849.32C374.101 848.627 374.741 847.693 375.141 846.52C375.568 845.347 375.861 844.16 376.021 842.96C376.208 841.733 376.301 840.413 376.301 839C376.301 837.507 376.195 836.133 375.981 834.88C375.795 833.627 375.475 832.44 375.021 831.32C374.595 830.173 373.955 829.28 373.101 828.64C372.275 828 371.275 827.68 370.101 827.68C368.875 827.68 367.821 828.027 366.941 828.72C366.088 829.387 365.448 830.32 365.021 831.52C364.595 832.693 364.288 833.88 364.101 835.08C363.941 836.28 363.861 837.587 363.861 839C363.861 840.493 363.955 841.88 364.141 843.16C364.355 844.413 364.675 845.6 365.101 846.72C365.555 847.84 366.195 848.72 367.021 849.36C367.875 850 368.901 850.32 370.101 850.32ZM371.941 840.88C371.435 841.387 370.821 841.64 370.101 841.64C369.381 841.64 368.768 841.387 368.261 840.88C367.755 840.347 367.501 839.733 367.501 839.04C367.501 838.32 367.755 837.707 368.261 837.2C368.768 836.667 369.381 836.4 370.101 836.4C370.821 836.4 371.435 836.667 371.941 837.2C372.475 837.707 372.741 838.32 372.741 839.04C372.741 839.733 372.475 840.347 371.941 840.88Z" fill="#5992D6"/>
<path d="M72.32 790.48C70.5333 790.48 68.9733 790.067 67.64 789.24C66.3333 788.387 65.32 787.253 64.6 785.84C63.9067 784.4 63.3867 782.867 63.04 781.24C62.72 779.613 62.56 777.867 62.56 776C62.56 774.667 62.64 773.373 62.8 772.12C62.9867 770.867 63.3067 769.587 63.76 768.28C64.2133 766.947 64.7867 765.8 65.48 764.84C66.2 763.88 67.1467 763.093 68.32 762.48C69.4933 761.84 70.8267 761.52 72.32 761.52C74.1067 761.52 75.6667 761.947 77 762.8C78.3333 763.627 79.3467 764.76 80.04 766.2C80.76 767.64 81.28 769.173 81.6 770.8C81.9467 772.427 82.12 774.16 82.12 776C82.12 777.707 81.96 779.347 81.64 780.92C81.3467 782.467 80.8533 784 80.16 785.52C79.4667 787.013 78.44 788.213 77.08 789.12C75.7467 790.027 74.16 790.48 72.32 790.48ZM72.32 787.32C73.5467 787.32 74.5867 786.987 75.44 786.32C76.32 785.627 76.96 784.693 77.36 783.52C77.7867 782.347 78.08 781.16 78.24 779.96C78.4267 778.733 78.52 777.413 78.52 776C78.52 774.507 78.4133 773.133 78.2 771.88C78.0133 770.627 77.6933 769.44 77.24 768.32C76.8133 767.173 76.1733 766.28 75.32 765.64C74.4933 765 73.4933 764.68 72.32 764.68C71.0933 764.68 70.04 765.027 69.16 765.72C68.3067 766.387 67.6667 767.32 67.24 768.52C66.8133 769.693 66.5067 770.88 66.32 772.08C66.16 773.28 66.08 774.587 66.08 776C66.08 777.493 66.1733 778.88 66.36 780.16C66.5733 781.413 66.8933 782.6 67.32 783.72C67.7733 784.84 68.4133 785.72 69.24 786.36C70.0933 787 71.12 787.32 72.32 787.32ZM74.16 777.88C73.6533 778.387 73.04 778.64 72.32 778.64C71.6 778.64 70.9867 778.387 70.48 777.88C69.9733 777.347 69.72 776.733 69.72 776.04C69.72 775.32 69.9733 774.707 70.48 774.2C70.9867 773.667 71.6 773.4 72.32 773.4C73.04 773.4 73.6533 773.667 74.16 774.2C74.6933 774.707 74.96 775.32 74.96 776.04C74.96 776.733 74.6933 777.347 74.16 777.88ZM98.7284 786.68H105.608V790H88.3284V786.68H95.2884V766.56L89.1684 768.6V765.28L98.7284 761.88V786.68ZM123.377 786.68H130.257V790H112.977V786.68H119.937V766.56L113.817 768.6V765.28L123.377 761.88V786.68ZM146.265 790.48C144.479 790.48 142.919 790.067 141.585 789.24C140.279 788.387 139.265 787.253 138.545 785.84C137.852 784.4 137.332 782.867 136.985 781.24C136.665 779.613 136.505 777.867 136.505 776C136.505 774.667 136.585 773.373 136.745 772.12C136.932 770.867 137.252 769.587 137.705 768.28C138.159 766.947 138.732 765.8 139.425 764.84C140.145 763.88 141.092 763.093 142.265 762.48C143.439 761.84 144.772 761.52 146.265 761.52C148.052 761.52 149.612 761.947 150.945 762.8C152.279 763.627 153.292 764.76 153.985 766.2C154.705 767.64 155.225 769.173 155.545 770.8C155.892 772.427 156.065 774.16 156.065 776C156.065 777.707 155.905 779.347 155.585 780.92C155.292 782.467 154.799 784 154.105 785.52C153.412 787.013 152.385 788.213 151.025 789.12C149.692 790.027 148.105 790.48 146.265 790.48ZM146.265 787.32C147.492 787.32 148.532 786.987 149.385 786.32C150.265 785.627 150.905 784.693 151.305 783.52C151.732 782.347 152.025 781.16 152.185 779.96C152.372 778.733 152.465 777.413 152.465 776C152.465 774.507 152.359 773.133 152.145 771.88C151.959 770.627 151.639 769.44 151.185 768.32C150.759 767.173 150.119 766.28 149.265 765.64C148.439 765 147.439 764.68 146.265 764.68C145.039 764.68 143.985 765.027 143.105 765.72C142.252 766.387 141.612 767.32 141.185 768.52C140.759 769.693 140.452 770.88 140.265 772.08C140.105 773.28 140.025 774.587 140.025 776C140.025 777.493 140.119 778.88 140.305 780.16C140.519 781.413 140.839 782.6 141.265 783.72C141.719 784.84 142.359 785.72 143.185 786.36C144.039 787 145.065 787.32 146.265 787.32ZM148.105 777.88C147.599 778.387 146.985 778.64 146.265 778.64C145.545 778.64 144.932 778.387 144.425 777.88C143.919 777.347 143.665 776.733 143.665 776.04C143.665 775.32 143.919 774.707 144.425 774.2C144.932 773.667 145.545 773.4 146.265 773.4C146.985 773.4 147.599 773.667 148.105 774.2C148.639 774.707 148.905 775.32 148.905 776.04C148.905 776.733 148.639 777.347 148.105 777.88ZM172.674 786.68H179.554V790H162.274V786.68H169.234V766.56L163.114 768.6V765.28L172.674 761.88V786.68ZM195.562 790.48C193.776 790.48 192.216 790.067 190.882 789.24C189.576 788.387 188.562 787.253 187.842 785.84C187.149 784.4 186.629 782.867 186.282 781.24C185.962 779.613 185.802 777.867 185.802 776C185.802 774.667 185.882 773.373 186.042 772.12C186.229 770.867 186.549 769.587 187.002 768.28C187.456 766.947 188.029 765.8 188.722 764.84C189.442 763.88 190.389 763.093 191.562 762.48C192.736 761.84 194.069 761.52 195.562 761.52C197.349 761.52 198.909 761.947 200.242 762.8C201.576 763.627 202.589 764.76 203.282 766.2C204.002 767.64 204.522 769.173 204.842 770.8C205.189 772.427 205.362 774.16 205.362 776C205.362 777.707 205.202 779.347 204.882 780.92C204.589 782.467 204.096 784 203.402 785.52C202.709 787.013 201.682 788.213 200.322 789.12C198.989 790.027 197.402 790.48 195.562 790.48ZM195.562 787.32C196.789 787.32 197.829 786.987 198.682 786.32C199.562 785.627 200.202 784.693 200.602 783.52C201.029 782.347 201.322 781.16 201.482 779.96C201.669 778.733 201.762 777.413 201.762 776C201.762 774.507 201.656 773.133 201.442 771.88C201.256 770.627 200.936 769.44 200.482 768.32C200.056 767.173 199.416 766.28 198.562 765.64C197.736 765 196.736 764.68 195.562 764.68C194.336 764.68 193.282 765.027 192.402 765.72C191.549 766.387 190.909 767.32 190.482 768.52C190.056 769.693 189.749 770.88 189.562 772.08C189.402 773.28 189.322 774.587 189.322 776C189.322 777.493 189.416 778.88 189.602 780.16C189.816 781.413 190.136 782.6 190.562 783.72C191.016 784.84 191.656 785.72 192.482 786.36C193.336 787 194.362 787.32 195.562 787.32ZM197.402 777.88C196.896 778.387 196.282 778.64 195.562 778.64C194.842 778.64 194.229 778.387 193.722 777.88C193.216 777.347 192.962 776.733 192.962 776.04C192.962 775.32 193.216 774.707 193.722 774.2C194.229 773.667 194.842 773.4 195.562 773.4C196.282 773.4 196.896 773.667 197.402 774.2C197.936 774.707 198.202 775.32 198.202 776.04C198.202 776.733 197.936 777.347 197.402 777.88ZM220.211 790.48C218.424 790.48 216.864 790.067 215.531 789.24C214.224 788.387 213.211 787.253 212.491 785.84C211.797 784.4 211.277 782.867 210.931 781.24C210.611 779.613 210.451 777.867 210.451 776C210.451 774.667 210.531 773.373 210.691 772.12C210.877 770.867 211.197 769.587 211.651 768.28C212.104 766.947 212.677 765.8 213.371 764.84C214.091 763.88 215.037 763.093 216.211 762.48C217.384 761.84 218.717 761.52 220.211 761.52C221.997 761.52 223.557 761.947 224.891 762.8C226.224 763.627 227.237 764.76 227.931 766.2C228.651 767.64 229.171 769.173 229.491 770.8C229.837 772.427 230.011 774.16 230.011 776C230.011 777.707 229.851 779.347 229.531 780.92C229.237 782.467 228.744 784 228.051 785.52C227.357 787.013 226.331 788.213 224.971 789.12C223.637 790.027 222.051 790.48 220.211 790.48ZM220.211 787.32C221.437 787.32 222.477 786.987 223.331 786.32C224.211 785.627 224.851 784.693 225.251 783.52C225.677 782.347 225.971 781.16 226.131 779.96C226.317 778.733 226.411 777.413 226.411 776C226.411 774.507 226.304 773.133 226.091 771.88C225.904 770.627 225.584 769.44 225.131 768.32C224.704 767.173 224.064 766.28 223.211 765.64C222.384 765 221.384 764.68 220.211 764.68C218.984 764.68 217.931 765.027 217.051 765.72C216.197 766.387 215.557 767.32 215.131 768.52C214.704 769.693 214.397 770.88 214.211 772.08C214.051 773.28 213.971 774.587 213.971 776C213.971 777.493 214.064 778.88 214.251 780.16C214.464 781.413 214.784 782.6 215.211 783.72C215.664 784.84 216.304 785.72 217.131 786.36C217.984 787 219.011 787.32 220.211 787.32ZM222.051 777.88C221.544 778.387 220.931 778.64 220.211 778.64C219.491 778.64 218.877 778.387 218.371 777.88C217.864 777.347 217.611 776.733 217.611 776.04C217.611 775.32 217.864 774.707 218.371 774.2C218.877 773.667 219.491 773.4 220.211 773.4C220.931 773.4 221.544 773.667 222.051 774.2C222.584 774.707 222.851 775.32 222.851 776.04C222.851 776.733 222.584 777.347 222.051 777.88ZM246.619 786.68H253.499V790H236.219V786.68H243.179V766.56L237.059 768.6V765.28L246.619 761.88V786.68ZM294.156 790.48C292.369 790.48 290.809 790.067 289.476 789.24C288.169 788.387 287.156 787.253 286.436 785.84C285.743 784.4 285.223 782.867 284.876 781.24C284.556 779.613 284.396 777.867 284.396 776C284.396 774.667 284.476 773.373 284.636 772.12C284.823 770.867 285.143 769.587 285.596 768.28C286.049 766.947 286.623 765.8 287.316 764.84C288.036 763.88 288.983 763.093 290.156 762.48C291.329 761.84 292.663 761.52 294.156 761.52C295.943 761.52 297.503 761.947 298.836 762.8C300.169 763.627 301.183 764.76 301.876 766.2C302.596 767.64 303.116 769.173 303.436 770.8C303.783 772.427 303.956 774.16 303.956 776C303.956 777.707 303.796 779.347 303.476 780.92C303.183 782.467 302.689 784 301.996 785.52C301.303 787.013 300.276 788.213 298.916 789.12C297.583 790.027 295.996 790.48 294.156 790.48ZM294.156 787.32C295.383 787.32 296.423 786.987 297.276 786.32C298.156 785.627 298.796 784.693 299.196 783.52C299.623 782.347 299.916 781.16 300.076 779.96C300.263 778.733 300.356 777.413 300.356 776C300.356 774.507 300.249 773.133 300.036 771.88C299.849 770.627 299.529 769.44 299.076 768.32C298.649 767.173 298.009 766.28 297.156 765.64C296.329 765 295.329 764.68 294.156 764.68C292.929 764.68 291.876 765.027 290.996 765.72C290.143 766.387 289.503 767.32 289.076 768.52C288.649 769.693 288.343 770.88 288.156 772.08C287.996 773.28 287.916 774.587 287.916 776C287.916 777.493 288.009 778.88 288.196 780.16C288.409 781.413 288.729 782.6 289.156 783.72C289.609 784.84 290.249 785.72 291.076 786.36C291.929 787 292.956 787.32 294.156 787.32ZM295.996 777.88C295.489 778.387 294.876 778.64 294.156 778.64C293.436 778.64 292.823 778.387 292.316 777.88C291.809 777.347 291.556 776.733 291.556 776.04C291.556 775.32 291.809 774.707 292.316 774.2C292.823 773.667 293.436 773.4 294.156 773.4C294.876 773.4 295.489 773.667 295.996 774.2C296.529 774.707 296.796 775.32 296.796 776.04C296.796 776.733 296.529 777.347 295.996 777.88ZM320.564 786.68H327.444V790H310.164V786.68H317.124V766.56L311.004 768.6V765.28L320.564 761.88V786.68ZM345.213 786.68H352.093V790H334.813V786.68H341.773V766.56L335.653 768.6V765.28L345.213 761.88V786.68ZM369.861 786.68H376.741V790H359.461V786.68H366.421V766.56L360.301 768.6V765.28L369.861 761.88V786.68ZM394.51 786.68H401.39V790H384.11V786.68H391.07V766.56L384.95 768.6V765.28L394.51 761.88V786.68ZM417.398 790.48C415.611 790.48 414.051 790.067 412.718 789.24C411.411 788.387 410.398 787.253 409.678 785.84C408.985 784.4 408.465 782.867 408.118 781.24C407.798 779.613 407.638 777.867 407.638 776C407.638 774.667 407.718 773.373 407.878 772.12C408.065 770.867 408.385 769.587 408.838 768.28C409.291 766.947 409.865 765.8 410.558 764.84C411.278 763.88 412.225 763.093 413.398 762.48C414.571 761.84 415.905 761.52 417.398 761.52C419.185 761.52 420.745 761.947 422.078 762.8C423.411 763.627 424.425 764.76 425.118 766.2C425.838 767.64 426.358 769.173 426.678 770.8C427.025 772.427 427.198 774.16 427.198 776C427.198 777.707 427.038 779.347 426.718 780.92C426.425 782.467 425.931 784 425.238 785.52C424.545 787.013 423.518 788.213 422.158 789.12C420.825 790.027 419.238 790.48 417.398 790.48ZM417.398 787.32C418.625 787.32 419.665 786.987 420.518 786.32C421.398 785.627 422.038 784.693 422.438 783.52C422.865 782.347 423.158 781.16 423.318 779.96C423.505 778.733 423.598 777.413 423.598 776C423.598 774.507 423.491 773.133 423.278 771.88C423.091 770.627 422.771 769.44 422.318 768.32C421.891 767.173 421.251 766.28 420.398 765.64C419.571 765 418.571 764.68 417.398 764.68C416.171 764.68 415.118 765.027 414.238 765.72C413.385 766.387 412.745 767.32 412.318 768.52C411.891 769.693 411.585 770.88 411.398 772.08C411.238 773.28 411.158 774.587 411.158 776C411.158 777.493 411.251 778.88 411.438 780.16C411.651 781.413 411.971 782.6 412.398 783.72C412.851 784.84 413.491 785.72 414.318 786.36C415.171 787 416.198 787.32 417.398 787.32ZM419.238 777.88C418.731 778.387 418.118 778.64 417.398 778.64C416.678 778.64 416.065 778.387 415.558 777.88C415.051 777.347 414.798 776.733 414.798 776.04C414.798 775.32 415.051 774.707 415.558 774.2C416.065 773.667 416.678 773.4 417.398 773.4C418.118 773.4 418.731 773.667 419.238 774.2C419.771 774.707 420.038 775.32 420.038 776.04C420.038 776.733 419.771 777.347 419.238 777.88ZM442.047 790.48C440.26 790.48 438.7 790.067 437.367 789.24C436.06 788.387 435.047 787.253 434.327 785.84C433.633 784.4 433.113 782.867 432.767 781.24C432.447 779.613 432.287 777.867 432.287 776C432.287 774.667 432.367 773.373 432.527 772.12C432.713 770.867 433.033 769.587 433.487 768.28C433.94 766.947 434.513 765.8 435.207 764.84C435.927 763.88 436.873 763.093 438.047 762.48C439.22 761.84 440.553 761.52 442.047 761.52C443.833 761.52 445.393 761.947 446.727 762.8C448.06 763.627 449.073 764.76 449.767 766.2C450.487 767.64 451.007 769.173 451.327 770.8C451.673 772.427 451.847 774.16 451.847 776C451.847 777.707 451.687 779.347 451.367 780.92C451.073 782.467 450.58 784 449.887 785.52C449.193 787.013 448.167 788.213 446.807 789.12C445.473 790.027 443.887 790.48 442.047 790.48ZM442.047 787.32C443.273 787.32 444.313 786.987 445.167 786.32C446.047 785.627 446.687 784.693 447.087 783.52C447.513 782.347 447.807 781.16 447.967 779.96C448.153 778.733 448.247 777.413 448.247 776C448.247 774.507 448.14 773.133 447.927 771.88C447.74 770.627 447.42 769.44 446.967 768.32C446.54 767.173 445.9 766.28 445.047 765.64C444.22 765 443.22 764.68 442.047 764.68C440.82 764.68 439.767 765.027 438.887 765.72C438.033 766.387 437.393 767.32 436.967 768.52C436.54 769.693 436.233 770.88 436.047 772.08C435.887 773.28 435.807 774.587 435.807 776C435.807 777.493 435.9 778.88 436.087 780.16C436.3 781.413 436.62 782.6 437.047 783.72C437.5 784.84 438.14 785.72 438.967 786.36C439.82 787 440.847 787.32 442.047 787.32ZM443.887 777.88C443.38 778.387 442.767 778.64 442.047 778.64C441.327 778.64 440.713 778.387 440.207 777.88C439.7 777.347 439.447 776.733 439.447 776.04C439.447 775.32 439.7 774.707 440.207 774.2C440.713 773.667 441.327 773.4 442.047 773.4C442.767 773.4 443.38 773.667 443.887 774.2C444.42 774.707 444.687 775.32 444.687 776.04C444.687 776.733 444.42 777.347 443.887 777.88ZM466.695 790.48C464.908 790.48 463.348 790.067 462.015 789.24C460.708 788.387 459.695 787.253 458.975 785.84C458.282 784.4 457.762 782.867 457.415 781.24C457.095 779.613 456.935 777.867 456.935 776C456.935 774.667 457.015 773.373 457.175 772.12C457.362 770.867 457.682 769.587 458.135 768.28C458.588 766.947 459.162 765.8 459.855 764.84C460.575 763.88 461.522 763.093 462.695 762.48C463.868 761.84 465.202 761.52 466.695 761.52C468.482 761.52 470.042 761.947 471.375 762.8C472.708 763.627 473.722 764.76 474.415 766.2C475.135 767.64 475.655 769.173 475.975 770.8C476.322 772.427 476.495 774.16 476.495 776C476.495 777.707 476.335 779.347 476.015 780.92C475.722 782.467 475.228 784 474.535 785.52C473.842 787.013 472.815 788.213 471.455 789.12C470.122 790.027 468.535 790.48 466.695 790.48ZM466.695 787.32C467.922 787.32 468.962 786.987 469.815 786.32C470.695 785.627 471.335 784.693 471.735 783.52C472.162 782.347 472.455 781.16 472.615 779.96C472.802 778.733 472.895 777.413 472.895 776C472.895 774.507 472.788 773.133 472.575 771.88C472.388 770.627 472.068 769.44 471.615 768.32C471.188 767.173 470.548 766.28 469.695 765.64C468.868 765 467.868 764.68 466.695 764.68C465.468 764.68 464.415 765.027 463.535 765.72C462.682 766.387 462.042 767.32 461.615 768.52C461.188 769.693 460.882 770.88 460.695 772.08C460.535 773.28 460.455 774.587 460.455 776C460.455 777.493 460.548 778.88 460.735 780.16C460.948 781.413 461.268 782.6 461.695 783.72C462.148 784.84 462.788 785.72 463.615 786.36C464.468 787 465.495 787.32 466.695 787.32ZM468.535 777.88C468.028 778.387 467.415 778.64 466.695 778.64C465.975 778.64 465.362 778.387 464.855 777.88C464.348 777.347 464.095 776.733 464.095 776.04C464.095 775.32 464.348 774.707 464.855 774.2C465.362 773.667 465.975 773.4 466.695 773.4C467.415 773.4 468.028 773.667 468.535 774.2C469.068 774.707 469.335 775.32 469.335 776.04C469.335 776.733 469.068 777.347 468.535 777.88ZM195.562 851.48C193.776 851.48 192.216 851.067 190.882 850.24C189.576 849.387 188.562 848.253 187.842 846.84C187.149 845.4 186.629 843.867 186.282 842.24C185.962 840.613 185.802 838.867 185.802 837C185.802 835.667 185.882 834.373 186.042 833.12C186.229 831.867 186.549 830.587 187.002 829.28C187.456 827.947 188.029 826.8 188.722 825.84C189.442 824.88 190.389 824.093 191.562 823.48C192.736 822.84 194.069 822.52 195.562 822.52C197.349 822.52 198.909 822.947 200.242 823.8C201.576 824.627 202.589 825.76 203.282 827.2C204.002 828.64 204.522 830.173 204.842 831.8C205.189 833.427 205.362 835.16 205.362 837C205.362 838.707 205.202 840.347 204.882 841.92C204.589 843.467 204.096 845 203.402 846.52C202.709 848.013 201.682 849.213 200.322 850.12C198.989 851.027 197.402 851.48 195.562 851.48ZM195.562 848.32C196.789 848.32 197.829 847.987 198.682 847.32C199.562 846.627 200.202 845.693 200.602 844.52C201.029 843.347 201.322 842.16 201.482 840.96C201.669 839.733 201.762 838.413 201.762 837C201.762 835.507 201.656 834.133 201.442 832.88C201.256 831.627 200.936 830.44 200.482 829.32C200.056 828.173 199.416 827.28 198.562 826.64C197.736 826 196.736 825.68 195.562 825.68C194.336 825.68 193.282 826.027 192.402 826.72C191.549 827.387 190.909 828.32 190.482 829.52C190.056 830.693 189.749 831.88 189.562 833.08C189.402 834.28 189.322 835.587 189.322 837C189.322 838.493 189.416 839.88 189.602 841.16C189.816 842.413 190.136 843.6 190.562 844.72C191.016 845.84 191.656 846.72 192.482 847.36C193.336 848 194.362 848.32 195.562 848.32ZM197.402 838.88C196.896 839.387 196.282 839.64 195.562 839.64C194.842 839.64 194.229 839.387 193.722 838.88C193.216 838.347 192.962 837.733 192.962 837.04C192.962 836.32 193.216 835.707 193.722 835.2C194.229 834.667 194.842 834.4 195.562 834.4C196.282 834.4 196.896 834.667 197.402 835.2C197.936 835.707 198.202 836.32 198.202 837.04C198.202 837.733 197.936 838.347 197.402 838.88ZM221.971 847.68H228.851V851H211.571V847.68H218.531V827.56L212.411 829.6V826.28L221.971 822.88V847.68ZM246.619 847.68H253.499V851H236.219V847.68H243.179V827.56L237.059 829.6V826.28L246.619 822.88V847.68ZM269.508 851.48C267.721 851.48 266.161 851.067 264.828 850.24C263.521 849.387 262.508 848.253 261.788 846.84C261.094 845.4 260.574 843.867 260.228 842.24C259.908 840.613 259.748 838.867 259.748 837C259.748 835.667 259.828 834.373 259.988 833.12C260.174 831.867 260.494 830.587 260.948 829.28C261.401 827.947 261.974 826.8 262.668 825.84C263.388 824.88 264.334 824.093 265.508 823.48C266.681 822.84 268.014 822.52 269.508 822.52C271.294 822.52 272.854 822.947 274.188 823.8C275.521 824.627 276.534 825.76 277.228 827.2C277.948 828.64 278.468 830.173 278.788 831.8C279.134 833.427 279.308 835.16 279.308 837C279.308 838.707 279.148 840.347 278.828 841.92C278.534 843.467 278.041 845 277.348 846.52C276.654 848.013 275.628 849.213 274.268 850.12C272.934 851.027 271.348 851.48 269.508 851.48ZM269.508 848.32C270.734 848.32 271.774 847.987 272.628 847.32C273.508 846.627 274.148 845.693 274.548 844.52C274.974 843.347 275.268 842.16 275.428 840.96C275.614 839.733 275.708 838.413 275.708 837C275.708 835.507 275.601 834.133 275.388 832.88C275.201 831.627 274.881 830.44 274.428 829.32C274.001 828.173 273.361 827.28 272.508 826.64C271.681 826 270.681 825.68 269.508 825.68C268.281 825.68 267.228 826.027 266.348 826.72C265.494 827.387 264.854 828.32 264.428 829.52C264.001 830.693 263.694 831.88 263.508 833.08C263.348 834.28 263.268 835.587 263.268 837C263.268 838.493 263.361 839.88 263.548 841.16C263.761 842.413 264.081 843.6 264.508 844.72C264.961 845.84 265.601 846.72 266.428 847.36C267.281 848 268.308 848.32 269.508 848.32ZM271.348 838.88C270.841 839.387 270.228 839.64 269.508 839.64C268.788 839.64 268.174 839.387 267.668 838.88C267.161 838.347 266.908 837.733 266.908 837.04C266.908 836.32 267.161 835.707 267.668 835.2C268.174 834.667 268.788 834.4 269.508 834.4C270.228 834.4 270.841 834.667 271.348 835.2C271.881 835.707 272.148 836.32 272.148 837.04C272.148 837.733 271.881 838.347 271.348 838.88ZM294.156 851.48C292.369 851.48 290.809 851.067 289.476 850.24C288.169 849.387 287.156 848.253 286.436 846.84C285.743 845.4 285.223 843.867 284.876 842.24C284.556 840.613 284.396 838.867 284.396 837C284.396 835.667 284.476 834.373 284.636 833.12C284.823 831.867 285.143 830.587 285.596 829.28C286.049 827.947 286.623 826.8 287.316 825.84C288.036 824.88 288.983 824.093 290.156 823.48C291.329 822.84 292.663 822.52 294.156 822.52C295.943 822.52 297.503 822.947 298.836 823.8C300.169 824.627 301.183 825.76 301.876 827.2C302.596 828.64 303.116 830.173 303.436 831.8C303.783 833.427 303.956 835.16 303.956 837C303.956 838.707 303.796 840.347 303.476 841.92C303.183 843.467 302.689 845 301.996 846.52C301.303 848.013 300.276 849.213 298.916 850.12C297.583 851.027 295.996 851.48 294.156 851.48ZM294.156 848.32C295.383 848.32 296.423 847.987 297.276 847.32C298.156 846.627 298.796 845.693 299.196 844.52C299.623 843.347 299.916 842.16 300.076 840.96C300.263 839.733 300.356 838.413 300.356 837C300.356 835.507 300.249 834.133 300.036 832.88C299.849 831.627 299.529 830.44 299.076 829.32C298.649 828.173 298.009 827.28 297.156 826.64C296.329 826 295.329 825.68 294.156 825.68C292.929 825.68 291.876 826.027 290.996 826.72C290.143 827.387 289.503 828.32 289.076 829.52C288.649 830.693 288.343 831.88 288.156 833.08C287.996 834.28 287.916 835.587 287.916 837C287.916 838.493 288.009 839.88 288.196 841.16C288.409 842.413 288.729 843.6 289.156 844.72C289.609 845.84 290.249 846.72 291.076 847.36C291.929 848 292.956 848.32 294.156 848.32ZM295.996 838.88C295.489 839.387 294.876 839.64 294.156 839.64C293.436 839.64 292.823 839.387 292.316 838.88C291.809 838.347 291.556 837.733 291.556 837.04C291.556 836.32 291.809 835.707 292.316 835.2C292.823 834.667 293.436 834.4 294.156 834.4C294.876 834.4 295.489 834.667 295.996 835.2C296.529 835.707 296.796 836.32 296.796 837.04C296.796 837.733 296.529 838.347 295.996 838.88ZM320.564 847.68H327.444V851H310.164V847.68H317.124V827.56L311.004 829.6V826.28L320.564 822.88V847.68ZM343.453 851.48C341.666 851.48 340.106 851.067 338.773 850.24C337.466 849.387 336.453 848.253 335.733 846.84C335.039 845.4 334.519 843.867 334.173 842.24C333.853 840.613 333.693 838.867 333.693 837C333.693 835.667 333.773 834.373 333.933 833.12C334.119 831.867 334.439 830.587 334.893 829.28C335.346 827.947 335.919 826.8 336.613 825.84C337.333 824.88 338.279 824.093 339.453 823.48C340.626 822.84 341.959 822.52 343.453 822.52C345.239 822.52 346.799 822.947 348.133 823.8C349.466 824.627 350.479 825.76 351.173 827.2C351.893 828.64 352.413 830.173 352.733 831.8C353.079 833.427 353.253 835.16 353.253 837C353.253 838.707 353.093 840.347 352.773 841.92C352.479 843.467 351.986 845 351.293 846.52C350.599 848.013 349.573 849.213 348.213 850.12C346.879 851.027 345.293 851.48 343.453 851.48ZM343.453 848.32C344.679 848.32 345.719 847.987 346.573 847.32C347.453 846.627 348.093 845.693 348.493 844.52C348.919 843.347 349.213 842.16 349.373 840.96C349.559 839.733 349.653 838.413 349.653 837C349.653 835.507 349.546 834.133 349.333 832.88C349.146 831.627 348.826 830.44 348.373 829.32C347.946 828.173 347.306 827.28 346.453 826.64C345.626 826 344.626 825.68 343.453 825.68C342.226 825.68 341.173 826.027 340.293 826.72C339.439 827.387 338.799 828.32 338.373 829.52C337.946 830.693 337.639 831.88 337.453 833.08C337.293 834.28 337.213 835.587 337.213 837C337.213 838.493 337.306 839.88 337.493 841.16C337.706 842.413 338.026 843.6 338.453 844.72C338.906 845.84 339.546 846.72 340.373 847.36C341.226 848 342.253 848.32 343.453 848.32ZM345.293 838.88C344.786 839.387 344.173 839.64 343.453 839.64C342.733 839.64 342.119 839.387 341.613 838.88C341.106 838.347 340.853 837.733 340.853 837.04C340.853 836.32 341.106 835.707 341.613 835.2C342.119 834.667 342.733 834.4 343.453 834.4C344.173 834.4 344.786 834.667 345.293 835.2C345.826 835.707 346.093 836.32 346.093 837.04C346.093 837.733 345.826 838.347 345.293 838.88ZM368.101 851.48C366.315 851.48 364.755 851.067 363.421 850.24C362.115 849.387 361.101 848.253 360.381 846.84C359.688 845.4 359.168 843.867 358.821 842.24C358.501 840.613 358.341 838.867 358.341 837C358.341 835.667 358.421 834.373 358.581 833.12C358.768 831.867 359.088 830.587 359.541 829.28C359.995 827.947 360.568 826.8 361.261 825.84C361.981 824.88 362.928 824.093 364.101 823.48C365.275 822.84 366.608 822.52 368.101 822.52C369.888 822.52 371.448 822.947 372.781 823.8C374.115 824.627 375.128 825.76 375.821 827.2C376.541 828.64 377.061 830.173 377.381 831.8C377.728 833.427 377.901 835.16 377.901 837C377.901 838.707 377.741 840.347 377.421 841.92C377.128 843.467 376.635 845 375.941 846.52C375.248 848.013 374.221 849.213 372.861 850.12C371.528 851.027 369.941 851.48 368.101 851.48ZM368.101 848.32C369.328 848.32 370.368 847.987 371.221 847.32C372.101 846.627 372.741 845.693 373.141 844.52C373.568 843.347 373.861 842.16 374.021 840.96C374.208 839.733 374.301 838.413 374.301 837C374.301 835.507 374.195 834.133 373.981 832.88C373.795 831.627 373.475 830.44 373.021 829.32C372.595 828.173 371.955 827.28 371.101 826.64C370.275 826 369.275 825.68 368.101 825.68C366.875 825.68 365.821 826.027 364.941 826.72C364.088 827.387 363.448 828.32 363.021 829.52C362.595 830.693 362.288 831.88 362.101 833.08C361.941 834.28 361.861 835.587 361.861 837C361.861 838.493 361.955 839.88 362.141 841.16C362.355 842.413 362.675 843.6 363.101 844.72C363.555 845.84 364.195 846.72 365.021 847.36C365.875 848 366.901 848.32 368.101 848.32ZM369.941 838.88C369.435 839.387 368.821 839.64 368.101 839.64C367.381 839.64 366.768 839.387 366.261 838.88C365.755 838.347 365.501 837.733 365.501 837.04C365.501 836.32 365.755 835.707 366.261 835.2C366.768 834.667 367.381 834.4 368.101 834.4C368.821 834.4 369.435 834.667 369.941 835.2C370.475 835.707 370.741 836.32 370.741 837.04C370.741 837.733 370.475 838.347 369.941 838.88Z" fill="#EB6B74"/>
</g>
<defs>
<clipPath id="clip0">
<rect width="1440" height="1011" fill="white"/>
</clipPath>
</defs>
</svg>
