<svg width="1440" height="900" viewBox="0 0 1440 900" fill="none" xmlns="http://www.w3.org/2000/svg">
<g clip-path="url(#clip0)">
<rect width="1440" height="900" fill="#536E9F"/>
<rect width="550" height="900" fill="#FEB48B"/>
<rect width="550" height="900" fill="#FEB48B"/>
<mask id="mask0" mask-type="alpha" maskUnits="userSpaceOnUse" x="550" y="345" width="198" height="319">
<rect width="198" height="319" transform="matrix(-1 0 0 1 748 345)" fill="#FEB48B"/>
</mask>
<g mask="url(#mask0)">
<circle cx="590" cy="502" r="152" fill="#5992D6"/>
<circle cx="590" cy="502" r="145" fill="#536E9F"/>
</g>
<mask id="mask1" mask-type="alpha" maskUnits="userSpaceOnUse" x="550" y="374" width="164" height="252">
<rect width="164" height="252" transform="matrix(-1 0 0 1 714 374)" fill="#FEB48B"/>
</mask>
<g mask="url(#mask1)">
<circle cx="590" cy="502" r="122" fill="#FEB48B"/>
<circle cx="590.001" cy="502" r="114.942" fill="#536E9F"/>
</g>
<mask id="mask2" mask-type="alpha" maskUnits="userSpaceOnUse" x="550" y="420" width="122" height="166">
<rect width="122" height="166" transform="matrix(-1 0 0 1 672 420)" fill="#FEB48B"/>
</mask>
<g mask="url(#mask2)">
<circle cx="590.5" cy="501.5" r="79.5" fill="#EB6B74"/>
<circle cx="590.803" cy="501.197" r="65.2385" fill="#536E9F"/>
</g>
<mask id="mask3" mask-type="alpha" maskUnits="userSpaceOnUse" x="396" y="350" width="154" height="304">
<rect x="396" y="350" width="154" height="304" fill="#FEB48B"/>
</mask>
<g mask="url(#mask3)">
<circle cx="590" cy="502" r="152" fill="#FFDEC8"/>
<circle cx="590" cy="502" r="145" fill="#FEB48B"/>
</g>
<mask id="mask4" mask-type="alpha" maskUnits="userSpaceOnUse" x="468" y="357" width="82" height="293">
<rect x="468" y="357" width="82" height="293" fill="#FEB48B"/>
</mask>
<g mask="url(#mask4)">
<circle cx="590" cy="502" r="122" fill="#5992D6"/>
<circle cx="590.001" cy="502" r="114.942" fill="#FEB48B"/>
</g>
<mask id="mask5" mask-type="alpha" maskUnits="userSpaceOnUse" x="511" y="424" width="39" height="154">
<rect x="511" y="424" width="39" height="154" fill="#FEB48B"/>
</mask>
<g mask="url(#mask5)">
<circle cx="590.5" cy="501.5" r="79.5" fill="#536E9F"/>
<circle cx="590.803" cy="501.197" r="65.2385" fill="#FEB48B"/>
</g>
<path d="M974.31 82.8033C977.239 79.8744 977.239 75.1256 974.31 72.1967L926.58 24.467C923.651 21.5381 918.902 21.5381 915.973 24.467C913.044 27.3959 913.044 32.1447 915.973 35.0736L958.4 77.5L915.973 119.926C913.044 122.855 913.044 127.604 915.973 130.533C918.902 133.462 923.651 133.462 926.58 130.533L974.31 82.8033ZM-44.0059 85H969.006V70H-44.0059V85Z" fill="#EB6B74"/>
<mask id="mask6" mask-type="alpha" maskUnits="userSpaceOnUse" x="550" y="-52" width="457" height="323">
<rect x="550" y="-52" width="457" height="323" fill="#C4C4C4"/>
</mask>
<g mask="url(#mask6)">
<path d="M974.303 85.3033C977.232 82.3744 977.232 77.6256 974.303 74.6967L926.574 26.967C923.645 24.0381 918.896 24.0381 915.967 26.967C913.038 29.8959 913.038 34.6447 915.967 37.5736L958.393 80L915.967 122.426C913.038 125.355 913.038 130.104 915.967 133.033C918.896 135.962 923.645 135.962 926.574 133.033L974.303 85.3033ZM470 87.5H969V72.5H470V87.5Z" fill="#FEB48B"/>
</g>
<path d="M423.442 804.929C419.537 808.834 419.537 815.166 423.442 819.071L487.081 882.711C490.987 886.616 497.318 886.616 501.224 882.711C505.129 878.805 505.129 872.474 501.224 868.569L444.655 812L501.224 755.431C505.129 751.526 505.129 745.195 501.224 741.289C497.318 737.384 490.987 737.384 487.081 741.289L423.442 804.929ZM1464 802L430.513 802V822L1464 822V802Z" fill="#F28A83"/>
<path d="M414.928 801.929C411.023 805.834 411.023 812.166 414.928 816.071L478.568 879.711C482.473 883.616 488.805 883.616 492.71 879.711C496.615 875.805 496.615 869.474 492.71 865.569L436.141 809L492.71 752.431C496.615 748.526 496.615 742.195 492.71 738.289C488.805 734.384 482.473 734.384 478.568 738.289L414.928 801.929ZM1455.49 799L421.999 799V819L1455.49 819V799Z" fill="#EB6B74"/>
<path d="M13.7162 359.24L190.37 259.257L304.871 266.757L337.888 266.757L367.871 280.257L450.871 302.257L511.863 323.651L529.37 333.035L524.871 356.757L346.069 333.035L262.87 338.757L226.37 385.257L264.333 460.717L337.888 459.093L407.357 474.739L406.475 519.325L321.689 520.108L147.146 508.795L34.3573 482.242L-11.6816 415.688L13.7162 359.24Z" fill="#5992D6"/>
<path d="M84.2274 365.487L197.37 269.257L317.444 273.576L324.237 279.626L333.265 271.434L340.431 283.054L346.869 277.044L362.819 283.62L450.871 304.757L486.871 317.257L486.87 333.035L520.176 343.051L527.308 340.576L524.871 356.757L513.871 362.035L346.069 333.035L262.87 338.757L210.247 382.095L187.78 444.857L256.448 479.127L308.431 478.899L369.177 480.117L401.736 482.711L402.729 490.702L370.122 490.796L369.221 519.669L321.69 520.108L235.945 526.995L144.604 508.288L94.7465 441.699L84.2274 365.487Z" fill="#536E9F"/>
<path d="M210.87 360.757L247.541 328.257L341.371 323.83L347.871 317.257L350.371 323.83L426.371 339.257L432.371 335.757L434.371 341.257L509.371 358.257L524.871 356.757L513.871 362.257L502.871 362.257L346.068 333.035L263.37 339.257L220.37 382.757L230.698 438.726L256.447 479.127L308.429 478.899L369.176 480.117L401.735 482.711L354.171 484.22L247.541 485.745L186.84 444.47L210.87 360.757Z" fill="#F28A83"/>
<path d="M340.949 494.473L342.418 512.95L316.352 511.95L315.474 492.093L333.396 494.066L333.628 507.701L323.606 507.901L322.464 497.682" stroke="#FEB48B"/>
<path d="M341.015 271.381L328.785 289.625L330.178 269.62L319.253 283.528" stroke="#FEB48B"/>
<path d="M6.6548 340.816L-38.5142 357.762L-59.115 364.812L-2.58369 517.444L63.4226 509.203L6.6548 340.816Z" fill="#EB6B74"/>
<path d="M6.65285 340.816L-38.5161 357.762L-59.117 364.812L48.389 496.059L-2.58564 517.444L63.4206 509.203L6.65285 340.816Z" fill="#F28A83"/>
</g>
<defs>
<clipPath id="clip0">
<rect width="1440" height="900" fill="white"/>
</clipPath>
</defs>
</svg>
