<svg width="133" height="149" viewBox="0 0 133 149" fill="none" xmlns="http://www.w3.org/2000/svg">
<path d="M29.5552 76.7239C36.2053 76.7239 41.3774 83.7662 41.3774 83.7662V100.075C41.3774 100.075 37.6823 107.488 29.5552 104.522C21.4282 101.557 22.9051 76.7238 29.5552 76.7239Z" stroke="#536E9F" stroke-width="6"/>
<mask id="mask0" mask-type="alpha" maskUnits="userSpaceOnUse" x="21" y="74" width="23" height="34">
<path fill-rule="evenodd" clip-rule="evenodd" d="M25.7219 76.2497C26.6772 75.26 27.9688 74.5 29.557 74.5C33.6414 74.5 37.0932 76.6405 39.3737 78.5305C40.5415 79.4984 41.4757 80.4615 42.1192 81.183C42.4421 81.5451 42.6952 81.8501 42.8712 82.0696C42.9592 82.1794 43.0282 82.2681 43.0772 82.3321C43.1017 82.3641 43.1213 82.3899 43.1358 82.4092L43.1536 82.4332L43.1597 82.4414L43.162 82.4445L43.163 82.4458C43.1634 82.4464 43.1638 82.447 41.3793 83.7662L43.1638 82.447L43.5959 83.0353V100.6L43.3618 101.069L41.3793 100.075C43.3618 101.069 43.3613 101.07 43.3608 101.071L43.3596 101.074L43.3571 101.079L43.3509 101.091L43.3341 101.124C43.321 101.149 43.3039 101.181 43.283 101.22C43.241 101.297 43.1831 101.401 43.109 101.525C42.9611 101.775 42.7467 102.112 42.4634 102.5C41.9012 103.271 41.0419 104.275 39.8591 105.179C37.4098 107.052 33.6728 108.39 28.7994 106.612C25.7973 105.517 24.0582 102.582 23.0877 99.6231C22.0859 96.5693 21.7025 92.9173 21.7998 89.4486C21.8969 85.9866 22.4786 82.5131 23.5505 79.8245C24.0847 78.4846 24.7892 77.2162 25.7219 76.2497ZM39.1626 99.4711V84.5488C39.0628 84.4305 38.9467 84.2961 38.8152 84.1487C38.2811 83.5497 37.5066 82.7522 36.5502 81.9596C34.5821 80.3285 32.1228 78.9478 29.557 78.9478C29.4827 78.9478 29.2735 78.9638 28.9069 79.3437C28.5177 79.7469 28.0792 80.4418 27.6668 81.4763C26.8454 83.5366 26.3188 86.4568 26.2314 89.5738C26.1441 92.684 26.4996 95.7963 27.2988 98.2327C28.1293 100.765 29.2532 102.045 30.3146 102.432C33.5683 103.62 35.7424 102.734 37.1724 101.641C37.9293 101.063 38.5018 100.4 38.8864 99.8727C38.9957 99.723 39.0878 99.5871 39.1626 99.4711Z" fill="#536E9F"/>
</mask>
<g mask="url(#mask0)">
<ellipse rx="5.86139" ry="2.3965" transform="matrix(0.985908 0.167289 -0.166235 0.986086 30.6831 75.5617)" fill="#FEB48B"/>
</g>
<ellipse cx="66.5" cy="137.881" rx="66.5" ry="11.1194" fill="#536E9F"/>
<ellipse cx="67.977" cy="131.58" rx="26.6" ry="6.301" fill="#F28A83"/>
<path d="M41.377 66.7163L94.577 67.0435V131.95H41.377V66.7163Z" fill="#F28A83"/>
<mask id="mask1" mask-type="alpha" maskUnits="userSpaceOnUse" x="41" y="66" width="54" height="72">
<path d="M94.577 131.579C94.577 135.059 82.6677 137.88 67.977 137.88C53.2862 137.88 41.377 135.059 41.377 131.579C41.377 128.1 53.2862 125.278 67.977 125.278C82.6677 125.278 94.577 128.1 94.577 131.579Z" fill="#FEB48B"/>
<path d="M41.377 66.7163L94.577 67.0435V131.95H41.377V66.7163Z" fill="#FEB48B"/>
</mask>
<g mask="url(#mask1)">
<path d="M41.4994 66.3711C41.4994 66.3711 40 75 57.9994 77.5C77.908 80.2652 73.5915 84.1184 74.499 100.871C76.0329 129.187 76.499 137.371 76.499 137.371L60.9994 139.371L41.4994 134.371V66.3711Z" fill="#536E9F"/>
</g>
<mask id="mask2" mask-type="alpha" maskUnits="userSpaceOnUse" x="41" y="66" width="54" height="72">
<path d="M94.577 131.644C94.577 135.089 82.6677 137.88 67.977 137.88C53.2862 137.88 41.377 135.089 41.377 131.644C41.377 128.2 53.2862 125.408 67.977 125.408C82.6677 125.408 94.577 128.2 94.577 131.644Z" fill="#FFDEC8"/>
<path d="M41.377 66.7163L94.577 67.087V132.011H41.377V66.7163Z" fill="#FFDEC8"/>
</mask>
<g mask="url(#mask2)">
<path d="M55.4984 71.4999C22.4969 62.9999 94.5763 66.7163 94.5763 66.7163V140.846H92.4137C92.4137 140.846 92.4137 140.5 92.4137 101.5C92.4137 62.5 88.5 80 55.4984 71.4999Z" fill="#FEB48B"/>
</g>
<ellipse cx="67.977" cy="67.0871" rx="26.6" ry="6.30099" fill="#FEB48B"/>
<mask id="mask3" mask-type="alpha" maskUnits="userSpaceOnUse" x="43" y="61" width="50" height="11">
<ellipse cx="67.9775" cy="66.8401" rx="24.7861" ry="5.06544" fill="#536E9F"/>
</mask>
<g mask="url(#mask3)">
<ellipse cx="67.9777" cy="66.3457" rx="25.1222" ry="4.81841" fill="#536E9F"/>
<rect x="43.1914" y="66.8398" width="49.5721" height="12.6636" fill="#536E9F"/>
</g>
<path d="M53.8745 41.3247C53.9698 44.5209 53.338 50.4079 53.338 50.4079C53.338 50.4079 56.2294 44.3444 56.1546 38.6411C56.0982 34.3445 54.8001 33.2093 54.3439 29.145C53.8698 24.9203 53.8745 17.791 53.8745 17.791C53.8745 17.791 51.5914 24.9811 51.7286 30.5901C51.8487 35.4985 53.7285 36.423 53.8745 41.3247Z" fill="#EB6B74"/>
<path d="M77.7974 22.7892C77.6449 19.4921 78.2313 13.3613 78.2313 13.3613C78.2313 13.3613 75.2199 19.8368 75.3898 25.727C75.5177 30.1644 76.9302 31.2446 77.4841 35.4133C78.0598 39.7464 78.1665 47.1164 78.1665 47.1164C78.1665 47.1164 80.5068 39.52 80.2714 33.7318C80.0653 28.6665 78.0312 27.8458 77.7974 22.7892Z" fill="#EB6B74"/>
<path d="M64.8936 40.6492C65.084 46.1698 63.8206 56.3383 63.8206 56.3383C63.8206 56.3383 69.6033 45.8649 69.4537 36.0137C69.3409 28.5924 66.7447 26.6317 65.8324 19.6114C64.8841 12.3141 64.8936 0 64.8936 0C64.8936 0 60.3272 12.4193 60.6017 22.1074C60.842 30.5856 64.6015 32.1825 64.8936 40.6492Z" fill="#EB6B74"/>
</svg>
