<svg width="1298" height="805" viewBox="0 0 1298 805" fill="none" xmlns="http://www.w3.org/2000/svg">
<ellipse cx="1133.5" cy="575" rx="17.5" ry="4" fill="#191930"/>
<ellipse cx="1036.5" cy="445" rx="89.5" ry="103" fill="#191930"/>
<ellipse cx="1005.6" cy="440.672" rx="97.3957" ry="85.3278" fill="#9F5757"/>
<path d="M1085.31 496.089L1095.86 485L1138.47 571.14L1129.91 575.62L1085.31 496.089Z" fill="#212844"/>
<path d="M1108.9 526.413L1110.11 514.291L1134 567L1131.67 574.725L1108.9 526.413Z" fill="#7DA2BD"/>
<path d="M1088.5 496L1130 574" stroke="black"/>
<path d="M1103 440.672C1103 487.797 1059.39 526 1005.6 526C951.814 526 1083.6 481.2 1083.6 434.075C1083.6 386.949 951.814 355.344 1005.6 355.344C1059.39 355.344 1103 393.547 1103 440.672Z" fill="#CB7D7D"/>
<path d="M1096.29 427.477C1096.29 474.266 1052.97 512.305 999.396 512.305C945.818 512.305 902.5 474.266 902.5 427.477C902.5 380.688 945.818 342.649 999.396 342.649C1052.97 342.649 1096.29 380.688 1096.29 427.477Z" stroke="black"/>
<path d="M1080.39 334.322C1079.79 336.072 1077.75 337.156 1074.66 337.297C1071.6 337.437 1067.69 336.64 1063.65 334.847C1059.62 333.055 1056.26 330.627 1054.11 328.173C1051.92 325.688 1051.07 323.325 1051.68 321.575C1052.28 319.824 1054.32 318.741 1057.41 318.599C1060.47 318.459 1064.38 319.257 1068.42 321.049C1072.46 322.841 1075.81 325.269 1077.97 327.724C1080.15 330.208 1081 332.571 1080.39 334.322Z" stroke="black"/>
<path d="M1069.54 374.277C1069.17 375.345 1068.27 376.177 1066.84 376.726C1065.42 377.274 1063.51 377.519 1061.25 377.44C1056.73 377.283 1050.87 375.837 1044.75 373.123C1038.63 370.408 1033.47 366.956 1030.05 363.589C1028.34 361.904 1027.09 360.26 1026.37 358.76C1025.66 357.26 1025.49 355.954 1025.86 354.885C1026.23 353.817 1027.13 352.985 1028.56 352.436C1029.99 351.887 1031.89 351.643 1034.15 351.722C1038.68 351.879 1044.54 353.325 1050.65 356.039C1056.77 358.754 1061.94 362.205 1065.35 365.573C1067.06 367.257 1068.31 368.902 1069.03 370.402C1069.75 371.902 1069.91 373.208 1069.54 374.277Z" stroke="black"/>
<ellipse cx="922.288" cy="460.76" rx="55" ry="91" transform="rotate(-21.2905 922.288 460.76)" fill="#23233D"/>
<circle cx="977" cy="540" r="2" fill="black"/>
<circle cx="985" cy="548" r="2" fill="black"/>
<circle cx="993" cy="540" r="2" fill="black"/>
<ellipse cx="993.5" cy="555.5" rx="2.5" ry="1.5" fill="black"/>
<ellipse cx="984.5" cy="532.5" rx="1.5" ry="2.5" transform="rotate(25.054 984.5 532.5)" fill="black"/>
<circle cx="1001" cy="548" r="2" fill="black"/>
<ellipse cx="985.5" cy="563.5" rx="2.5" ry="1.5" transform="rotate(31.6723 985.5 563.5)" fill="black"/>
<ellipse cx="968.5" cy="548.5" rx="1.5" ry="2.5" fill="black"/>
<circle cx="977" cy="556" r="2" fill="black"/>
<ellipse cx="606.5" cy="685.5" rx="160.5" ry="55.5" fill="#191930"/>
<ellipse cx="931.5" cy="677.5" rx="135.5" ry="22.5" fill="#191930"/>
<ellipse cx="345.5" cy="656.5" rx="261.5" ry="43.5" fill="#191930"/>
<path d="M107.5 513.5H599.5L713 569.5H172.5L107.5 513.5Z" fill="#585B6E"/>
<path d="M122 526H539.5L690 557H157L122 526Z" fill="#7DA2BD"/>
<path opacity="0.5" d="M170 572H712V630L214.5 622L170 572Z" fill="#3B4158"/>
<path d="M212.258 624.501L172.972 569.5H713.5V626.498L212.258 624.501Z" stroke="black"/>
<path opacity="0.5" d="M107 521L170 578L145 613.5L90 581L107 521Z" fill="#212844"/>
<path d="M170 571L107 517.5L170 583.5L99.5 534L132 553.5L161 587L90 545L154 599L125 591C135 591 154.5 591 152.5 591C150.5 591 118 562 102 547.5L128.5 587L86.5 561L142.5 611L94 583.5L132 622L84.5 599L107 618.5L86.5 614L99.5 622" stroke="black"/>
<path d="M181.5 608H198.5L223 669.5V684H153V669L181.5 608Z" fill="#3B4158"/>
<path d="M196.5 606L180 594L166 594.5L180 606H196.5Z" fill="#585B6F"/>
<path d="M193.5 603L179.5 593.5H164L175 602.5" stroke="black"/>
<path d="M151 667.5L178.5 608.5L163.5 595.5L134 653.5L151 667.5Z" fill="#212844"/>
<path d="M134 669.228L150.5 683L148 668L134 656V669.228Z" fill="#1E2543"/>
<path d="M151.007 669.585L178.83 604.5H195.179L222.991 665.09L221.539 683H151.966L151.007 669.585Z" stroke="black"/>
<rect x="182" y="613.5" width="6.36396" height="6.36396" transform="rotate(-45 182 613.5)" fill="#212844"/>
<rect x="180.707" y="613.5" width="5.36396" height="5.36396" transform="rotate(-45 180.707 613.5)" stroke="black"/>
<rect x="207" y="674.5" width="6.36396" height="6.36396" transform="rotate(-45 207 674.5)" fill="#212844"/>
<rect x="205.707" y="674.5" width="5.36396" height="5.36396" transform="rotate(-45 205.707 674.5)" stroke="black"/>
<rect x="154" y="672.5" width="6.36396" height="6.36396" transform="rotate(-45 154 672.5)" fill="#212844"/>
<rect x="152.707" y="672.5" width="5.36396" height="5.36396" transform="rotate(-45 152.707 672.5)" stroke="black"/>
<path d="M162.5 595L133 652.5V669" stroke="black"/>
<path d="M779.965 435H951.412L986 574.5H749.5L779.965 435Z" fill="#3B4158"/>
<path d="M990.5 567L953 431H778.5L751.5 561" stroke="black"/>
<path d="M752.083 394.5L722.5 564V588L737.5 589.5L747.5 572.5L774.5 433L752.083 394.5Z" fill="#212844"/>
<path d="M739.463 457L634 406.072L643.542 376L748 420.138L739.463 457Z" fill="#212844"/>
<path d="M620 365.5L644.5 377L599.5 513.5H580.5L620 365.5Z" fill="#212844"/>
<path d="M614.5 361L773.5 426L958.5 430L783 361H614.5Z" fill="#585B6F"/>
<path d="M778 435L619.5 365.5L799 363L947.5 420" stroke="black"/>
<rect x="790" y="448.5" width="6.36396" height="6.36396" transform="rotate(-45 790 448.5)" fill="#212844"/>
<rect x="788.707" y="448.5" width="5.36396" height="5.36396" transform="rotate(-45 788.707 448.5)" stroke="black"/>
<rect x="939" y="444.5" width="6.36396" height="6.36396" transform="rotate(-45 939 444.5)" fill="#212844"/>
<rect x="937.707" y="444.5" width="5.36396" height="5.36396" transform="rotate(-45 937.707 444.5)" stroke="black"/>
<path opacity="0.32" d="M640 425L736 459.5L724.5 560.5L635.5 510L640 425Z" fill="black"/>
<path d="M639.5 425.5L730.5 475L635 447.5C665 465.667 724.6 502 723 502C721.4 502 666.667 484 639.5 475C675.333 490.167 741.4 520.5 719 520.5C691 520.5 634.5 482 639.5 493.5C643.5 502.7 680.5 527 698.5 538C672.167 529.833 620.1 513.5 622.5 513.5" stroke="black"/>
<path d="M790 598H802L796.5 721L792.5 719.5L790 598Z" fill="#918278"/>
<path d="M1033 598H1046L1041 721H1037L1033 598Z" fill="#918278"/>
<path d="M747 566.5H988.5L1045.5 593H790L747 566.5Z" fill="#BCCCD8"/>
<path d="M745.17 572.624L785.518 600.882" stroke="black"/>
<path d="M692.5 609H709.5L734 670.5V685H664V670L692.5 609Z" fill="#3B4158"/>
<path d="M707.5 607L691 595L677 595.5L691 607H707.5Z" fill="#585B6F"/>
<path d="M704.5 604L690.5 594.5H675L686 603.5" stroke="black"/>
<path d="M662 668.5L689.5 609.5L674.5 596.5L645 654.5L662 668.5Z" fill="#212844"/>
<path d="M645 670.228L661.5 684L659 669L645 657V670.228Z" fill="#1E2543"/>
<path d="M662.007 670.585L689.83 605.5H706.179L733.991 666.09L732.539 684H662.966L662.007 670.585Z" stroke="black"/>
<rect x="693" y="614.5" width="6.36396" height="6.36396" transform="rotate(-45 693 614.5)" fill="#212844"/>
<rect x="691.707" y="614.5" width="5.36396" height="5.36396" transform="rotate(-45 691.707 614.5)" stroke="black"/>
<rect x="718" y="675.5" width="6.36396" height="6.36396" transform="rotate(-45 718 675.5)" fill="#212844"/>
<rect x="716.707" y="675.5" width="5.36396" height="5.36396" transform="rotate(-45 716.707 675.5)" stroke="black"/>
<rect x="665" y="673.5" width="6.36396" height="6.36396" transform="rotate(-45 665 673.5)" fill="#212844"/>
<rect x="663.707" y="673.5" width="5.36396" height="5.36396" transform="rotate(-45 663.707 673.5)" stroke="black"/>
<path d="M673.5 596L644 653.5V670" stroke="black"/>
<ellipse cx="993.168" cy="631.444" rx="22.8947" ry="7.30827" fill="#415073"/>
<path d="M1017.39 629.008C1017.39 629.788 1016.9 630.62 1015.79 631.453C1014.7 632.28 1013.08 633.047 1011.04 633.699C1006.96 635.002 1001.29 635.816 995 635.816C988.715 635.816 983.045 635.002 978.963 633.699C976.919 633.047 975.302 632.28 974.206 631.453C973.101 630.62 972.605 629.788 972.605 629.008C972.605 628.227 973.101 627.395 974.206 626.562C975.302 625.735 976.919 624.969 978.963 624.316C983.045 623.013 988.715 622.199 995 622.199C1001.29 622.199 1006.96 623.013 1011.04 624.316C1013.08 624.969 1014.7 625.735 1015.79 626.562C1016.9 627.395 1017.39 628.227 1017.39 629.008Z" stroke="black"/>
<path d="M976.99 663.722C976.99 663.722 986.758 664.635 997.747 660.068V681.809C997.747 685.274 988.739 688.083 977.295 688.083C965.85 688.083 956.842 685.274 956.842 681.809V660.068C967.221 664.331 976.99 663.722 976.99 663.722Z" stroke="black"/>
<path d="M999.079 685.038C999.079 685.818 998.583 686.65 997.479 687.483C996.383 688.31 994.765 689.077 992.721 689.729C988.639 691.032 982.969 691.846 976.684 691.846C970.399 691.846 964.729 691.032 960.647 689.729C958.603 689.077 956.986 688.31 955.89 687.483C954.786 686.65 954.289 685.818 954.289 685.038C954.289 684.257 954.786 683.425 955.89 682.592C956.986 681.765 958.603 680.999 960.647 680.346C964.729 679.043 970.399 678.229 976.684 678.229C982.969 678.229 988.639 679.043 992.721 680.346C994.765 680.999 996.383 681.765 997.479 682.592C998.583 683.425 999.079 684.257 999.079 685.038Z" stroke="black"/>
<path d="M999.079 655.805C999.079 656.585 998.583 657.417 997.479 658.25C996.383 659.077 994.765 659.844 992.721 660.496C988.639 661.799 982.969 662.613 976.684 662.613C970.399 662.613 964.729 661.799 960.647 660.496C958.603 659.844 956.986 659.077 955.89 658.25C954.786 657.417 954.289 656.585 954.289 655.805C954.289 655.024 954.786 654.192 955.89 653.359C956.986 652.532 958.603 651.765 960.647 651.113C964.729 649.81 970.399 648.996 976.684 648.996C982.969 648.996 988.639 649.81 992.721 651.113C994.765 651.765 996.383 652.532 997.479 653.359C998.583 654.192 999.079 655.024 999.079 655.805Z" stroke="black"/>
<ellipse cx="976.684" cy="652.759" rx="22.8947" ry="7.30827" fill="#415073"/>
<path d="M999.079 648.496C999.079 649.277 998.583 650.108 997.479 650.942C996.383 651.769 994.765 652.535 992.721 653.188C988.639 654.491 982.969 655.305 976.684 655.305C970.399 655.305 964.729 654.491 960.647 653.188C958.603 652.535 956.986 651.769 955.89 650.942C954.786 650.108 954.289 649.277 954.289 648.496C954.289 647.716 954.786 646.884 955.89 646.051C956.986 645.223 958.603 644.457 960.647 643.805C964.729 642.502 970.399 641.688 976.684 641.688C982.969 641.688 988.639 642.502 992.721 643.805C994.765 644.457 996.383 645.223 997.479 646.051C998.583 646.884 999.079 647.716 999.079 648.496Z" stroke="black"/>
<path d="M953.289 666.158C953.289 666.939 952.793 667.77 951.689 668.604C950.593 669.431 948.975 670.197 946.932 670.849C942.85 672.152 937.18 672.966 930.895 672.966C924.61 672.966 918.94 672.152 914.858 670.849C912.814 670.197 911.196 669.431 910.1 668.604C908.996 667.77 908.5 666.939 908.5 666.158C908.5 665.377 908.996 664.546 910.1 663.712C911.196 662.885 912.814 662.119 914.858 661.466C918.94 660.164 924.61 659.35 930.895 659.35C937.18 659.35 942.85 660.164 946.932 661.466C948.975 662.119 950.593 662.885 951.689 663.712C952.793 664.546 953.289 665.377 953.289 666.158Z" stroke="black"/>
<path d="M953.289 636.925C953.289 637.706 952.793 638.537 951.689 639.37C950.593 640.198 948.975 640.964 946.932 641.616C942.85 642.919 937.18 643.733 930.895 643.733C924.61 643.733 918.94 642.919 914.858 641.616C912.814 640.964 911.196 640.198 910.1 639.37C908.996 638.537 908.5 637.706 908.5 636.925C908.5 636.144 908.996 635.313 910.1 634.479C911.196 633.652 912.814 632.886 914.858 632.233C918.94 630.93 924.61 630.117 930.895 630.117C937.18 630.117 942.85 630.93 946.932 632.233C948.975 632.886 950.593 633.652 951.689 634.479C952.793 635.313 953.289 636.144 953.289 636.925Z" stroke="black"/>
<ellipse cx="930.895" cy="633.88" rx="22.8947" ry="7.30827" fill="#415073"/>
<path d="M953.289 629.617C953.289 630.397 952.793 631.229 951.689 632.062C950.593 632.889 948.975 633.656 946.932 634.308C942.85 635.611 937.18 636.425 930.895 636.425C924.61 636.425 918.94 635.611 914.858 634.308C912.814 633.656 911.196 632.889 910.1 632.062C908.996 631.229 908.5 630.397 908.5 629.617C908.5 628.836 908.996 628.004 910.1 627.171C911.196 626.344 912.814 625.578 914.858 624.925C918.94 623.622 924.61 622.808 930.895 622.808C937.18 622.808 942.85 623.622 946.932 624.925C948.975 625.578 950.593 626.344 951.689 627.171C952.793 628.004 953.289 628.836 953.289 629.617Z" stroke="black"/>
<path d="M896 588.5H992.5L955 570H857L896 588.5Z" fill="#424965"/>
<path d="M820.5 528C820.5 528.057 820.466 528.191 820.219 528.386C819.978 528.576 819.598 528.769 819.085 528.94C818.062 529.281 816.618 529.5 815 529.5C813.382 529.5 811.938 529.281 810.915 528.94C810.402 528.769 810.022 528.576 809.781 528.386C809.534 528.191 809.5 528.057 809.5 528C809.5 527.943 809.534 527.809 809.781 527.614C810.022 527.424 810.402 527.231 810.915 527.06C811.938 526.719 813.382 526.5 815 526.5C816.618 526.5 818.062 526.719 819.085 527.06C819.598 527.231 819.978 527.424 820.219 527.614C820.466 527.809 820.5 527.943 820.5 528Z" stroke="black"/>
<path d="M819.5 530V540.5" stroke="black"/>
<path d="M810 531V541.5" stroke="black"/>
<path d="M809.5 542.5L789.818 580.25H839.182L818.5 543" stroke="black"/>
<path d="M811.785 546H816.722L834 582L795 580.857L811.785 546Z" fill="#48B7B0"/>
<path d="M840.5 582C840.5 582.04 840.472 582.18 840.171 582.406C839.882 582.624 839.424 582.855 838.786 583.087C837.516 583.549 835.649 583.974 833.309 584.334C828.636 585.053 822.162 585.5 815 585.5C807.838 585.5 801.364 585.053 796.691 584.334C794.351 583.974 792.484 583.549 791.214 583.087C790.576 582.855 790.118 582.624 789.829 582.406C789.528 582.18 789.5 582.04 789.5 582C789.5 581.96 789.528 581.82 789.829 581.594C790.118 581.376 790.576 581.145 791.214 580.913C792.484 580.451 794.351 580.026 796.691 579.666C801.364 578.947 807.838 578.5 815 578.5C822.162 578.5 828.636 578.947 833.309 579.666C835.649 580.026 837.516 580.451 838.786 580.913C839.424 581.145 839.882 581.376 840.171 581.594C840.472 581.82 840.5 581.96 840.5 582Z" stroke="black"/>
<line x1="786.5" y1="602.983" x2="790.5" y2="717.983" stroke="black"/>
<line x1="1030.5" y1="596.98" x2="1035.42" y2="720.983" stroke="black"/>
<circle cx="819" cy="619" r="2" fill="black"/>
<circle cx="827" cy="627" r="2" fill="black"/>
<circle cx="835" cy="619" r="2" fill="black"/>
<ellipse cx="835.5" cy="634.5" rx="2.5" ry="1.5" fill="black"/>
<ellipse cx="826.5" cy="611.5" rx="1.5" ry="2.5" transform="rotate(25.054 826.5 611.5)" fill="black"/>
<circle cx="843" cy="627" r="2" fill="black"/>
<ellipse cx="827.5" cy="642.5" rx="2.5" ry="1.5" transform="rotate(31.6723 827.5 642.5)" fill="black"/>
<ellipse cx="810.5" cy="627.5" rx="1.5" ry="2.5" fill="black"/>
<circle cx="819" cy="635" r="2" fill="black"/>
<circle cx="844" cy="643" r="2" fill="black"/>
<circle cx="852" cy="651" r="2" fill="black"/>
<circle cx="860" cy="643" r="2" fill="black"/>
<ellipse cx="860.5" cy="658.5" rx="2.5" ry="1.5" fill="black"/>
<ellipse cx="851.5" cy="635.5" rx="1.5" ry="2.5" transform="rotate(25.054 851.5 635.5)" fill="black"/>
<circle cx="868" cy="651" r="2" fill="black"/>
<ellipse cx="852.5" cy="666.5" rx="2.5" ry="1.5" transform="rotate(31.6723 852.5 666.5)" fill="black"/>
<ellipse cx="835.5" cy="651.5" rx="1.5" ry="2.5" fill="black"/>
<circle cx="844" cy="659" r="2" fill="black"/>
<circle cx="870" cy="619" r="2" fill="black"/>
<circle cx="878" cy="627" r="2" fill="black"/>
<circle cx="886" cy="619" r="2" fill="black"/>
<ellipse cx="886.5" cy="634.5" rx="2.5" ry="1.5" fill="black"/>
<ellipse cx="877.5" cy="611.5" rx="1.5" ry="2.5" transform="rotate(25.054 877.5 611.5)" fill="black"/>
<circle cx="894" cy="627" r="2" fill="black"/>
<ellipse cx="878.5" cy="642.5" rx="2.5" ry="1.5" transform="rotate(31.6723 878.5 642.5)" fill="black"/>
<ellipse cx="861.5" cy="627.5" rx="1.5" ry="2.5" fill="black"/>
<circle cx="870" cy="635" r="2" fill="black"/>
<circle cx="1071" cy="526" r="2" fill="black"/>
<circle cx="1079" cy="534" r="2" fill="black"/>
<circle cx="1087" cy="526" r="2" fill="black"/>
<ellipse cx="1087.5" cy="541.5" rx="2.5" ry="1.5" fill="black"/>
<ellipse cx="1078.5" cy="518.5" rx="1.5" ry="2.5" transform="rotate(25.054 1078.5 518.5)" fill="black"/>
<circle cx="1095" cy="534" r="2" fill="black"/>
<ellipse cx="1079.5" cy="549.5" rx="2.5" ry="1.5" transform="rotate(31.6723 1079.5 549.5)" fill="black"/>
<ellipse cx="1062.5" cy="534.5" rx="1.5" ry="2.5" fill="black"/>
<circle cx="1071" cy="542" r="2" fill="black"/>
<circle cx="733" cy="602" r="2" fill="black"/>
<circle cx="741" cy="610" r="2" fill="black"/>
<circle cx="749" cy="602" r="2" fill="black"/>
<ellipse cx="749.5" cy="617.5" rx="2.5" ry="1.5" fill="black"/>
<ellipse cx="740.5" cy="594.5" rx="1.5" ry="2.5" transform="rotate(25.054 740.5 594.5)" fill="black"/>
<circle cx="757" cy="610" r="2" fill="black"/>
<ellipse cx="741.5" cy="625.5" rx="2.5" ry="1.5" transform="rotate(31.6723 741.5 625.5)" fill="black"/>
<ellipse cx="724.5" cy="610.5" rx="1.5" ry="2.5" fill="black"/>
<circle cx="733" cy="618" r="2" fill="black"/>
<circle cx="755" cy="638" r="2" fill="black"/>
<circle cx="763" cy="646" r="2" fill="black"/>
<circle cx="771" cy="638" r="2" fill="black"/>
<ellipse cx="771.5" cy="653.5" rx="2.5" ry="1.5" fill="black"/>
<ellipse cx="762.5" cy="630.5" rx="1.5" ry="2.5" transform="rotate(25.054 762.5 630.5)" fill="black"/>
<circle cx="779" cy="646" r="2" fill="black"/>
<ellipse cx="763.5" cy="661.5" rx="2.5" ry="1.5" transform="rotate(31.6723 763.5 661.5)" fill="black"/>
<ellipse cx="746.5" cy="646.5" rx="1.5" ry="2.5" fill="black"/>
<circle cx="755" cy="654" r="2" fill="black"/>
<circle cx="1028" cy="541" r="2" fill="black"/>
<circle cx="1036" cy="549" r="2" fill="black"/>
<circle cx="1044" cy="541" r="2" fill="black"/>
<ellipse cx="1044.5" cy="556.5" rx="2.5" ry="1.5" fill="black"/>
<ellipse cx="1035.5" cy="533.5" rx="1.5" ry="2.5" transform="rotate(25.054 1035.5 533.5)" fill="black"/>
<circle cx="1052" cy="549" r="2" fill="black"/>
<ellipse cx="1036.5" cy="564.5" rx="2.5" ry="1.5" transform="rotate(31.6723 1036.5 564.5)" fill="black"/>
<ellipse cx="1019.5" cy="549.5" rx="1.5" ry="2.5" fill="black"/>
<circle cx="1028" cy="557" r="2" fill="black"/>
<path d="M636.515 710.658C636.402 712.446 621.247 715.638 605.195 714.417C589.144 713.196 580.026 711.539 578.387 706.237C578.5 704.449 591.605 703.99 607.656 705.21C623.708 706.431 633.537 707.357 636.515 710.658Z" fill="#9F5757"/>
<path d="M631.844 712.057C633.209 712.546 634.211 713.1 634.884 713.725C634.805 713.789 634.695 713.863 634.547 713.945C634.133 714.178 633.506 714.432 632.676 714.694C631.022 715.215 628.642 715.739 625.753 716.171C619.976 717.035 612.212 717.525 604.227 716.918C596.199 716.307 589.951 715.59 585.512 714.375C581.155 713.182 578.72 711.557 577.921 709.268C577.976 709.22 578.072 709.157 578.229 709.086C578.576 708.929 579.113 708.778 579.847 708.643C581.307 708.374 583.429 708.188 586.069 708.096C591.342 707.911 598.611 708.1 606.625 708.709C614.656 709.32 621.103 709.855 625.913 710.648C628.318 711.044 630.293 711.501 631.844 712.057ZM577.877 709.314C577.876 709.315 577.876 709.315 577.876 709.315L577.877 709.314Z" stroke="black"/>
<path d="M603.048 730.834C618.517 738.87 573.821 740.893 554.021 739.047C534.222 737.201 527.582 738.7 524.979 730.256C522.377 721.812 537.065 720.374 556.864 722.22C576.663 724.065 581.018 722.991 603.048 730.834Z" fill="#9F5757"/>
<path d="M598 740.5C559.5 747 515.276 741.084 518.959 733.138C522.5 725.5 525.5 720.5 537.5 720.5" stroke="black"/>
<path d="M639.616 737.658C639.825 735.724 646.005 735.791 652.901 736.685C659.797 737.579 667.231 739.329 667.022 741.263C666.813 743.198 659.117 745.971 652.221 745.077C645.325 744.183 639.407 739.593 639.616 737.658Z" fill="#9F5757"/>
<path d="M637.112 739.723C637.132 739.54 637.304 739.276 637.983 739.038C638.633 738.81 639.584 738.667 640.784 738.612C643.175 738.5 646.41 738.737 649.848 739.182C653.282 739.628 656.836 740.284 659.496 741.065C660.83 741.457 661.909 741.871 662.631 742.29C662.993 742.501 663.237 742.696 663.38 742.866C663.518 743.031 663.533 743.136 663.526 743.199C663.517 743.289 663.453 743.449 663.243 743.671C663.04 743.887 662.735 744.125 662.328 744.37C661.516 744.86 660.361 745.345 658.981 745.749C656.221 746.557 652.642 747.016 649.275 746.58C645.911 746.144 642.779 744.804 640.518 743.338C639.388 742.605 638.491 741.851 637.897 741.179C637.6 740.843 637.389 740.539 637.26 740.279C637.128 740.015 637.1 739.833 637.112 739.723Z" stroke="black"/>
<path d="M859.694 561L851.861 514H946.289L953.662 561H859.694Z" fill="#749CBA" stroke="#212844" stroke-width="4"/>
<path d="M898.5 582.5H995L957.5 564H859.5L898.5 582.5Z" fill="#212844"/>
<ellipse rx="18.6239" ry="7.42857" transform="matrix(1 0 0 -1 886.624 530.429)" fill="#DC94B3"/>
<path d="M938 532.286C938 527.157 923.729 536 911.67 536C899.611 536 885.982 534.586 885.982 539.714C885.982 544.843 895.757 549 907.817 549C919.876 549 938 537.414 938 532.286Z" fill="#DC94B3"/>
<ellipse cx="882.771" cy="544.667" rx="3.21101" ry="3.09524" fill="#DC94B3"/>
<ellipse cx="912.312" cy="531.048" rx="3.21101" ry="3.09524" fill="#DC94B3"/>
<ellipse cx="285.665" cy="262.613" rx="32.5868" ry="3.17363" transform="rotate(0.772486 285.665 262.613)" fill="#EDEECC"/>
<ellipse cx="287.033" cy="274.157" rx="16.9946" ry="2.92798" transform="rotate(0.772486 287.033 274.157)" fill="#EDEECC"/>
<path d="M282 103.5L287 135.5L288.5 239.5L280 242.5L282 103.5Z" fill="#3C4B67"/>
<path d="M237 279.122C266.5 289.122 337.5 283.122 325.5 276.122C313.5 269.122 260.664 261.52 247 270.311C236.5 277.066 339.5 269.878 310.5 261.122C281.5 252.367 246.5 259.856 279 262.622" stroke="black"/>
<ellipse cx="290" cy="250" rx="26" ry="5" fill="#C4C4C4"/>
<path d="M311.5 246C311.5 246.258 311.389 246.549 311.098 246.877C310.803 247.209 310.347 247.553 309.717 247.897C308.459 248.583 306.606 249.217 304.272 249.755C299.614 250.83 293.153 251.5 286 251.5C278.847 251.5 272.386 250.83 267.728 249.755C265.394 249.217 263.541 248.583 262.283 247.897C261.653 247.553 261.197 247.209 260.902 246.877C260.611 246.549 260.5 246.258 260.5 246C260.5 245.742 260.611 245.451 260.902 245.123C261.197 244.791 261.653 244.447 262.283 244.103C263.541 243.417 265.394 242.783 267.728 242.245C272.386 241.17 278.847 240.5 286 240.5C293.153 240.5 299.614 241.17 304.272 242.245C306.606 242.783 308.459 243.417 309.717 244.103C310.347 244.447 310.803 244.791 311.098 245.123C311.389 245.451 311.5 245.742 311.5 246Z" stroke="black"/>
<path d="M295.5 245.5C295.5 245.796 295.348 246.133 294.954 246.494C294.561 246.856 293.963 247.205 293.183 247.509C291.625 248.115 289.439 248.5 287 248.5C284.561 248.5 282.375 248.115 280.817 247.509C280.037 247.205 279.439 246.856 279.046 246.494C278.652 246.133 278.5 245.796 278.5 245.5C278.5 245.204 278.652 244.867 279.046 244.506C279.439 244.144 280.037 243.795 280.817 243.491C282.375 242.885 284.561 242.5 287 242.5C289.439 242.5 291.625 242.885 293.183 243.491C293.963 243.795 294.561 244.144 294.954 244.506C295.348 244.867 295.5 245.204 295.5 245.5Z" stroke="black"/>
<line x1="279.5" y1="240" x2="279.5" y2="96" stroke="black"/>
<line x1="289.5" y1="236.996" x2="290.5" y2="100.996" stroke="black"/>
<ellipse rx="35.5" ry="4.5" transform="matrix(-1 0 0 1 551.5 224.5)" fill="#EDEECC"/>
<ellipse rx="17" ry="2.5" transform="matrix(-1 0 0 1 551 237.5)" fill="#EDEECC"/>
<path d="M557.853 65.5L552.853 97.5L551.353 201.5L559.853 204.5L557.853 65.5Z" fill="#3C4B67"/>
<path d="M590 240C560.5 250 506.5 240.5 518.5 233.5C530.5 226.5 570.336 223.209 584 232C594.5 238.755 500.353 231.878 529.353 223.122C558.353 214.367 593.353 221.856 560.853 224.622" stroke="black"/>
<ellipse rx="26" ry="5" transform="matrix(-1 0 0 1 549.853 212)" fill="#C4C4C4"/>
<path d="M528.353 208C528.353 208.258 528.463 208.549 528.755 208.877C529.049 209.209 529.506 209.553 530.135 209.897C531.393 210.583 533.247 211.217 535.58 211.755C540.239 212.83 546.699 213.5 553.853 213.5C561.006 213.5 567.466 212.83 572.125 211.755C574.458 211.217 576.312 210.583 577.57 209.897C578.199 209.553 578.656 209.209 578.95 208.877C579.242 208.549 579.353 208.258 579.353 208C579.353 207.742 579.242 207.451 578.95 207.123C578.656 206.791 578.199 206.447 577.57 206.103C576.312 205.417 574.458 204.783 572.125 204.245C567.466 203.17 561.006 202.5 553.853 202.5C546.699 202.5 540.239 203.17 535.58 204.245C533.247 204.783 531.393 205.417 530.135 206.103C529.506 206.447 529.049 206.791 528.755 207.123C528.463 207.451 528.353 207.742 528.353 208Z" stroke="black"/>
<path d="M544.353 207.5C544.353 207.796 544.505 208.133 544.898 208.494C545.292 208.856 545.889 209.205 546.67 209.509C548.227 210.115 550.413 210.5 552.853 210.5C555.292 210.5 557.478 210.115 559.035 209.509C559.816 209.205 560.413 208.856 560.807 208.494C561.2 208.133 561.353 207.796 561.353 207.5C561.353 207.204 561.2 206.867 560.807 206.506C560.413 206.144 559.816 205.795 559.035 205.491C557.478 204.885 555.292 204.5 552.853 204.5C550.413 204.5 548.227 204.885 546.67 205.491C545.889 205.795 545.292 206.144 544.898 206.506C544.505 206.867 544.353 207.204 544.353 207.5Z" stroke="black"/>
<line y1="-0.5" x2="144" y2="-0.5" transform="matrix(0 -1 -1 0 559.853 202)" stroke="black"/>
<line y1="-0.5" x2="136.004" y2="-0.5" transform="matrix(-0.00735274 -0.999973 -0.999973 0.00735274 549.853 199)" stroke="black"/>
<g opacity="0.6">
<circle cx="238" cy="298" r="2" fill="#C4C4C4"/>
<circle cx="246" cy="306" r="2" fill="#C4C4C4"/>
<circle cx="254" cy="298" r="2" fill="#C4C4C4"/>
<ellipse cx="254.5" cy="313.5" rx="2.5" ry="1.5" fill="#C4C4C4"/>
<ellipse cx="245.5" cy="290.5" rx="1.5" ry="2.5" transform="rotate(25.054 245.5 290.5)" fill="#C4C4C4"/>
<circle cx="262" cy="306" r="2" fill="#C4C4C4"/>
<ellipse cx="246.5" cy="321.5" rx="2.5" ry="1.5" transform="rotate(31.6723 246.5 321.5)" fill="#C4C4C4"/>
<ellipse cx="229.5" cy="306.5" rx="1.5" ry="2.5" fill="#C4C4C4"/>
<circle cx="238" cy="314" r="2" fill="#C4C4C4"/>
</g>
<g opacity="0.6">
<circle cx="261" cy="351" r="2" fill="#C4C4C4"/>
<circle cx="269" cy="359" r="2" fill="#C4C4C4"/>
<circle cx="277" cy="351" r="2" fill="#C4C4C4"/>
<ellipse cx="277.5" cy="366.5" rx="2.5" ry="1.5" fill="#C4C4C4"/>
<ellipse cx="268.5" cy="343.5" rx="1.5" ry="2.5" transform="rotate(25.054 268.5 343.5)" fill="#C4C4C4"/>
<circle cx="285" cy="359" r="2" fill="#C4C4C4"/>
<ellipse cx="269.5" cy="374.5" rx="2.5" ry="1.5" transform="rotate(31.6723 269.5 374.5)" fill="#C4C4C4"/>
<ellipse cx="252.5" cy="359.5" rx="1.5" ry="2.5" fill="#C4C4C4"/>
<circle cx="261" cy="367" r="2" fill="#C4C4C4"/>
</g>
<circle cx="556" cy="273" r="2" fill="#C4C4C4"/>
<circle cx="564" cy="281" r="2" fill="#C4C4C4"/>
<circle cx="572" cy="273" r="2" fill="#C4C4C4"/>
<ellipse cx="572.5" cy="288.5" rx="2.5" ry="1.5" fill="#C4C4C4"/>
<ellipse cx="563.5" cy="265.5" rx="1.5" ry="2.5" transform="rotate(25.054 563.5 265.5)" fill="#C4C4C4"/>
<circle cx="580" cy="281" r="2" fill="#C4C4C4"/>
<ellipse cx="564.5" cy="296.5" rx="2.5" ry="1.5" transform="rotate(31.6723 564.5 296.5)" fill="#C4C4C4"/>
<ellipse cx="547.5" cy="281.5" rx="1.5" ry="2.5" fill="#C4C4C4"/>
<circle cx="556" cy="289" r="2" fill="#C4C4C4"/>
<g opacity="0.6">
<circle cx="500" cy="266" r="2" fill="#C4C4C4"/>
<circle cx="508" cy="274" r="2" fill="#C4C4C4"/>
<circle cx="516" cy="266" r="2" fill="#C4C4C4"/>
<ellipse cx="516.5" cy="281.5" rx="2.5" ry="1.5" fill="#C4C4C4"/>
<ellipse cx="507.5" cy="258.5" rx="1.5" ry="2.5" transform="rotate(25.054 507.5 258.5)" fill="#C4C4C4"/>
<circle cx="524" cy="274" r="2" fill="#C4C4C4"/>
<ellipse cx="508.5" cy="289.5" rx="2.5" ry="1.5" transform="rotate(31.6723 508.5 289.5)" fill="#C4C4C4"/>
<ellipse cx="491.5" cy="274.5" rx="1.5" ry="2.5" fill="#C4C4C4"/>
<circle cx="500" cy="282" r="2" fill="#C4C4C4"/>
</g>
<g opacity="0.6">
<circle cx="527" cy="311" r="2" fill="#C4C4C4"/>
<circle cx="535" cy="319" r="2" fill="#C4C4C4"/>
<circle cx="543" cy="311" r="2" fill="#C4C4C4"/>
<ellipse cx="543.5" cy="326.5" rx="2.5" ry="1.5" fill="#C4C4C4"/>
<ellipse cx="534.5" cy="303.5" rx="1.5" ry="2.5" transform="rotate(25.054 534.5 303.5)" fill="#C4C4C4"/>
<circle cx="551" cy="319" r="2" fill="#C4C4C4"/>
<ellipse cx="535.5" cy="334.5" rx="2.5" ry="1.5" transform="rotate(31.6723 535.5 334.5)" fill="#C4C4C4"/>
<ellipse cx="518.5" cy="319.5" rx="1.5" ry="2.5" fill="#C4C4C4"/>
<circle cx="527" cy="327" r="2" fill="#C4C4C4"/>
</g>
<circle cx="294" cy="312" r="2" fill="#C4C4C4"/>
<circle cx="302" cy="320" r="2" fill="#C4C4C4"/>
<circle cx="310" cy="312" r="2" fill="#C4C4C4"/>
<ellipse cx="310.5" cy="327.5" rx="2.5" ry="1.5" fill="#C4C4C4"/>
<ellipse cx="301.5" cy="304.5" rx="1.5" ry="2.5" transform="rotate(25.054 301.5 304.5)" fill="#C4C4C4"/>
<circle cx="318" cy="320" r="2" fill="#C4C4C4"/>
<ellipse cx="302.5" cy="335.5" rx="2.5" ry="1.5" transform="rotate(31.6723 302.5 335.5)" fill="#C4C4C4"/>
<ellipse cx="285.5" cy="320.5" rx="1.5" ry="2.5" fill="#C4C4C4"/>
<circle cx="294" cy="328" r="2" fill="#C4C4C4"/>
<circle cx="193" cy="581" r="2" fill="black"/>
<circle cx="201" cy="589" r="2" fill="black"/>
<circle cx="209" cy="581" r="2" fill="black"/>
<ellipse cx="209.5" cy="596.5" rx="2.5" ry="1.5" fill="black"/>
<ellipse cx="200.5" cy="573.5" rx="1.5" ry="2.5" transform="rotate(25.054 200.5 573.5)" fill="black"/>
<circle cx="217" cy="589" r="2" fill="black"/>
<ellipse cx="201.5" cy="604.5" rx="2.5" ry="1.5" transform="rotate(31.6723 201.5 604.5)" fill="black"/>
<ellipse cx="184.5" cy="589.5" rx="1.5" ry="2.5" fill="black"/>
<circle cx="193" cy="597" r="2" fill="black"/>
<circle cx="293" cy="581" r="2" fill="black"/>
<circle cx="301" cy="589" r="2" fill="black"/>
<circle cx="309" cy="581" r="2" fill="black"/>
<ellipse cx="309.5" cy="596.5" rx="2.5" ry="1.5" fill="black"/>
<ellipse cx="300.5" cy="573.5" rx="1.5" ry="2.5" transform="rotate(25.054 300.5 573.5)" fill="black"/>
<circle cx="317" cy="589" r="2" fill="black"/>
<ellipse cx="301.5" cy="604.5" rx="2.5" ry="1.5" transform="rotate(31.6723 301.5 604.5)" fill="black"/>
<ellipse cx="284.5" cy="589.5" rx="1.5" ry="2.5" fill="black"/>
<circle cx="293" cy="597" r="2" fill="black"/>
<circle cx="395" cy="581" r="2" fill="black"/>
<circle cx="403" cy="589" r="2" fill="black"/>
<circle cx="411" cy="581" r="2" fill="black"/>
<ellipse cx="411.5" cy="596.5" rx="2.5" ry="1.5" fill="black"/>
<ellipse cx="402.5" cy="573.5" rx="1.5" ry="2.5" transform="rotate(25.054 402.5 573.5)" fill="black"/>
<circle cx="419" cy="589" r="2" fill="black"/>
<ellipse cx="403.5" cy="604.5" rx="2.5" ry="1.5" transform="rotate(31.6723 403.5 604.5)" fill="black"/>
<ellipse cx="386.5" cy="589.5" rx="1.5" ry="2.5" fill="black"/>
<circle cx="395" cy="597" r="2" fill="black"/>
<circle cx="497" cy="581" r="2" fill="black"/>
<circle cx="505" cy="589" r="2" fill="black"/>
<circle cx="513" cy="581" r="2" fill="black"/>
<ellipse cx="513.5" cy="596.5" rx="2.5" ry="1.5" fill="black"/>
<ellipse cx="504.5" cy="573.5" rx="1.5" ry="2.5" transform="rotate(25.054 504.5 573.5)" fill="black"/>
<circle cx="521" cy="589" r="2" fill="black"/>
<ellipse cx="505.5" cy="604.5" rx="2.5" ry="1.5" transform="rotate(31.6723 505.5 604.5)" fill="black"/>
<ellipse cx="488.5" cy="589.5" rx="1.5" ry="2.5" fill="black"/>
<circle cx="497" cy="597" r="2" fill="black"/>
<circle cx="599" cy="581" r="2" fill="black"/>
<circle cx="607" cy="589" r="2" fill="black"/>
<circle cx="615" cy="581" r="2" fill="black"/>
<ellipse cx="615.5" cy="596.5" rx="2.5" ry="1.5" fill="black"/>
<ellipse cx="606.5" cy="573.5" rx="1.5" ry="2.5" transform="rotate(25.054 606.5 573.5)" fill="black"/>
<circle cx="623" cy="589" r="2" fill="black"/>
<ellipse cx="607.5" cy="604.5" rx="2.5" ry="1.5" transform="rotate(31.6723 607.5 604.5)" fill="black"/>
<ellipse cx="590.5" cy="589.5" rx="1.5" ry="2.5" fill="black"/>
<circle cx="599" cy="597" r="2" fill="black"/>
<circle cx="218" cy="605" r="2" fill="black"/>
<circle cx="226" cy="613" r="2" fill="black"/>
<circle cx="234" cy="605" r="2" fill="black"/>
<ellipse cx="234.5" cy="620.5" rx="2.5" ry="1.5" fill="black"/>
<ellipse cx="225.5" cy="597.5" rx="1.5" ry="2.5" transform="rotate(25.054 225.5 597.5)" fill="black"/>
<circle cx="242" cy="613" r="2" fill="black"/>
<ellipse cx="226.5" cy="628.5" rx="2.5" ry="1.5" transform="rotate(31.6723 226.5 628.5)" fill="black"/>
<ellipse cx="209.5" cy="613.5" rx="1.5" ry="2.5" fill="black"/>
<circle cx="218" cy="621" r="2" fill="black"/>
<circle cx="318" cy="605" r="2" fill="black"/>
<circle cx="326" cy="613" r="2" fill="black"/>
<circle cx="334" cy="605" r="2" fill="black"/>
<ellipse cx="334.5" cy="620.5" rx="2.5" ry="1.5" fill="black"/>
<ellipse cx="325.5" cy="597.5" rx="1.5" ry="2.5" transform="rotate(25.054 325.5 597.5)" fill="black"/>
<circle cx="342" cy="613" r="2" fill="black"/>
<ellipse cx="326.5" cy="628.5" rx="2.5" ry="1.5" transform="rotate(31.6723 326.5 628.5)" fill="black"/>
<ellipse cx="309.5" cy="613.5" rx="1.5" ry="2.5" fill="black"/>
<circle cx="318" cy="621" r="2" fill="black"/>
<circle cx="267" cy="617" r="2" fill="black"/>
<circle cx="275" cy="625" r="2" fill="black"/>
<circle cx="283" cy="617" r="2" fill="black"/>
<ellipse cx="283.5" cy="632.5" rx="2.5" ry="1.5" fill="black"/>
<ellipse cx="274.5" cy="609.5" rx="1.5" ry="2.5" transform="rotate(25.054 274.5 609.5)" fill="black"/>
<circle cx="291" cy="625" r="2" fill="black"/>
<ellipse cx="275.5" cy="640.5" rx="2.5" ry="1.5" transform="rotate(31.6723 275.5 640.5)" fill="black"/>
<ellipse cx="258.5" cy="625.5" rx="1.5" ry="2.5" fill="black"/>
<circle cx="267" cy="633" r="2" fill="black"/>
<circle cx="365" cy="614" r="2" fill="black"/>
<circle cx="373" cy="622" r="2" fill="black"/>
<circle cx="381" cy="614" r="2" fill="black"/>
<ellipse cx="381.5" cy="629.5" rx="2.5" ry="1.5" fill="black"/>
<ellipse cx="372.5" cy="606.5" rx="1.5" ry="2.5" transform="rotate(25.054 372.5 606.5)" fill="black"/>
<circle cx="389" cy="622" r="2" fill="black"/>
<ellipse cx="373.5" cy="637.5" rx="2.5" ry="1.5" transform="rotate(31.6723 373.5 637.5)" fill="black"/>
<ellipse cx="356.5" cy="622.5" rx="1.5" ry="2.5" fill="black"/>
<circle cx="365" cy="630" r="2" fill="black"/>
<circle cx="574" cy="611" r="2" fill="black"/>
<circle cx="582" cy="619" r="2" fill="black"/>
<circle cx="590" cy="611" r="2" fill="black"/>
<ellipse cx="590.5" cy="626.5" rx="2.5" ry="1.5" fill="black"/>
<ellipse cx="581.5" cy="603.5" rx="1.5" ry="2.5" transform="rotate(25.054 581.5 603.5)" fill="black"/>
<circle cx="598" cy="619" r="2" fill="black"/>
<ellipse cx="582.5" cy="634.5" rx="2.5" ry="1.5" transform="rotate(31.6723 582.5 634.5)" fill="black"/>
<ellipse cx="565.5" cy="619.5" rx="1.5" ry="2.5" fill="black"/>
<circle cx="574" cy="627" r="2" fill="black"/>
<circle cx="420" cy="605" r="2" fill="black"/>
<circle cx="428" cy="613" r="2" fill="black"/>
<circle cx="436" cy="605" r="2" fill="black"/>
<ellipse cx="436.5" cy="620.5" rx="2.5" ry="1.5" fill="black"/>
<ellipse cx="427.5" cy="597.5" rx="1.5" ry="2.5" transform="rotate(25.054 427.5 597.5)" fill="black"/>
<circle cx="444" cy="613" r="2" fill="black"/>
<ellipse cx="428.5" cy="628.5" rx="2.5" ry="1.5" transform="rotate(31.6723 428.5 628.5)" fill="black"/>
<ellipse cx="411.5" cy="613.5" rx="1.5" ry="2.5" fill="black"/>
<circle cx="420" cy="621" r="2" fill="black"/>
<circle cx="522" cy="605" r="2" fill="black"/>
<circle cx="530" cy="613" r="2" fill="black"/>
<circle cx="538" cy="605" r="2" fill="black"/>
<ellipse cx="538.5" cy="620.5" rx="2.5" ry="1.5" fill="black"/>
<ellipse cx="529.5" cy="597.5" rx="1.5" ry="2.5" transform="rotate(25.054 529.5 597.5)" fill="black"/>
<circle cx="546" cy="613" r="2" fill="black"/>
<ellipse cx="530.5" cy="628.5" rx="2.5" ry="1.5" transform="rotate(31.6723 530.5 628.5)" fill="black"/>
<ellipse cx="513.5" cy="613.5" rx="1.5" ry="2.5" fill="black"/>
<circle cx="522" cy="621" r="2" fill="black"/>
<circle cx="624" cy="605" r="2" fill="black"/>
<circle cx="632" cy="613" r="2" fill="black"/>
<circle cx="640" cy="605" r="2" fill="black"/>
<ellipse cx="640.5" cy="620.5" rx="2.5" ry="1.5" fill="black"/>
<ellipse cx="631.5" cy="597.5" rx="1.5" ry="2.5" transform="rotate(25.054 631.5 597.5)" fill="black"/>
<circle cx="648" cy="613" r="2" fill="black"/>
<ellipse cx="632.5" cy="628.5" rx="2.5" ry="1.5" transform="rotate(31.6723 632.5 628.5)" fill="black"/>
<ellipse cx="615.5" cy="613.5" rx="1.5" ry="2.5" fill="black"/>
<circle cx="624" cy="621" r="2" fill="black"/>
<circle cx="218" cy="557" r="2" fill="black"/>
<circle cx="226" cy="565" r="2" fill="black"/>
<circle cx="234" cy="557" r="2" fill="black"/>
<ellipse cx="234.5" cy="572.5" rx="2.5" ry="1.5" fill="black"/>
<ellipse cx="225.5" cy="549.5" rx="1.5" ry="2.5" transform="rotate(25.054 225.5 549.5)" fill="black"/>
<circle cx="242" cy="565" r="2" fill="black"/>
<ellipse cx="226.5" cy="580.5" rx="2.5" ry="1.5" transform="rotate(31.6723 226.5 580.5)" fill="black"/>
<ellipse cx="209.5" cy="565.5" rx="1.5" ry="2.5" fill="black"/>
<circle cx="218" cy="573" r="2" fill="black"/>
<circle cx="420" cy="557" r="2" fill="black"/>
<circle cx="428" cy="565" r="2" fill="black"/>
<circle cx="436" cy="557" r="2" fill="black"/>
<ellipse cx="436.5" cy="572.5" rx="2.5" ry="1.5" fill="black"/>
<ellipse cx="427.5" cy="549.5" rx="1.5" ry="2.5" transform="rotate(25.054 427.5 549.5)" fill="black"/>
<circle cx="444" cy="565" r="2" fill="black"/>
<ellipse cx="428.5" cy="580.5" rx="2.5" ry="1.5" transform="rotate(31.6723 428.5 580.5)" fill="black"/>
<ellipse cx="411.5" cy="565.5" rx="1.5" ry="2.5" fill="black"/>
<circle cx="420" cy="573" r="2" fill="black"/>
<circle cx="624" cy="557" r="2" fill="black"/>
<circle cx="632" cy="565" r="2" fill="black"/>
<circle cx="640" cy="557" r="2" fill="black"/>
<ellipse cx="640.5" cy="572.5" rx="2.5" ry="1.5" fill="black"/>
<ellipse cx="631.5" cy="549.5" rx="1.5" ry="2.5" transform="rotate(25.054 631.5 549.5)" fill="black"/>
<circle cx="648" cy="565" r="2" fill="black"/>
<ellipse cx="632.5" cy="580.5" rx="2.5" ry="1.5" transform="rotate(31.6723 632.5 580.5)" fill="black"/>
<ellipse cx="615.5" cy="565.5" rx="1.5" ry="2.5" fill="black"/>
<circle cx="624" cy="573" r="2" fill="black"/>
<circle cx="244" cy="581" r="2" fill="black"/>
<circle cx="252" cy="589" r="2" fill="black"/>
<circle cx="260" cy="581" r="2" fill="black"/>
<ellipse cx="260.5" cy="596.5" rx="2.5" ry="1.5" fill="black"/>
<ellipse cx="251.5" cy="573.5" rx="1.5" ry="2.5" transform="rotate(25.054 251.5 573.5)" fill="black"/>
<circle cx="268" cy="589" r="2" fill="black"/>
<ellipse cx="252.5" cy="604.5" rx="2.5" ry="1.5" transform="rotate(31.6723 252.5 604.5)" fill="black"/>
<ellipse cx="235.5" cy="589.5" rx="1.5" ry="2.5" fill="black"/>
<circle cx="244" cy="597" r="2" fill="black"/>
<circle cx="344" cy="581" r="2" fill="black"/>
<circle cx="352" cy="589" r="2" fill="black"/>
<circle cx="360" cy="581" r="2" fill="black"/>
<ellipse cx="360.5" cy="596.5" rx="2.5" ry="1.5" fill="black"/>
<ellipse cx="351.5" cy="573.5" rx="1.5" ry="2.5" transform="rotate(25.054 351.5 573.5)" fill="black"/>
<circle cx="368" cy="589" r="2" fill="black"/>
<ellipse cx="352.5" cy="604.5" rx="2.5" ry="1.5" transform="rotate(31.6723 352.5 604.5)" fill="black"/>
<ellipse cx="335.5" cy="589.5" rx="1.5" ry="2.5" fill="black"/>
<circle cx="344" cy="597" r="2" fill="black"/>
<circle cx="446" cy="581" r="2" fill="black"/>
<circle cx="454" cy="589" r="2" fill="black"/>
<circle cx="462" cy="581" r="2" fill="black"/>
<ellipse cx="462.5" cy="596.5" rx="2.5" ry="1.5" fill="black"/>
<ellipse cx="453.5" cy="573.5" rx="1.5" ry="2.5" transform="rotate(25.054 453.5 573.5)" fill="black"/>
<circle cx="470" cy="589" r="2" fill="black"/>
<ellipse cx="454.5" cy="604.5" rx="2.5" ry="1.5" transform="rotate(31.6723 454.5 604.5)" fill="black"/>
<ellipse cx="437.5" cy="589.5" rx="1.5" ry="2.5" fill="black"/>
<circle cx="446" cy="597" r="2" fill="black"/>
<circle cx="548" cy="581" r="2" fill="black"/>
<circle cx="556" cy="589" r="2" fill="black"/>
<circle cx="564" cy="581" r="2" fill="black"/>
<ellipse cx="564.5" cy="596.5" rx="2.5" ry="1.5" fill="black"/>
<ellipse cx="555.5" cy="573.5" rx="1.5" ry="2.5" transform="rotate(25.054 555.5 573.5)" fill="black"/>
<circle cx="572" cy="589" r="2" fill="black"/>
<ellipse cx="556.5" cy="604.5" rx="2.5" ry="1.5" transform="rotate(31.6723 556.5 604.5)" fill="black"/>
<ellipse cx="539.5" cy="589.5" rx="1.5" ry="2.5" fill="black"/>
<circle cx="548" cy="597" r="2" fill="black"/>
<circle cx="650" cy="581" r="2" fill="black"/>
<circle cx="658" cy="589" r="2" fill="black"/>
<circle cx="666" cy="581" r="2" fill="black"/>
<ellipse cx="666.5" cy="596.5" rx="2.5" ry="1.5" fill="black"/>
<ellipse cx="657.5" cy="573.5" rx="1.5" ry="2.5" transform="rotate(25.054 657.5 573.5)" fill="black"/>
<circle cx="674" cy="589" r="2" fill="black"/>
<ellipse cx="658.5" cy="604.5" rx="2.5" ry="1.5" transform="rotate(31.6723 658.5 604.5)" fill="black"/>
<ellipse cx="641.5" cy="589.5" rx="1.5" ry="2.5" fill="black"/>
<circle cx="650" cy="597" r="2" fill="black"/>
<ellipse opacity="0.5" cx="520.5" cy="533.5" rx="39.5" ry="8.5" fill="#191930"/>
<path d="M519 493C519 493 535 494.5 553 487V522.698C553 528.388 538.245 533 519.5 533C500.755 533 486 528.388 486 522.698V487C503 494 519 493 519 493Z" fill="#E66A6A"/>
<path d="M519 493C519 493 535 494.5 553 487V522.698C553 528.388 538.245 533 519.5 533C500.755 533 486 528.388 486 522.698V487C503 494 519 493 519 493Z" fill="url(#paint0_linear)"/>
<path d="M552.5 527.5C552.5 534.127 538.211 540 517.5 540C496.789 540 477.5 527 480 522" stroke="black"/>
<path d="M555.5 480C555.5 481.429 554.595 482.878 552.751 484.272C550.916 485.661 548.229 486.932 544.864 488.009C538.139 490.161 528.818 491.5 518.5 491.5C508.182 491.5 498.861 490.161 492.136 488.009C488.771 486.932 486.084 485.661 484.249 484.272C482.405 482.878 481.5 481.429 481.5 480C481.5 478.571 482.405 477.122 484.249 475.728C486.084 474.339 488.771 473.068 492.136 471.991C498.861 469.839 508.182 468.5 518.5 468.5C528.818 468.5 538.139 469.839 544.864 471.991C548.229 473.068 550.916 474.339 552.751 475.728C554.595 477.122 555.5 478.571 555.5 480Z" stroke="black"/>
<ellipse cx="518.5" cy="475" rx="37.5" ry="12" fill="#C1CADF"/>
<path d="M555.5 468C555.5 469.429 554.595 470.878 552.751 472.272C550.916 473.661 548.229 474.932 544.864 476.009C538.139 478.161 528.818 479.5 518.5 479.5C508.182 479.5 498.861 478.161 492.136 476.009C488.771 474.932 486.084 473.661 484.249 472.272C482.405 470.878 481.5 469.429 481.5 468C481.5 466.571 482.405 465.122 484.249 463.728C486.084 462.339 488.771 461.068 492.136 459.991C498.861 457.839 508.182 456.5 518.5 456.5C528.818 456.5 538.139 457.839 544.864 459.991C548.229 461.068 550.916 462.339 552.751 463.728C554.595 465.122 555.5 466.571 555.5 468Z" stroke="black"/>
<path d="M511.154 503.838C513.526 502.425 518.372 501.301 519.644 503.437C520.916 505.572 519.338 508.275 516.965 509.688C514.593 511.101 513.347 512.407 512.076 510.272C510.804 508.137 508.781 505.251 511.154 503.838Z" fill="#F7A4A4"/>
<path d="M539 518.991C539 521.752 536.485 526.991 534 526.991C531.515 526.991 530.962 523.484 530 521.491C530 518.729 531 518.076 534 517.484C536.5 516.991 539 516.229 539 518.991Z" fill="#F7A4A4"/>
<path d="M546.077 501.716C546.077 504.477 544.562 507.507 542.077 507.507C540.077 506.437 538.577 503.937 538.077 502.007C537.577 498 539.591 498 542.077 498C544.562 498 546.077 498.954 546.077 501.716Z" fill="#F7A4A4"/>
<path d="M517.134 508.432C516.026 509.256 515.951 511.032 515.128 509.923C514.304 508.815 514.535 507.249 515.643 506.426C516.752 505.602 518.318 505.833 519.141 506.941C519.965 508.05 518.243 507.609 517.134 508.432Z" fill="black"/>
<path d="M542.009 504.009C540.665 504.327 539.894 505.929 539.576 504.585C539.258 503.241 540.089 501.894 541.433 501.576C542.776 501.258 544.123 502.089 544.442 503.433C544.76 504.776 543.352 503.691 542.009 504.009Z" fill="black"/>
<ellipse opacity="0.5" cx="382.5" cy="533.5" rx="39.5" ry="8.5" fill="#191930"/>
<path d="M381 493C381 493 397 494.5 415 487V522.698C415 528.388 400.245 533 381.5 533C362.755 533 348 528.388 348 522.698V487C365 494 381 493 381 493Z" fill="#E66A6A"/>
<path d="M381 493C381 493 397 494.5 415 487V522.698C415 528.388 400.245 533 381.5 533C362.755 533 348 528.388 348 522.698V487C365 494 381 493 381 493Z" fill="url(#paint1_linear)"/>
<path d="M417 528C417 534.627 400.211 540 379.5 540C358.789 540 339.5 533 342 528C344.5 523 354.5 523 357 523.5" stroke="black"/>
<path d="M417.5 480C417.5 481.429 416.595 482.878 414.751 484.272C412.916 485.661 410.229 486.932 406.864 488.009C400.139 490.161 390.818 491.5 380.5 491.5C370.182 491.5 360.861 490.161 354.136 488.009C350.771 486.932 348.084 485.661 346.249 484.272C344.405 482.878 343.5 481.429 343.5 480C343.5 478.571 344.405 477.122 346.249 475.728C348.084 474.339 350.771 473.068 354.136 471.991C360.861 469.839 370.182 468.5 380.5 468.5C390.818 468.5 400.139 469.839 406.864 471.991C410.229 473.068 412.916 474.339 414.751 475.728C416.595 477.122 417.5 478.571 417.5 480Z" stroke="black"/>
<ellipse cx="380.5" cy="475" rx="37.5" ry="12" fill="#C1CADF"/>
<path d="M417.5 468C417.5 469.429 416.595 470.878 414.751 472.272C412.916 473.661 410.229 474.932 406.864 476.009C400.139 478.161 390.818 479.5 380.5 479.5C370.182 479.5 360.861 478.161 354.136 476.009C350.771 474.932 348.084 473.661 346.249 472.272C344.405 470.878 343.5 469.429 343.5 468C343.5 466.571 344.405 465.122 346.249 463.728C348.084 462.339 350.771 461.068 354.136 459.991C360.861 457.839 370.182 456.5 380.5 456.5C390.818 456.5 400.139 457.839 406.864 459.991C410.229 461.068 412.916 462.339 414.751 463.728C416.595 465.122 417.5 466.571 417.5 468Z" stroke="black"/>
<path d="M361.154 504.838C363.526 503.425 368.372 502.301 369.644 504.437C370.916 506.572 369.338 509.275 366.965 510.688C364.593 512.101 363.347 513.407 362.076 511.272C360.804 509.137 358.781 506.251 361.154 504.838Z" fill="#F7A4A4"/>
<path d="M385 521.991C385 524.752 382.485 529.991 380 529.991C377.515 529.991 376.962 526.484 376 524.491C376 521.729 377 521.076 380 520.484C382.5 519.991 385 519.229 385 521.991Z" fill="#F7A4A4"/>
<path d="M402.077 508.716C402.077 511.477 400.562 514.507 398.077 514.507C396.077 513.437 394.577 510.937 394.077 509.007C393.577 505 395.591 505 398.077 505C400.562 505 402.077 505.954 402.077 508.716Z" fill="#F7A4A4"/>
<path d="M367.31 509.31C366.053 509.881 365.605 511.601 365.034 510.344C364.463 509.087 365.019 507.605 366.276 507.034C367.533 506.463 369.015 507.019 369.586 508.276C370.157 509.533 368.567 508.739 367.31 509.31Z" fill="black"/>
<path d="M397.542 509.793C396.163 509.726 394.978 511.051 395.045 509.672C395.111 508.293 396.283 507.229 397.662 507.295C399.041 507.362 400.105 508.534 400.039 509.913C399.972 511.292 398.921 509.859 397.542 509.793Z" fill="black"/>
<ellipse opacity="0.5" cx="260.5" cy="534.5" rx="39.5" ry="8.5" fill="#191930"/>
<path d="M258 493C258 493 274 494.5 292 487V522.698C292 528.388 277.245 533 258.5 533C239.755 533 225 528.388 225 522.698V487C242 494 258 493 258 493Z" fill="#E66A6A"/>
<path d="M258 493C258 493 274 494.5 292 487V522.698C292 528.388 277.245 533 258.5 533C239.755 533 225 528.388 225 522.698V487C242 494 258 493 258 493Z" fill="url(#paint2_linear)"/>
<path d="M221 526C221 532.627 237.789 538 258.5 538C279.211 538 297.5 533 296 526C294.5 519 281 519.5 281 519.5" stroke="black"/>
<path d="M295.5 478C295.5 479.429 294.595 480.878 292.751 482.272C290.916 483.661 288.229 484.932 284.864 486.009C278.139 488.161 268.818 489.5 258.5 489.5C248.182 489.5 238.861 488.161 232.136 486.009C228.771 484.932 226.084 483.661 224.249 482.272C222.405 480.878 221.5 479.429 221.5 478C221.5 476.571 222.405 475.122 224.249 473.728C226.084 472.339 228.771 471.068 232.136 469.991C238.861 467.839 248.182 466.5 258.5 466.5C268.818 466.5 278.139 467.839 284.864 469.991C288.229 471.068 290.916 472.339 292.751 473.728C294.595 475.122 295.5 476.571 295.5 478Z" stroke="black"/>
<ellipse cx="258.5" cy="473" rx="37.5" ry="12" fill="#C1CADF"/>
<path d="M295.5 466C295.5 467.429 294.595 468.878 292.751 470.272C290.916 471.661 288.229 472.932 284.864 474.009C278.139 476.161 268.818 477.5 258.5 477.5C248.182 477.5 238.861 476.161 232.136 474.009C228.771 472.932 226.084 471.661 224.249 470.272C222.405 468.878 221.5 467.429 221.5 466C221.5 464.571 222.405 463.122 224.249 461.728C226.084 460.339 228.771 459.068 232.136 457.991C238.861 455.839 248.182 454.5 258.5 454.5C268.818 454.5 278.139 455.839 284.864 457.991C288.229 459.068 290.916 460.339 292.751 461.728C294.595 463.122 295.5 464.571 295.5 466Z" stroke="black"/>
<path d="M242 505C242 507.761 240.485 512.5 238 512.5C235.515 512.5 234 509.761 234 507C234 504.239 233.515 502.5 236 502.5C238.485 502.5 242 502.239 242 505Z" fill="#F7A4A4"/>
<path d="M256.5 517.5C256.5 520.261 253.985 525.5 251.5 525.5C249.015 525.5 248.462 521.993 247.5 520C247.5 517.239 248.5 516.585 251.5 515.993C254 515.5 256.5 514.739 256.5 517.5Z" fill="#F7A4A4"/>
<path d="M271 505.778C271 508.54 269.485 511.569 267 511.569C265 510.5 263.5 508 263 506.069C262.5 502.063 264.515 502.063 267 502.063C269.485 502.063 271 503.017 271 505.778Z" fill="#F7A4A4"/>
<path d="M237.511 507.442C236.132 507.376 234.948 508.701 235.014 507.322C235.081 505.943 236.253 504.879 237.632 504.945C239.011 505.011 240.075 506.183 240.009 507.562C239.942 508.941 238.891 507.508 237.511 507.442Z" fill="black"/>
<path d="M267.527 507.617C266.148 507.551 264.963 508.876 265.03 507.497C265.096 506.118 266.268 505.054 267.647 505.12C269.026 505.187 270.09 506.358 270.024 507.738C269.957 509.117 268.906 507.684 267.527 507.617Z" fill="black"/>
<path d="M865.722 279.818L875.811 284.2L845.389 384.372L821.541 374.015L865.722 279.818Z" fill="#3B4158"/>
<path d="M864.664 279.359L870.872 282.055L836.216 380.389L821.541 374.015L864.664 279.359Z" fill="#212844"/>
<path d="M889.687 333.836L895.13 335.11L872.447 396.124L863.274 392.14L889.687 333.836Z" fill="#3B4158"/>
<ellipse opacity="0.45" cx="883.5" cy="243" rx="29.5" ry="18" fill="#646482"/>
<ellipse opacity="0.45" cx="924" cy="222" rx="18" ry="8" fill="#646482"/>
<ellipse opacity="0.45" cx="913" cy="211.5" rx="15" ry="7.5" fill="#646482"/>
<ellipse opacity="0.45" cx="945.5" cy="196" rx="9.5" ry="7" fill="#646482"/>
<circle opacity="0.45" cx="969.5" cy="182.5" r="3.5" fill="#646482"/>
<ellipse opacity="0.45" cx="954.5" cy="184" rx="3.5" ry="2" fill="#646482"/>
<path d="M860.5 230C878.5 261.5 905.5 274.5 919.5 268C933.5 261.5 925 228.5 911.5 224C898 219.5 863 207 872.5 221C882 235 953 257.5 951.5 243C950 228.5 888.5 186.5 911.5 191.5C934.5 196.5 947 235 938 232.5C929 230 877.5 205.5 901 206.5C924.5 207.5 965 230.5 964.5 217.5C964 204.5 949 169.5 942.5 182C936 194.5 950 213.5 960.5 206.5C968.9 200.9 972.333 177.833 973 167" stroke="black"/>
<ellipse cx="1167.5" cy="706" rx="72.5" ry="14" fill="#191930"/>
<ellipse cx="1093.89" cy="601.571" rx="22.8947" ry="7.30827" fill="#415073"/>
<path d="M1116.29 597.308C1116.29 598.089 1115.79 598.92 1114.69 599.754C1113.59 600.581 1111.98 601.347 1109.93 602C1105.85 603.303 1100.18 604.117 1093.89 604.117C1087.61 604.117 1081.94 603.303 1077.86 602C1075.81 601.347 1074.2 600.581 1073.1 599.754C1072 598.92 1071.5 598.089 1071.5 597.308C1071.5 596.528 1072 595.696 1073.1 594.863C1074.2 594.036 1075.81 593.269 1077.86 592.617C1081.94 591.314 1087.61 590.5 1093.89 590.5C1100.18 590.5 1105.85 591.314 1109.93 592.617C1111.98 593.269 1113.59 594.036 1114.69 594.863C1115.79 595.696 1116.29 596.528 1116.29 597.308Z" stroke="black"/>
<path d="M1181.29 612.308C1181.29 613.089 1180.79 613.92 1179.69 614.754C1178.59 615.581 1176.98 616.347 1174.93 617C1170.85 618.303 1165.18 619.117 1158.89 619.117C1152.61 619.117 1146.94 618.303 1142.86 617C1140.81 616.347 1139.2 615.581 1138.1 614.754C1137 613.92 1136.5 613.089 1136.5 612.308C1136.5 611.528 1137 610.696 1138.1 609.863C1139.2 609.036 1140.81 608.269 1142.86 607.617C1146.94 606.314 1152.61 605.5 1158.89 605.5C1165.18 605.5 1170.85 606.314 1174.93 607.617C1176.98 608.269 1178.59 609.036 1179.69 609.863C1180.79 610.696 1181.29 611.528 1181.29 612.308Z" stroke="black"/>
<path d="M1238.29 632.308C1238.29 633.089 1237.79 633.92 1236.69 634.754C1235.59 635.581 1233.98 636.347 1231.93 637C1227.85 638.303 1222.18 639.117 1215.89 639.117C1209.61 639.117 1203.94 638.303 1199.86 637C1197.81 636.347 1196.2 635.581 1195.1 634.754C1194 633.92 1193.5 633.089 1193.5 632.308C1193.5 631.528 1194 630.696 1195.1 629.863C1196.2 629.036 1197.81 628.269 1199.86 627.617C1203.94 626.314 1209.61 625.5 1215.89 625.5C1222.18 625.5 1227.85 626.314 1231.93 627.617C1233.98 628.269 1235.59 629.036 1236.69 629.863C1237.79 630.696 1238.29 631.528 1238.29 632.308Z" stroke="black"/>
<path d="M1131.29 650.308C1131.29 651.089 1130.79 651.92 1129.69 652.754C1128.59 653.581 1126.98 654.347 1124.93 655C1120.85 656.303 1115.18 657.117 1108.89 657.117C1102.61 657.117 1096.94 656.303 1092.86 655C1090.81 654.347 1089.2 653.581 1088.1 652.754C1087 651.92 1086.5 651.089 1086.5 650.308C1086.5 649.528 1087 648.696 1088.1 647.863C1089.2 647.036 1090.81 646.269 1092.86 645.617C1096.94 644.314 1102.61 643.5 1108.89 643.5C1115.18 643.5 1120.85 644.314 1124.93 645.617C1126.98 646.269 1128.59 647.036 1129.69 647.863C1130.79 648.696 1131.29 649.528 1131.29 650.308Z" stroke="black"/>
<ellipse cx="1166.32" cy="634.012" rx="22.9412" ry="7.2" fill="#415073"/>
<path d="M1190.59 631.612C1190.59 632.374 1190.1 633.191 1188.99 634.013C1187.89 634.828 1186.27 635.583 1184.22 636.226C1180.13 637.51 1174.45 638.312 1168.15 638.312C1161.85 638.312 1156.17 637.51 1152.08 636.226C1150.03 635.583 1148.41 634.828 1147.31 634.013C1146.2 633.191 1145.71 632.374 1145.71 631.612C1145.71 630.85 1146.2 630.033 1147.31 629.211C1148.41 628.396 1150.03 627.641 1152.08 626.998C1156.17 625.714 1161.85 624.912 1168.15 624.912C1174.45 624.912 1180.13 625.714 1184.22 626.998C1186.27 627.641 1187.89 628.396 1188.99 629.211C1190.1 630.033 1190.59 630.85 1190.59 631.612Z" stroke="black"/>
<path d="M1234.68 658.812C1234.68 659.574 1234.19 660.391 1233.08 661.213C1231.98 662.028 1230.36 662.783 1228.31 663.426C1224.22 664.71 1218.54 665.512 1212.24 665.512C1205.94 665.512 1200.26 664.71 1196.17 663.426C1194.12 662.783 1192.5 662.028 1191.4 661.213C1190.29 660.391 1189.8 659.574 1189.8 658.812C1189.8 658.05 1190.29 657.233 1191.4 656.411C1192.5 655.596 1194.12 654.841 1196.17 654.198C1200.26 652.914 1205.94 652.112 1212.24 652.112C1218.54 652.112 1224.22 652.914 1228.31 654.198C1230.36 654.841 1231.98 655.596 1233.08 656.411C1234.19 657.233 1234.68 658.05 1234.68 658.812Z" stroke="black"/>
<ellipse cx="1212.24" cy="655.812" rx="22.9412" ry="7.2" fill="#415073"/>
<path d="M1234.68 651.612C1234.68 652.374 1234.19 653.191 1233.08 654.013C1231.98 654.828 1230.36 655.583 1228.31 656.226C1224.22 657.51 1218.54 658.312 1212.24 658.312C1205.94 658.312 1200.26 657.51 1196.17 656.226C1194.12 655.583 1192.5 654.828 1191.4 654.013C1190.29 653.191 1189.8 652.374 1189.8 651.612C1189.8 650.85 1190.29 650.033 1191.4 649.211C1192.5 648.396 1194.12 647.641 1196.17 646.998C1200.26 645.714 1205.94 644.912 1212.24 644.912C1218.54 644.912 1224.22 645.714 1228.31 646.998C1230.36 647.641 1231.98 648.396 1233.08 649.211C1234.19 650.033 1234.68 650.85 1234.68 651.612Z" stroke="black"/>
<line x1="1233.73" y1="661.005" x2="1233.5" y2="684.193" stroke="black"/>
<path d="M1234.5 688.5C1234.5 689.321 1234.01 690.18 1232.96 691.03C1231.91 691.877 1230.36 692.662 1228.4 693.33C1224.48 694.665 1219.04 695.5 1213 695.5C1206.96 695.5 1201.52 694.665 1197.6 693.33C1195.64 692.662 1194.09 691.877 1193.04 691.03C1191.99 690.18 1191.5 689.321 1191.5 688.5C1191.5 687.678 1191.99 686.82 1193.04 685.97C1194.09 685.123 1195.64 684.338 1197.6 683.67C1201.52 682.335 1206.96 681.5 1213 681.5C1219.04 681.5 1224.48 682.335 1228.4 683.67C1230.36 684.338 1231.91 685.123 1232.96 685.97C1234.01 686.82 1234.5 687.678 1234.5 688.5Z" stroke="black"/>
<ellipse cx="1160.27" cy="660.256" rx="22.8947" ry="7.30827" fill="#415073"/>
<path d="M1184.5 657.82C1184.5 658.6 1184 659.432 1182.9 660.265C1181.8 661.092 1180.19 661.859 1178.14 662.511C1174.06 663.814 1168.39 664.628 1162.11 664.628C1155.82 664.628 1150.15 663.814 1146.07 662.511C1144.02 661.859 1142.41 661.092 1141.31 660.265C1140.21 659.432 1139.71 658.6 1139.71 657.82C1139.71 657.039 1140.21 656.207 1141.31 655.374C1142.41 654.547 1144.02 653.781 1146.07 653.128C1150.15 651.825 1155.82 651.011 1162.11 651.011C1168.39 651.011 1174.06 651.825 1178.14 653.128C1180.19 653.781 1181.8 654.547 1182.9 655.374C1184 656.207 1184.5 657.039 1184.5 657.82Z" stroke="black"/>
<path d="M1184.71 695.312C1184.71 696.11 1184.18 696.966 1182.99 697.826C1181.81 698.679 1180.08 699.467 1177.89 700.137C1173.51 701.476 1167.44 702.312 1160.71 702.312C1153.98 702.312 1147.91 701.476 1143.53 700.137C1141.34 699.467 1139.61 698.679 1138.43 697.826C1137.24 696.966 1136.71 696.11 1136.71 695.312C1136.71 694.514 1137.24 693.658 1138.43 692.798C1139.61 691.946 1141.34 691.157 1143.53 690.487C1147.91 689.148 1153.98 688.312 1160.71 688.312C1167.44 688.312 1173.51 689.148 1177.89 690.487C1180.08 691.157 1181.81 691.946 1182.99 692.798C1184.18 693.658 1184.71 694.514 1184.71 695.312Z" stroke="black"/>
<line x1="1183.71" y1="662.812" x2="1183.71" y2="696.812" stroke="black"/>
<ellipse cx="1118.06" cy="622.444" rx="22.8947" ry="7.30827" fill="#415073"/>
<path d="M1141.29 620.008C1141.29 620.788 1140.79 621.62 1139.69 622.453C1138.59 623.28 1136.98 624.047 1134.93 624.699C1130.85 626.002 1125.18 626.816 1118.89 626.816C1112.61 626.816 1106.94 626.002 1102.86 624.699C1100.81 624.047 1099.2 623.28 1098.1 622.453C1097 621.62 1096.5 620.788 1096.5 620.008C1096.5 619.227 1097 618.395 1098.1 617.562C1099.2 616.735 1100.81 615.969 1102.86 615.316C1106.94 614.013 1112.61 613.199 1118.89 613.199C1125.18 613.199 1130.85 614.013 1134.93 615.316C1136.98 615.969 1138.59 616.735 1139.69 617.562C1140.79 618.395 1141.29 619.227 1141.29 620.008Z" stroke="black"/>
<defs>
<linearGradient id="paint0_linear" x1="519.5" y1="487" x2="519.5" y2="533" gradientUnits="userSpaceOnUse">
<stop stop-color="#DB2828"/>
<stop offset="1" stop-color="white" stop-opacity="0"/>
</linearGradient>
<linearGradient id="paint1_linear" x1="381.5" y1="487" x2="381.5" y2="533" gradientUnits="userSpaceOnUse">
<stop stop-color="#D91B1B"/>
<stop offset="1" stop-color="white" stop-opacity="0"/>
</linearGradient>
<linearGradient id="paint2_linear" x1="258.5" y1="487" x2="258.5" y2="533" gradientUnits="userSpaceOnUse">
<stop stop-color="#FC4040"/>
<stop offset="1" stop-color="white" stop-opacity="0"/>
</linearGradient>
</defs>
</svg>
