<svg width="400" height="326" viewBox="0 0 400 326" fill="none" xmlns="http://www.w3.org/2000/svg">
<g clip-path="url(#clip0)">
<path d="M125.65 325.25C276.591 325.25 359.184 200.08 359.184 91.7167C359.184 88.1953 359.184 84.6739 359.024 81.1525C375.03 69.6279 388.956 55.062 400 38.5754C385.274 45.1381 369.428 49.4598 352.781 51.5406C369.748 41.4566 382.713 25.2901 388.956 6.08243C373.109 15.5262 355.502 22.2489 336.775 25.9304C321.729 9.92396 300.44 0 276.911 0C231.613 0 194.798 36.8147 194.798 82.1128C194.798 88.5154 195.598 94.7579 196.879 100.84C128.691 97.479 68.1873 64.6659 27.6911 15.046C20.6483 27.2109 16.6467 41.2965 16.6467 56.3425C16.6467 84.8339 31.2125 109.964 53.1413 124.69C39.6959 124.21 27.0508 120.528 16.0064 114.446C16.0064 114.766 16.0064 115.086 16.0064 115.566C16.0064 155.262 44.3377 188.555 81.7927 196.078C74.91 197.999 67.7071 198.96 60.1841 198.96C54.902 198.96 49.7799 198.479 44.8179 197.519C55.2221 230.172 85.6343 253.862 121.489 254.502C93.3173 276.591 57.9432 289.716 19.5278 289.716C12.9652 289.716 6.40256 289.396 0 288.595C36.1745 311.645 79.3918 325.25 125.65 325.25Z" fill="white"/>
</g>
<defs>
<clipPath id="clip0">
<rect width="400" height="325.25" fill="white"/>
</clipPath>
</defs>
</svg>
