<svg width="28" height="28" viewBox="0 0 28 28" fill="none" xmlns="http://www.w3.org/2000/svg">
<rect width="28" height="28" rx="2" fill="#F1F1F1"/>
<path d="M9.6002 10.63V21H6.5002V10.63H9.6002ZM9.9602 7.79C9.9602 8.03667 9.9102 8.27 9.8102 8.49C9.7102 8.70333 9.57353 8.89333 9.4002 9.06C9.22686 9.22 9.02353 9.35 8.7902 9.45C8.56353 9.54333 8.3202 9.59 8.0602 9.59C7.80686 9.59 7.5702 9.54333 7.3502 9.45C7.1302 9.35 6.93353 9.22 6.7602 9.06C6.59353 8.89333 6.4602 8.70333 6.3602 8.49C6.26686 8.27 6.2202 8.03667 6.2202 7.79C6.2202 7.53667 6.26686 7.3 6.3602 7.08C6.4602 6.86 6.59353 6.66667 6.7602 6.5C6.93353 6.33333 7.1302 6.20333 7.3502 6.11C7.5702 6.01667 7.80686 5.97 8.0602 5.97C8.3202 5.97 8.56353 6.01667 8.7902 6.11C9.02353 6.20333 9.22686 6.33333 9.4002 6.5C9.57353 6.66667 9.7102 6.86 9.8102 7.08C9.9102 7.3 9.9602 7.53667 9.9602 7.79ZM12.1033 21V10.63H14.0233C14.2167 10.63 14.3767 10.6733 14.5033 10.76C14.6367 10.8467 14.73 10.9767 14.7833 11.15L14.9633 11.75C15.1633 11.5633 15.37 11.39 15.5833 11.23C15.7967 11.07 16.0233 10.9367 16.2633 10.83C16.51 10.7167 16.7733 10.63 17.0533 10.57C17.34 10.5033 17.65 10.47 17.9833 10.47C18.55 10.47 19.05 10.57 19.4833 10.77C19.9233 10.9633 20.2933 11.2367 20.5933 11.59C20.8933 11.9367 21.12 12.3533 21.2733 12.84C21.4267 13.32 21.5033 13.8433 21.5033 14.41V21H18.4033V14.41C18.4033 13.9033 18.2867 13.51 18.0533 13.23C17.82 12.9433 17.4767 12.8 17.0233 12.8C16.6833 12.8 16.3633 12.8733 16.0633 13.02C15.7633 13.1667 15.4767 13.3633 15.2033 13.61V21H12.1033Z" fill="#1C2736"/>
</svg>
