<svg width="28" height="28" viewBox="0 0 28 28" fill="black" xmlns="http://www.w3.org/2000/svg">
<path d="M13.9997 2.3335C7.55967 2.3335 2.33301 7.56016 2.33301 14.0002C2.33301 20.4402 7.55967 25.6668 13.9997 25.6668H19.833V23.3335H13.9997C8.93634 23.3335 4.66634 19.0635 4.66634 14.0002C4.66634 8.93683 8.93634 4.66683 13.9997 4.66683C19.063 4.66683 23.333 8.93683 23.333 14.0002V15.6685C23.333 16.5902 22.5047 17.5002 21.583 17.5002C20.6613 17.5002 19.833 16.5902 19.833 15.6685V14.0002C19.833 10.7802 17.2197 8.16683 13.9997 8.16683C10.7797 8.16683 8.16634 10.7802 8.16634 14.0002C8.16634 17.2202 10.7797 19.8335 13.9997 19.8335C15.6097 19.8335 17.0797 19.1802 18.1297 18.1185C18.888 19.1568 20.1947 19.8335 21.583 19.8335C23.8813 19.8335 25.6663 17.9668 25.6663 15.6685V14.0002C25.6663 7.56016 20.4397 2.3335 13.9997 2.3335ZM13.9997 17.5002C12.063 17.5002 10.4997 15.9368 10.4997 14.0002C10.4997 12.0635 12.063 10.5002 13.9997 10.5002C15.9363 10.5002 17.4997 12.0635 17.4997 14.0002C17.4997 15.9368 15.9363 17.5002 13.9997 17.5002Z" fill="#F1F1F1"/>
</svg>
