<svg width="1401" height="776" viewBox="0 0 1401 776" fill="none" xmlns="http://www.w3.org/2000/svg">
<ellipse cx="828.5" cy="633.5" rx="160.5" ry="55.5" fill="#191930"/>
<ellipse cx="1153.5" cy="625.5" rx="135.5" ry="22.5" fill="#191930"/>
<ellipse cx="567.5" cy="604.5" rx="261.5" ry="43.5" fill="#191930"/>
<path d="M329.5 461.5H821.5L935 517.5H394.5L329.5 461.5Z" fill="#585B6E"/>
<path d="M344 474H761.5L912 505H379L344 474Z" fill="#7DA2BD"/>
<path opacity="0.5" d="M392 520H934V578L436.5 570L392 520Z" fill="#3B4158"/>
<path d="M434.258 572.501L394.972 517.5H935.5V574.498L434.258 572.501Z" stroke="black"/>
<path opacity="0.5" d="M329 469L392 526L367 561.5L312 529L329 469Z" fill="#212844"/>
<path d="M392 519L329 465.5L392 531.5L321.5 482L354 501.5L383 535L312 493L376 547L347 539C357 539 376.5 539 374.5 539C372.5 539 340 510 324 495.5L350.5 535L308.5 509L364.5 559L316 531.5L354 570L306.5 547L329 566.5L308.5 562L321.5 570" stroke="black"/>
<path d="M403.5 556H420.5L445 617.5V632H375V617L403.5 556Z" fill="#3B4158"/>
<path d="M418.5 554L402 542L388 542.5L402 554H418.5Z" fill="#585B6F"/>
<path d="M415.5 551L401.5 541.5H386L397 550.5" stroke="black"/>
<path d="M373 615.5L400.5 556.5L385.5 543.5L356 601.5L373 615.5Z" fill="#212844"/>
<path d="M356 617.228L372.5 631L370 616L356 604V617.228Z" fill="#1E2543"/>
<path d="M373.007 617.585L400.83 552.5H417.179L444.991 613.09L443.539 631H373.966L373.007 617.585Z" stroke="black"/>
<rect x="404" y="561.5" width="6.36396" height="6.36396" transform="rotate(-45 404 561.5)" fill="#212844"/>
<rect x="402.707" y="561.5" width="5.36396" height="5.36396" transform="rotate(-45 402.707 561.5)" stroke="black"/>
<rect x="429" y="622.5" width="6.36396" height="6.36396" transform="rotate(-45 429 622.5)" fill="#212844"/>
<rect x="427.707" y="622.5" width="5.36396" height="5.36396" transform="rotate(-45 427.707 622.5)" stroke="black"/>
<rect x="376" y="620.5" width="6.36396" height="6.36396" transform="rotate(-45 376 620.5)" fill="#212844"/>
<rect x="374.707" y="620.5" width="5.36396" height="5.36396" transform="rotate(-45 374.707 620.5)" stroke="black"/>
<path d="M384.5 543L355 600.5V617" stroke="black"/>
<rect x="253" y="771.5" width="6.36396" height="6.36396" transform="rotate(-45 253 771.5)" fill="#212844"/>
<rect x="251.707" y="771.5" width="5.36396" height="5.36396" transform="rotate(-45 251.707 771.5)" stroke="black"/>
<path d="M1001.96 383H1173.41L1208 522.5H971.5L1001.96 383Z" fill="#3B4158"/>
<path d="M1212.5 515L1175 379H1000.5L973.5 509" stroke="black"/>
<path d="M974.083 342.5L944.5 512V536L959.5 537.5L969.5 520.5L996.5 381L974.083 342.5Z" fill="#212844"/>
<path d="M853 468.5V362L939 407V507.5L853 468.5Z" fill="black"/>
<path d="M961.463 405L856 354.072L865.542 324L970 368.138L961.463 405Z" fill="#212844"/>
<path d="M842 313.5L866.5 325L821.5 461.5H802.5L842 313.5Z" fill="#212844"/>
<path d="M836.5 309L995.5 374L1180.5 378L1005 309H836.5Z" fill="#585B6F"/>
<path d="M1000 383L841.5 313.5L1021 311L1169.5 368" stroke="black"/>
<rect x="1012" y="396.5" width="6.36396" height="6.36396" transform="rotate(-45 1012 396.5)" fill="#212844"/>
<rect x="1010.71" y="396.5" width="5.36396" height="5.36396" transform="rotate(-45 1010.71 396.5)" stroke="black"/>
<rect x="1161" y="392.5" width="6.36396" height="6.36396" transform="rotate(-45 1161 392.5)" fill="#212844"/>
<rect x="1159.71" y="392.5" width="5.36396" height="5.36396" transform="rotate(-45 1159.71 392.5)" stroke="black"/>
<ellipse cx="1327.5" cy="535" rx="72.5" ry="14" fill="#191930"/>
<ellipse cx="1253.89" cy="430.571" rx="22.8947" ry="7.30827" fill="#415073"/>
<path d="M1276.29 426.308C1276.29 427.089 1275.79 427.92 1274.69 428.754C1273.59 429.581 1271.98 430.347 1269.93 431C1265.85 432.303 1260.18 433.117 1253.89 433.117C1247.61 433.117 1241.94 432.303 1237.86 431C1235.81 430.347 1234.2 429.581 1233.1 428.754C1232 427.92 1231.5 427.089 1231.5 426.308C1231.5 425.528 1232 424.696 1233.1 423.863C1234.2 423.036 1235.81 422.269 1237.86 421.617C1241.94 420.314 1247.61 419.5 1253.89 419.5C1260.18 419.5 1265.85 420.314 1269.93 421.617C1271.98 422.269 1273.59 423.036 1274.69 423.863C1275.79 424.696 1276.29 425.528 1276.29 426.308Z" stroke="black"/>
<path d="M1341.29 441.308C1341.29 442.089 1340.79 442.92 1339.69 443.754C1338.59 444.581 1336.98 445.347 1334.93 446C1330.85 447.303 1325.18 448.117 1318.89 448.117C1312.61 448.117 1306.94 447.303 1302.86 446C1300.81 445.347 1299.2 444.581 1298.1 443.754C1297 442.92 1296.5 442.089 1296.5 441.308C1296.5 440.528 1297 439.696 1298.1 438.863C1299.2 438.036 1300.81 437.269 1302.86 436.617C1306.94 435.314 1312.61 434.5 1318.89 434.5C1325.18 434.5 1330.85 435.314 1334.93 436.617C1336.98 437.269 1338.59 438.036 1339.69 438.863C1340.79 439.696 1341.29 440.528 1341.29 441.308Z" stroke="black"/>
<path d="M1398.29 461.308C1398.29 462.089 1397.79 462.92 1396.69 463.754C1395.59 464.581 1393.98 465.347 1391.93 466C1387.85 467.303 1382.18 468.117 1375.89 468.117C1369.61 468.117 1363.94 467.303 1359.86 466C1357.81 465.347 1356.2 464.581 1355.1 463.754C1354 462.92 1353.5 462.089 1353.5 461.308C1353.5 460.528 1354 459.696 1355.1 458.863C1356.2 458.036 1357.81 457.269 1359.86 456.617C1363.94 455.314 1369.61 454.5 1375.89 454.5C1382.18 454.5 1387.85 455.314 1391.93 456.617C1393.98 457.269 1395.59 458.036 1396.69 458.863C1397.79 459.696 1398.29 460.528 1398.29 461.308Z" stroke="black"/>
<path d="M1291.29 479.308C1291.29 480.089 1290.79 480.92 1289.69 481.754C1288.59 482.581 1286.98 483.347 1284.93 484C1280.85 485.303 1275.18 486.117 1268.89 486.117C1262.61 486.117 1256.94 485.303 1252.86 484C1250.81 483.347 1249.2 482.581 1248.1 481.754C1247 480.92 1246.5 480.089 1246.5 479.308C1246.5 478.528 1247 477.696 1248.1 476.863C1249.2 476.036 1250.81 475.269 1252.86 474.617C1256.94 473.314 1262.61 472.5 1268.89 472.5C1275.18 472.5 1280.85 473.314 1284.93 474.617C1286.98 475.269 1288.59 476.036 1289.69 476.863C1290.79 477.696 1291.29 478.528 1291.29 479.308Z" stroke="black"/>
<ellipse cx="1326.32" cy="463.012" rx="22.9412" ry="7.2" fill="#415073"/>
<path d="M1350.59 460.612C1350.59 461.374 1350.1 462.191 1348.99 463.013C1347.89 463.828 1346.27 464.583 1344.22 465.226C1340.13 466.51 1334.45 467.312 1328.15 467.312C1321.85 467.312 1316.17 466.51 1312.08 465.226C1310.03 464.583 1308.41 463.828 1307.31 463.013C1306.2 462.191 1305.71 461.374 1305.71 460.612C1305.71 459.85 1306.2 459.033 1307.31 458.211C1308.41 457.396 1310.03 456.641 1312.08 455.998C1316.17 454.714 1321.85 453.912 1328.15 453.912C1334.45 453.912 1340.13 454.714 1344.22 455.998C1346.27 456.641 1347.89 457.396 1348.99 458.211C1350.1 459.033 1350.59 459.85 1350.59 460.612Z" stroke="black"/>
<path d="M1394.68 487.812C1394.68 488.574 1394.19 489.391 1393.08 490.213C1391.98 491.028 1390.36 491.783 1388.31 492.426C1384.22 493.71 1378.54 494.512 1372.24 494.512C1365.94 494.512 1360.26 493.71 1356.17 492.426C1354.12 491.783 1352.5 491.028 1351.4 490.213C1350.29 489.391 1349.8 488.574 1349.8 487.812C1349.8 487.05 1350.29 486.233 1351.4 485.411C1352.5 484.596 1354.12 483.841 1356.17 483.198C1360.26 481.914 1365.94 481.112 1372.24 481.112C1378.54 481.112 1384.22 481.914 1388.31 483.198C1390.36 483.841 1391.98 484.596 1393.08 485.411C1394.19 486.233 1394.68 487.05 1394.68 487.812Z" stroke="black"/>
<ellipse cx="1372.24" cy="484.812" rx="22.9412" ry="7.2" fill="#415073"/>
<path d="M1394.68 480.612C1394.68 481.374 1394.19 482.191 1393.08 483.013C1391.98 483.828 1390.36 484.583 1388.31 485.226C1384.22 486.51 1378.54 487.312 1372.24 487.312C1365.94 487.312 1360.26 486.51 1356.17 485.226C1354.12 484.583 1352.5 483.828 1351.4 483.013C1350.29 482.191 1349.8 481.374 1349.8 480.612C1349.8 479.85 1350.29 479.033 1351.4 478.211C1352.5 477.396 1354.12 476.641 1356.17 475.998C1360.26 474.714 1365.94 473.912 1372.24 473.912C1378.54 473.912 1384.22 474.714 1388.31 475.998C1390.36 476.641 1391.98 477.396 1393.08 478.211C1394.19 479.033 1394.68 479.85 1394.68 480.612Z" stroke="black"/>
<line x1="1393.73" y1="490.005" x2="1393.5" y2="513.193" stroke="black"/>
<path d="M1394.5 517.5C1394.5 518.321 1394.01 519.18 1392.96 520.03C1391.91 520.877 1390.36 521.662 1388.4 522.33C1384.48 523.665 1379.04 524.5 1373 524.5C1366.96 524.5 1361.52 523.665 1357.6 522.33C1355.64 521.662 1354.09 520.877 1353.04 520.03C1351.99 519.18 1351.5 518.321 1351.5 517.5C1351.5 516.678 1351.99 515.82 1353.04 514.97C1354.09 514.123 1355.64 513.338 1357.6 512.67C1361.52 511.335 1366.96 510.5 1373 510.5C1379.04 510.5 1384.48 511.335 1388.4 512.67C1390.36 513.338 1391.91 514.123 1392.96 514.97C1394.01 515.82 1394.5 516.678 1394.5 517.5Z" stroke="black"/>
<ellipse cx="1320.27" cy="489.256" rx="22.8947" ry="7.30827" fill="#415073"/>
<path d="M1344.5 486.82C1344.5 487.6 1344 488.432 1342.9 489.265C1341.8 490.092 1340.19 490.859 1338.14 491.511C1334.06 492.814 1328.39 493.628 1322.11 493.628C1315.82 493.628 1310.15 492.814 1306.07 491.511C1304.02 490.859 1302.41 490.092 1301.31 489.265C1300.21 488.432 1299.71 487.6 1299.71 486.82C1299.71 486.039 1300.21 485.207 1301.31 484.374C1302.41 483.547 1304.02 482.781 1306.07 482.128C1310.15 480.825 1315.82 480.011 1322.11 480.011C1328.39 480.011 1334.06 480.825 1338.14 482.128C1340.19 482.781 1341.8 483.547 1342.9 484.374C1344 485.207 1344.5 486.039 1344.5 486.82Z" stroke="black"/>
<path d="M1344.71 524.312C1344.71 525.11 1344.18 525.966 1342.99 526.826C1341.81 527.679 1340.08 528.467 1337.89 529.137C1333.51 530.476 1327.44 531.312 1320.71 531.312C1313.98 531.312 1307.91 530.476 1303.53 529.137C1301.34 528.467 1299.61 527.679 1298.43 526.826C1297.24 525.966 1296.71 525.11 1296.71 524.312C1296.71 523.514 1297.24 522.658 1298.43 521.798C1299.61 520.946 1301.34 520.157 1303.53 519.487C1307.91 518.148 1313.98 517.312 1320.71 517.312C1327.44 517.312 1333.51 518.148 1337.89 519.487C1340.08 520.157 1341.81 520.946 1342.99 521.798C1344.18 522.658 1344.71 523.514 1344.71 524.312Z" stroke="black"/>
<line x1="1343.71" y1="491.812" x2="1343.71" y2="525.812" stroke="black"/>
<ellipse cx="1278.06" cy="451.444" rx="22.8947" ry="7.30827" fill="#415073"/>
<path d="M1301.29 449.008C1301.29 449.788 1300.79 450.62 1299.69 451.453C1298.59 452.28 1296.98 453.047 1294.93 453.699C1290.85 455.002 1285.18 455.816 1278.89 455.816C1272.61 455.816 1266.94 455.002 1262.86 453.699C1260.81 453.047 1259.2 452.28 1258.1 451.453C1257 450.62 1256.5 449.788 1256.5 449.008C1256.5 448.227 1257 447.395 1258.1 446.562C1259.2 445.735 1260.81 444.969 1262.86 444.316C1266.94 443.013 1272.61 442.199 1278.89 442.199C1285.18 442.199 1290.85 443.013 1294.93 444.316C1296.98 444.969 1298.59 445.735 1299.69 446.562C1300.79 447.395 1301.29 448.227 1301.29 449.008Z" stroke="black"/>
<path d="M1012 546H1024L1018.5 669L1014.5 667.5L1012 546Z" fill="#514740"/>
<path d="M1255 546H1268L1263 669H1259L1255 546Z" fill="#514740"/>
<path d="M969 514.5H1210.5L1267.5 541H1012L969 514.5Z" fill="#BCCCD8"/>
<path d="M967.17 520.624L1007.52 548.882" stroke="black"/>
<path d="M914.5 557H931.5L956 618.5V633H886V618L914.5 557Z" fill="#3B4158"/>
<path d="M929.5 555L913 543L899 543.5L913 555H929.5Z" fill="#585B6F"/>
<path d="M926.5 552L912.5 542.5H897L908 551.5" stroke="black"/>
<path d="M884 616.5L911.5 557.5L896.5 544.5L867 602.5L884 616.5Z" fill="#212844"/>
<path d="M867 618.228L883.5 632L881 617L867 605V618.228Z" fill="#1E2543"/>
<path d="M884.007 618.585L911.83 553.5H928.179L955.991 614.09L954.539 632H884.966L884.007 618.585Z" stroke="black"/>
<rect x="915" y="562.5" width="6.36396" height="6.36396" transform="rotate(-45 915 562.5)" fill="#212844"/>
<rect x="913.707" y="562.5" width="5.36396" height="5.36396" transform="rotate(-45 913.707 562.5)" stroke="black"/>
<rect x="940" y="623.5" width="6.36396" height="6.36396" transform="rotate(-45 940 623.5)" fill="#212844"/>
<rect x="938.707" y="623.5" width="5.36396" height="5.36396" transform="rotate(-45 938.707 623.5)" stroke="black"/>
<rect x="887" y="621.5" width="6.36396" height="6.36396" transform="rotate(-45 887 621.5)" fill="#212844"/>
<rect x="885.707" y="621.5" width="5.36396" height="5.36396" transform="rotate(-45 885.707 621.5)" stroke="black"/>
<path d="M895.5 544L866 601.5V618" stroke="black"/>
<ellipse cx="1215.17" cy="579.444" rx="22.8947" ry="7.30827" fill="#415073"/>
<path d="M1239.39 577.008C1239.39 577.788 1238.9 578.62 1237.79 579.453C1236.7 580.28 1235.08 581.047 1233.04 581.699C1228.96 583.002 1223.29 583.816 1217 583.816C1210.71 583.816 1205.04 583.002 1200.96 581.699C1198.92 581.047 1197.3 580.28 1196.21 579.453C1195.1 578.62 1194.61 577.788 1194.61 577.008C1194.61 576.227 1195.1 575.395 1196.21 574.562C1197.3 573.735 1198.92 572.969 1200.96 572.316C1205.04 571.013 1210.71 570.199 1217 570.199C1223.29 570.199 1228.96 571.013 1233.04 572.316C1235.08 572.969 1236.7 573.735 1237.79 574.562C1238.9 575.395 1239.39 576.227 1239.39 577.008Z" stroke="black"/>
<path d="M1198.99 611.722C1198.99 611.722 1208.76 612.635 1219.75 608.068V629.809C1219.75 633.274 1210.74 636.083 1199.29 636.083C1187.85 636.083 1178.84 633.274 1178.84 629.809V608.068C1189.22 612.331 1198.99 611.722 1198.99 611.722Z" stroke="black"/>
<path d="M1221.08 633.038C1221.08 633.818 1220.58 634.65 1219.48 635.483C1218.38 636.31 1216.76 637.077 1214.72 637.729C1210.64 639.032 1204.97 639.846 1198.68 639.846C1192.4 639.846 1186.73 639.032 1182.65 637.729C1180.6 637.077 1178.99 636.31 1177.89 635.483C1176.79 634.65 1176.29 633.818 1176.29 633.038C1176.29 632.257 1176.79 631.425 1177.89 630.592C1178.99 629.765 1180.6 628.999 1182.65 628.346C1186.73 627.043 1192.4 626.229 1198.68 626.229C1204.97 626.229 1210.64 627.043 1214.72 628.346C1216.76 628.999 1218.38 629.765 1219.48 630.592C1220.58 631.425 1221.08 632.257 1221.08 633.038Z" stroke="black"/>
<path d="M1221.08 603.805C1221.08 604.585 1220.58 605.417 1219.48 606.25C1218.38 607.077 1216.76 607.844 1214.72 608.496C1210.64 609.799 1204.97 610.613 1198.68 610.613C1192.4 610.613 1186.73 609.799 1182.65 608.496C1180.6 607.844 1178.99 607.077 1177.89 606.25C1176.79 605.417 1176.29 604.585 1176.29 603.805C1176.29 603.024 1176.79 602.192 1177.89 601.359C1178.99 600.532 1180.6 599.765 1182.65 599.113C1186.73 597.81 1192.4 596.996 1198.68 596.996C1204.97 596.996 1210.64 597.81 1214.72 599.113C1216.76 599.765 1218.38 600.532 1219.48 601.359C1220.58 602.192 1221.08 603.024 1221.08 603.805Z" stroke="black"/>
<ellipse cx="1198.68" cy="600.759" rx="22.8947" ry="7.30827" fill="#415073"/>
<path d="M1221.08 596.496C1221.08 597.277 1220.58 598.108 1219.48 598.942C1218.38 599.769 1216.76 600.535 1214.72 601.188C1210.64 602.491 1204.97 603.305 1198.68 603.305C1192.4 603.305 1186.73 602.491 1182.65 601.188C1180.6 600.535 1178.99 599.769 1177.89 598.942C1176.79 598.108 1176.29 597.277 1176.29 596.496C1176.29 595.716 1176.79 594.884 1177.89 594.051C1178.99 593.223 1180.6 592.457 1182.65 591.805C1186.73 590.502 1192.4 589.688 1198.68 589.688C1204.97 589.688 1210.64 590.502 1214.72 591.805C1216.76 592.457 1218.38 593.223 1219.48 594.051C1220.58 594.884 1221.08 595.716 1221.08 596.496Z" stroke="black"/>
<path d="M1175.29 614.158C1175.29 614.939 1174.79 615.77 1173.69 616.604C1172.59 617.431 1170.98 618.197 1168.93 618.849C1164.85 620.152 1159.18 620.966 1152.89 620.966C1146.61 620.966 1140.94 620.152 1136.86 618.849C1134.81 618.197 1133.2 617.431 1132.1 616.604C1131 615.77 1130.5 614.939 1130.5 614.158C1130.5 613.377 1131 612.546 1132.1 611.712C1133.2 610.885 1134.81 610.119 1136.86 609.466C1140.94 608.164 1146.61 607.35 1152.89 607.35C1159.18 607.35 1164.85 608.164 1168.93 609.466C1170.98 610.119 1172.59 610.885 1173.69 611.712C1174.79 612.546 1175.29 613.377 1175.29 614.158Z" stroke="black"/>
<path d="M1175.29 584.925C1175.29 585.706 1174.79 586.537 1173.69 587.37C1172.59 588.198 1170.98 588.964 1168.93 589.616C1164.85 590.919 1159.18 591.733 1152.89 591.733C1146.61 591.733 1140.94 590.919 1136.86 589.616C1134.81 588.964 1133.2 588.198 1132.1 587.37C1131 586.537 1130.5 585.706 1130.5 584.925C1130.5 584.144 1131 583.313 1132.1 582.479C1133.2 581.652 1134.81 580.886 1136.86 580.233C1140.94 578.93 1146.61 578.117 1152.89 578.117C1159.18 578.117 1164.85 578.93 1168.93 580.233C1170.98 580.886 1172.59 581.652 1173.69 582.479C1174.79 583.313 1175.29 584.144 1175.29 584.925Z" stroke="black"/>
<ellipse cx="1152.89" cy="581.88" rx="22.8947" ry="7.30827" fill="#415073"/>
<path d="M1175.29 577.617C1175.29 578.397 1174.79 579.229 1173.69 580.062C1172.59 580.889 1170.98 581.656 1168.93 582.308C1164.85 583.611 1159.18 584.425 1152.89 584.425C1146.61 584.425 1140.94 583.611 1136.86 582.308C1134.81 581.656 1133.2 580.889 1132.1 580.062C1131 579.229 1130.5 578.397 1130.5 577.617C1130.5 576.836 1131 576.004 1132.1 575.171C1133.2 574.344 1134.81 573.578 1136.86 572.925C1140.94 571.622 1146.61 570.808 1152.89 570.808C1159.18 570.808 1164.85 571.622 1168.93 572.925C1170.98 573.578 1172.59 574.344 1173.69 575.171C1174.79 576.004 1175.29 576.836 1175.29 577.617Z" stroke="black"/>
<path d="M1118 536.5H1214.5L1177 518H1079L1118 536.5Z" fill="#424965"/>
<path d="M1042.5 476C1042.5 476.057 1042.47 476.191 1042.22 476.386C1041.98 476.576 1041.6 476.769 1041.08 476.94C1040.06 477.281 1038.62 477.5 1037 477.5C1035.38 477.5 1033.94 477.281 1032.92 476.94C1032.4 476.769 1032.02 476.576 1031.78 476.386C1031.53 476.191 1031.5 476.057 1031.5 476C1031.5 475.943 1031.53 475.809 1031.78 475.614C1032.02 475.424 1032.4 475.231 1032.92 475.06C1033.94 474.719 1035.38 474.5 1037 474.5C1038.62 474.5 1040.06 474.719 1041.08 475.06C1041.6 475.231 1041.98 475.424 1042.22 475.614C1042.47 475.809 1042.5 475.943 1042.5 476Z" stroke="black"/>
<path d="M1041.5 478V488.5" stroke="black"/>
<path d="M1032 479V489.5" stroke="black"/>
<path d="M1031.5 490.5L1011.82 528.25H1061.18L1040.5 491" stroke="black"/>
<path d="M1033.78 494H1038.72L1056 530L1017 528.857L1033.78 494Z" fill="#48B7B0"/>
<path d="M1062.5 530C1062.5 530.04 1062.47 530.18 1062.17 530.406C1061.88 530.624 1061.42 530.855 1060.79 531.087C1059.52 531.549 1057.65 531.974 1055.31 532.334C1050.64 533.053 1044.16 533.5 1037 533.5C1029.84 533.5 1023.36 533.053 1018.69 532.334C1016.35 531.974 1014.48 531.549 1013.21 531.087C1012.58 530.855 1012.12 530.624 1011.83 530.406C1011.53 530.18 1011.5 530.04 1011.5 530C1011.5 529.96 1011.53 529.82 1011.83 529.594C1012.12 529.376 1012.58 529.145 1013.21 528.913C1014.48 528.451 1016.35 528.026 1018.69 527.666C1023.36 526.947 1029.84 526.5 1037 526.5C1044.16 526.5 1050.64 526.947 1055.31 527.666C1057.65 528.026 1059.52 528.451 1060.79 528.913C1061.42 529.145 1061.88 529.376 1062.17 529.594C1062.47 529.82 1062.5 529.96 1062.5 530Z" stroke="black"/>
<line x1="1008.5" y1="550.983" x2="1012.5" y2="665.983" stroke="black"/>
<line x1="1252.5" y1="544.98" x2="1257.42" y2="668.983" stroke="black"/>
<path d="M858.515 658.658C858.402 660.446 843.247 663.638 827.195 662.417C811.144 661.196 802.026 659.539 800.387 654.237C800.5 652.449 813.605 651.99 829.656 653.21C845.708 654.431 855.537 655.357 858.515 658.658Z" fill="#9F5757"/>
<path d="M853.844 660.057C855.209 660.546 856.211 661.1 856.884 661.725C856.805 661.789 856.695 661.863 856.547 661.945C856.133 662.178 855.506 662.432 854.676 662.694C853.022 663.215 850.642 663.739 847.753 664.171C841.976 665.035 834.212 665.525 826.227 664.918C818.199 664.307 811.951 663.59 807.512 662.375C803.155 661.182 800.72 659.557 799.921 657.268C799.976 657.22 800.072 657.157 800.229 657.086C800.576 656.929 801.113 656.778 801.847 656.643C803.307 656.374 805.429 656.188 808.069 656.096C813.342 655.911 820.611 656.1 828.625 656.709C836.656 657.32 843.103 657.855 847.913 658.648C850.318 659.044 852.293 659.501 853.844 660.057ZM799.877 657.314C799.876 657.315 799.876 657.315 799.876 657.315L799.877 657.314Z" stroke="black"/>
<path d="M825.048 678.834C840.517 686.87 795.821 688.893 776.021 687.047C756.222 685.201 749.582 686.7 746.979 678.256C744.377 669.812 759.065 668.374 778.864 670.22C798.663 672.065 803.018 670.991 825.048 678.834Z" fill="#9F5757"/>
<path d="M820 688.5C781.5 695 737.276 689.084 740.959 681.138C744.5 673.5 747.5 668.5 759.5 668.5" stroke="black"/>
<path d="M861.616 685.658C861.825 683.724 868.005 683.791 874.901 684.685C881.797 685.579 889.231 687.329 889.022 689.263C888.813 691.198 881.117 693.971 874.221 693.077C867.325 692.183 861.407 687.593 861.616 685.658Z" fill="#9F5757"/>
<path d="M859.112 687.723C859.132 687.54 859.304 687.276 859.983 687.038C860.633 686.81 861.584 686.667 862.784 686.612C865.175 686.5 868.41 686.737 871.848 687.182C875.282 687.628 878.836 688.284 881.496 689.065C882.83 689.457 883.909 689.871 884.631 690.29C884.993 690.501 885.237 690.696 885.38 690.866C885.518 691.031 885.533 691.136 885.526 691.199C885.517 691.289 885.453 691.449 885.243 691.671C885.04 691.887 884.735 692.125 884.328 692.37C883.516 692.86 882.361 693.345 880.981 693.749C878.221 694.557 874.642 695.016 871.275 694.58C867.911 694.144 864.779 692.804 862.518 691.338C861.388 690.605 860.491 689.851 859.897 689.179C859.6 688.843 859.389 688.539 859.26 688.279C859.128 688.015 859.1 687.833 859.112 687.723Z" stroke="black"/>
<path d="M1081.69 509L1073.86 462H1168.29L1175.66 509H1081.69Z" fill="#749CBA" stroke="#212844" stroke-width="4"/>
<path d="M1120.5 530.5H1217L1179.5 512H1081.5L1120.5 530.5Z" fill="#212844"/>
<ellipse rx="18.6239" ry="7.42857" transform="matrix(1 0 0 -1 1108.62 478.429)" fill="#DC94B3"/>
<path d="M1160 480.286C1160 475.157 1145.73 484 1133.67 484C1121.61 484 1107.98 482.586 1107.98 487.714C1107.98 492.843 1117.76 497 1129.82 497C1141.88 497 1160 485.414 1160 480.286Z" fill="#DC94B3"/>
<ellipse cx="1104.77" cy="492.667" rx="3.21101" ry="3.09524" fill="#DC94B3"/>
<ellipse cx="1134.31" cy="479.048" rx="3.21101" ry="3.09524" fill="#DC94B3"/>
<ellipse cx="452.665" cy="198.613" rx="32.5868" ry="3.17363" transform="rotate(0.772486 452.665 198.613)" fill="#EDEECC"/>
<ellipse cx="454.033" cy="210.157" rx="16.9946" ry="2.92798" transform="rotate(0.772486 454.033 210.157)" fill="#EDEECC"/>
<path d="M449 39.5L454 71.5L455.5 175.5L447 178.5L449 39.5Z" fill="#3C4B67"/>
<path d="M404 215.122C433.5 225.122 504.5 219.122 492.5 212.122C480.5 205.122 427.664 197.52 414 206.311C403.5 213.066 506.5 205.878 477.5 197.122C448.5 188.367 413.5 195.856 446 198.622" stroke="black"/>
<ellipse cx="457" cy="186" rx="26" ry="5" fill="#C4C4C4"/>
<path d="M478.5 182C478.5 182.258 478.389 182.549 478.098 182.877C477.803 183.209 477.347 183.553 476.717 183.897C475.459 184.583 473.606 185.217 471.272 185.755C466.614 186.83 460.153 187.5 453 187.5C445.847 187.5 439.386 186.83 434.728 185.755C432.394 185.217 430.541 184.583 429.283 183.897C428.653 183.553 428.197 183.209 427.902 182.877C427.611 182.549 427.5 182.258 427.5 182C427.5 181.742 427.611 181.451 427.902 181.123C428.197 180.791 428.653 180.447 429.283 180.103C430.541 179.417 432.394 178.783 434.728 178.245C439.386 177.17 445.847 176.5 453 176.5C460.153 176.5 466.614 177.17 471.272 178.245C473.606 178.783 475.459 179.417 476.717 180.103C477.347 180.447 477.803 180.791 478.098 181.123C478.389 181.451 478.5 181.742 478.5 182Z" stroke="black"/>
<path d="M462.5 181.5C462.5 181.796 462.348 182.133 461.954 182.494C461.561 182.856 460.963 183.205 460.183 183.509C458.625 184.115 456.439 184.5 454 184.5C451.561 184.5 449.375 184.115 447.817 183.509C447.037 183.205 446.439 182.856 446.046 182.494C445.652 182.133 445.5 181.796 445.5 181.5C445.5 181.204 445.652 180.867 446.046 180.506C446.439 180.144 447.037 179.795 447.817 179.491C449.375 178.885 451.561 178.5 454 178.5C456.439 178.5 458.625 178.885 460.183 179.491C460.963 179.795 461.561 180.144 461.954 180.506C462.348 180.867 462.5 181.204 462.5 181.5Z" stroke="black"/>
<line x1="446.5" y1="176" x2="446.5" y2="32" stroke="black"/>
<line x1="456.5" y1="172.996" x2="457.5" y2="36.9963" stroke="black"/>
<ellipse rx="35.5" ry="4.5" transform="matrix(-1 0 0 1 675.5 198.5)" fill="#EDEECC"/>
<ellipse rx="17" ry="2.5" transform="matrix(-1 0 0 1 675 211.5)" fill="#EDEECC"/>
<path d="M681.853 39.5L676.853 71.5L675.353 175.5L683.853 178.5L681.853 39.5Z" fill="#3C4B67"/>
<path d="M714 214C684.5 224 630.5 214.5 642.5 207.5C654.5 200.5 694.336 197.209 708 206C718.5 212.755 624.353 205.878 653.353 197.122C682.353 188.367 717.353 195.856 684.853 198.622" stroke="black"/>
<ellipse rx="26" ry="5" transform="matrix(-1 0 0 1 673.853 186)" fill="#C4C4C4"/>
<path d="M652.353 182C652.353 182.258 652.463 182.549 652.755 182.877C653.049 183.209 653.506 183.553 654.135 183.897C655.393 184.583 657.247 185.217 659.58 185.755C664.239 186.83 670.699 187.5 677.853 187.5C685.006 187.5 691.466 186.83 696.125 185.755C698.458 185.217 700.312 184.583 701.57 183.897C702.199 183.553 702.656 183.209 702.95 182.877C703.242 182.549 703.353 182.258 703.353 182C703.353 181.742 703.242 181.451 702.95 181.123C702.656 180.791 702.199 180.447 701.57 180.103C700.312 179.417 698.458 178.783 696.125 178.245C691.466 177.17 685.006 176.5 677.853 176.5C670.699 176.5 664.239 177.17 659.58 178.245C657.247 178.783 655.393 179.417 654.135 180.103C653.506 180.447 653.049 180.791 652.755 181.123C652.463 181.451 652.353 181.742 652.353 182Z" stroke="black"/>
<path d="M668.353 181.5C668.353 181.796 668.505 182.133 668.898 182.494C669.292 182.856 669.889 183.205 670.67 183.509C672.227 184.115 674.413 184.5 676.853 184.5C679.292 184.5 681.478 184.115 683.035 183.509C683.816 183.205 684.413 182.856 684.807 182.494C685.2 182.133 685.353 181.796 685.353 181.5C685.353 181.204 685.2 180.867 684.807 180.506C684.413 180.144 683.816 179.795 683.035 179.491C681.478 178.885 679.292 178.5 676.853 178.5C674.413 178.5 672.227 178.885 670.67 179.491C669.889 179.795 669.292 180.144 668.898 180.506C668.505 180.867 668.353 181.204 668.353 181.5Z" stroke="black"/>
<line y1="-0.5" x2="144" y2="-0.5" transform="matrix(0 -1 -1 0 683.853 176)" stroke="black"/>
<line y1="-0.5" x2="136.004" y2="-0.5" transform="matrix(-0.00735274 -0.999973 -0.999973 0.00735274 673.853 173)" stroke="black"/>
<ellipse cx="148" cy="594" rx="123" ry="27" fill="#191930"/>
<ellipse cx="154" cy="609" rx="123" ry="30" fill="black"/>
<mask id="mask0" mask-type="alpha" maskUnits="userSpaceOnUse" x="29" y="570" width="246" height="60">
<path d="M274.5 600C274.5 603.85 271.287 607.668 265.084 611.244C258.919 614.799 249.964 618.018 238.856 620.727C216.646 626.144 185.938 629.5 152 629.5C118.062 629.5 87.354 626.144 65.1443 620.727C54.0356 618.018 45.081 614.799 38.9157 611.244C32.7133 607.668 29.5 603.85 29.5 600C29.5 596.15 32.7133 592.332 38.9157 588.756C45.081 585.201 54.0356 581.982 65.1443 579.273C87.354 573.856 118.062 570.5 152 570.5C185.938 570.5 216.646 573.856 238.856 579.273C249.964 581.982 258.919 585.201 265.084 588.756C271.287 592.332 274.5 596.15 274.5 600Z" stroke="black"/>
</mask>
<g mask="url(#mask0)">
<ellipse cx="154" cy="595" rx="123" ry="30" fill="black"/>
</g>
<g opacity="0.6">
<circle cx="494" cy="87" r="2" fill="#C4C4C4"/>
<circle cx="502" cy="95" r="2" fill="#C4C4C4"/>
<circle cx="510" cy="87" r="2" fill="#C4C4C4"/>
<ellipse cx="510.5" cy="102.5" rx="2.5" ry="1.5" fill="#C4C4C4"/>
<ellipse cx="501.5" cy="79.5" rx="1.5" ry="2.5" transform="rotate(25.054 501.5 79.5)" fill="#C4C4C4"/>
<circle cx="518" cy="95" r="2" fill="#C4C4C4"/>
<ellipse cx="502.5" cy="110.5" rx="2.5" ry="1.5" transform="rotate(31.6723 502.5 110.5)" fill="#C4C4C4"/>
<ellipse cx="485.5" cy="95.5" rx="1.5" ry="2.5" fill="#C4C4C4"/>
<circle cx="494" cy="103" r="2" fill="#C4C4C4"/>
</g>
<g opacity="0.6">
<circle cx="467" cy="115" r="2" fill="#C4C4C4"/>
<circle cx="475" cy="123" r="2" fill="#C4C4C4"/>
<circle cx="483" cy="115" r="2" fill="#C4C4C4"/>
<ellipse cx="483.5" cy="130.5" rx="2.5" ry="1.5" fill="#C4C4C4"/>
<ellipse cx="474.5" cy="107.5" rx="1.5" ry="2.5" transform="rotate(25.054 474.5 107.5)" fill="#C4C4C4"/>
<circle cx="491" cy="123" r="2" fill="#C4C4C4"/>
<ellipse cx="475.5" cy="138.5" rx="2.5" ry="1.5" transform="rotate(31.6723 475.5 138.5)" fill="#C4C4C4"/>
<ellipse cx="458.5" cy="123.5" rx="1.5" ry="2.5" fill="#C4C4C4"/>
<circle cx="467" cy="131" r="2" fill="#C4C4C4"/>
</g>
<g opacity="0.6">
<circle cx="512" cy="120" r="2" fill="#C4C4C4"/>
<circle cx="520" cy="128" r="2" fill="#C4C4C4"/>
<circle cx="528" cy="120" r="2" fill="#C4C4C4"/>
<ellipse cx="528.5" cy="135.5" rx="2.5" ry="1.5" fill="#C4C4C4"/>
<ellipse cx="519.5" cy="112.5" rx="1.5" ry="2.5" transform="rotate(25.054 519.5 112.5)" fill="#C4C4C4"/>
<circle cx="536" cy="128" r="2" fill="#C4C4C4"/>
<ellipse cx="520.5" cy="143.5" rx="2.5" ry="1.5" transform="rotate(31.6723 520.5 143.5)" fill="#C4C4C4"/>
<ellipse cx="503.5" cy="128.5" rx="1.5" ry="2.5" fill="#C4C4C4"/>
<circle cx="512" cy="136" r="2" fill="#C4C4C4"/>
</g>
<g opacity="0.6">
<circle cx="495" cy="11" r="2" fill="#C4C4C4"/>
<circle cx="503" cy="19" r="2" fill="#C4C4C4"/>
<circle cx="511" cy="11" r="2" fill="#C4C4C4"/>
<ellipse cx="511.5" cy="26.5" rx="2.5" ry="1.5" fill="#C4C4C4"/>
<ellipse cx="502.5" cy="3.50002" rx="1.5" ry="2.5" transform="rotate(25.054 502.5 3.50002)" fill="#C4C4C4"/>
<circle cx="519" cy="19" r="2" fill="#C4C4C4"/>
<ellipse cx="503.5" cy="34.5" rx="2.5" ry="1.5" transform="rotate(31.6723 503.5 34.5)" fill="#C4C4C4"/>
<ellipse cx="486.5" cy="19.5" rx="1.5" ry="2.5" fill="#C4C4C4"/>
<circle cx="495" cy="27" r="2" fill="#C4C4C4"/>
</g>
<g opacity="0.6">
<circle cx="518" cy="64" r="2" fill="#C4C4C4"/>
<circle cx="526" cy="72" r="2" fill="#C4C4C4"/>
<circle cx="534" cy="64" r="2" fill="#C4C4C4"/>
<ellipse cx="534.5" cy="79.5" rx="2.5" ry="1.5" fill="#C4C4C4"/>
<ellipse cx="525.5" cy="56.5" rx="1.5" ry="2.5" transform="rotate(25.054 525.5 56.5)" fill="#C4C4C4"/>
<circle cx="542" cy="72" r="2" fill="#C4C4C4"/>
<ellipse cx="526.5" cy="87.5" rx="2.5" ry="1.5" transform="rotate(31.6723 526.5 87.5)" fill="#C4C4C4"/>
<ellipse cx="509.5" cy="72.5" rx="1.5" ry="2.5" fill="#C4C4C4"/>
<circle cx="518" cy="80" r="2" fill="#C4C4C4"/>
</g>
<circle cx="710" cy="82" r="2" fill="#C4C4C4"/>
<circle cx="718" cy="90" r="2" fill="#C4C4C4"/>
<circle cx="726" cy="82" r="2" fill="#C4C4C4"/>
<ellipse cx="726.5" cy="97.5" rx="2.5" ry="1.5" fill="#C4C4C4"/>
<ellipse cx="717.5" cy="74.5" rx="1.5" ry="2.5" transform="rotate(25.054 717.5 74.5)" fill="#C4C4C4"/>
<circle cx="734" cy="90" r="2" fill="#C4C4C4"/>
<ellipse cx="718.5" cy="105.5" rx="2.5" ry="1.5" transform="rotate(31.6723 718.5 105.5)" fill="#C4C4C4"/>
<ellipse cx="701.5" cy="90.5" rx="1.5" ry="2.5" fill="#C4C4C4"/>
<circle cx="710" cy="98" r="2" fill="#C4C4C4"/>
<g opacity="0.6">
<circle cx="750" cy="51" r="2" fill="#C4C4C4"/>
<circle cx="758" cy="59" r="2" fill="#C4C4C4"/>
<circle cx="766" cy="51" r="2" fill="#C4C4C4"/>
<ellipse cx="766.5" cy="66.5" rx="2.5" ry="1.5" fill="#C4C4C4"/>
<ellipse cx="757.5" cy="43.5" rx="1.5" ry="2.5" transform="rotate(25.054 757.5 43.5)" fill="#C4C4C4"/>
<circle cx="774" cy="59" r="2" fill="#C4C4C4"/>
<ellipse cx="758.5" cy="74.5" rx="2.5" ry="1.5" transform="rotate(31.6723 758.5 74.5)" fill="#C4C4C4"/>
<ellipse cx="741.5" cy="59.5" rx="1.5" ry="2.5" fill="#C4C4C4"/>
<circle cx="750" cy="67" r="2" fill="#C4C4C4"/>
</g>
<g opacity="0.6">
<circle cx="763" cy="96" r="2" fill="#C4C4C4"/>
<circle cx="771" cy="104" r="2" fill="#C4C4C4"/>
<circle cx="779" cy="96" r="2" fill="#C4C4C4"/>
<ellipse cx="779.5" cy="111.5" rx="2.5" ry="1.5" fill="#C4C4C4"/>
<ellipse cx="770.5" cy="88.5" rx="1.5" ry="2.5" transform="rotate(25.054 770.5 88.5)" fill="#C4C4C4"/>
<circle cx="787" cy="104" r="2" fill="#C4C4C4"/>
<ellipse cx="771.5" cy="119.5" rx="2.5" ry="1.5" transform="rotate(31.6723 771.5 119.5)" fill="#C4C4C4"/>
<ellipse cx="754.5" cy="104.5" rx="1.5" ry="2.5" fill="#C4C4C4"/>
<circle cx="763" cy="112" r="2" fill="#C4C4C4"/>
</g>
<g opacity="0.6">
<circle cx="734" cy="119" r="2" fill="#C4C4C4"/>
<circle cx="742" cy="127" r="2" fill="#C4C4C4"/>
<circle cx="750" cy="119" r="2" fill="#C4C4C4"/>
<ellipse cx="750.5" cy="134.5" rx="2.5" ry="1.5" fill="#C4C4C4"/>
<ellipse cx="741.5" cy="111.5" rx="1.5" ry="2.5" transform="rotate(25.054 741.5 111.5)" fill="#C4C4C4"/>
<circle cx="758" cy="127" r="2" fill="#C4C4C4"/>
<ellipse cx="742.5" cy="142.5" rx="2.5" ry="1.5" transform="rotate(31.6723 742.5 142.5)" fill="#C4C4C4"/>
<ellipse cx="725.5" cy="127.5" rx="1.5" ry="2.5" fill="#C4C4C4"/>
<circle cx="734" cy="135" r="2" fill="#C4C4C4"/>
</g>
<g opacity="0.6">
<circle cx="768" cy="147" r="2" fill="#C4C4C4"/>
<circle cx="776" cy="155" r="2" fill="#C4C4C4"/>
<circle cx="784" cy="147" r="2" fill="#C4C4C4"/>
<ellipse cx="784.5" cy="162.5" rx="2.5" ry="1.5" fill="#C4C4C4"/>
<ellipse cx="775.5" cy="139.5" rx="1.5" ry="2.5" transform="rotate(25.054 775.5 139.5)" fill="#C4C4C4"/>
<circle cx="792" cy="155" r="2" fill="#C4C4C4"/>
<ellipse cx="776.5" cy="170.5" rx="2.5" ry="1.5" transform="rotate(31.6723 776.5 170.5)" fill="#C4C4C4"/>
<ellipse cx="759.5" cy="155.5" rx="1.5" ry="2.5" fill="#C4C4C4"/>
<circle cx="768" cy="163" r="2" fill="#C4C4C4"/>
</g>
<circle cx="419" cy="91" r="2" fill="#C4C4C4"/>
<circle cx="427" cy="99" r="2" fill="#C4C4C4"/>
<circle cx="435" cy="91" r="2" fill="#C4C4C4"/>
<ellipse cx="435.5" cy="106.5" rx="2.5" ry="1.5" fill="#C4C4C4"/>
<ellipse cx="426.5" cy="83.5" rx="1.5" ry="2.5" transform="rotate(25.054 426.5 83.5)" fill="#C4C4C4"/>
<circle cx="443" cy="99" r="2" fill="#C4C4C4"/>
<ellipse cx="427.5" cy="114.5" rx="2.5" ry="1.5" transform="rotate(31.6723 427.5 114.5)" fill="#C4C4C4"/>
<ellipse cx="410.5" cy="99.5" rx="1.5" ry="2.5" fill="#C4C4C4"/>
<circle cx="419" cy="107" r="2" fill="#C4C4C4"/>
<g opacity="0.6">
<circle cx="471" cy="62" r="2" fill="#C4C4C4"/>
<circle cx="479" cy="70" r="2" fill="#C4C4C4"/>
<circle cx="487" cy="62" r="2" fill="#C4C4C4"/>
<ellipse cx="487.5" cy="77.5" rx="2.5" ry="1.5" fill="#C4C4C4"/>
<ellipse cx="478.5" cy="54.5" rx="1.5" ry="2.5" transform="rotate(25.054 478.5 54.5)" fill="#C4C4C4"/>
<circle cx="495" cy="70" r="2" fill="#C4C4C4"/>
<ellipse cx="479.5" cy="85.5" rx="2.5" ry="1.5" transform="rotate(31.6723 479.5 85.5)" fill="#C4C4C4"/>
<ellipse cx="462.5" cy="70.5" rx="1.5" ry="2.5" fill="#C4C4C4"/>
<circle cx="471" cy="78" r="2" fill="#C4C4C4"/>
</g>
<g opacity="0.6">
<circle cx="708" cy="31" r="2" fill="#C4C4C4"/>
<circle cx="716" cy="39" r="2" fill="#C4C4C4"/>
<circle cx="724" cy="31" r="2" fill="#C4C4C4"/>
<ellipse cx="724.5" cy="46.5" rx="2.5" ry="1.5" fill="#C4C4C4"/>
<ellipse cx="715.5" cy="23.5" rx="1.5" ry="2.5" transform="rotate(25.054 715.5 23.5)" fill="#C4C4C4"/>
<circle cx="732" cy="39" r="2" fill="#C4C4C4"/>
<ellipse cx="716.5" cy="54.5" rx="2.5" ry="1.5" transform="rotate(31.6723 716.5 54.5)" fill="#C4C4C4"/>
<ellipse cx="699.5" cy="39.5" rx="1.5" ry="2.5" fill="#C4C4C4"/>
<circle cx="708" cy="47" r="2" fill="#C4C4C4"/>
</g>
<circle cx="415" cy="529" r="2" fill="black"/>
<circle cx="423" cy="537" r="2" fill="black"/>
<circle cx="431" cy="529" r="2" fill="black"/>
<ellipse cx="431.5" cy="544.5" rx="2.5" ry="1.5" fill="black"/>
<ellipse cx="422.5" cy="521.5" rx="1.5" ry="2.5" transform="rotate(25.054 422.5 521.5)" fill="black"/>
<circle cx="439" cy="537" r="2" fill="black"/>
<ellipse cx="423.5" cy="552.5" rx="2.5" ry="1.5" transform="rotate(31.6723 423.5 552.5)" fill="black"/>
<ellipse cx="406.5" cy="537.5" rx="1.5" ry="2.5" fill="black"/>
<circle cx="415" cy="545" r="2" fill="black"/>
<circle cx="515" cy="529" r="2" fill="black"/>
<circle cx="523" cy="537" r="2" fill="black"/>
<circle cx="531" cy="529" r="2" fill="black"/>
<ellipse cx="531.5" cy="544.5" rx="2.5" ry="1.5" fill="black"/>
<ellipse cx="522.5" cy="521.5" rx="1.5" ry="2.5" transform="rotate(25.054 522.5 521.5)" fill="black"/>
<circle cx="539" cy="537" r="2" fill="black"/>
<ellipse cx="523.5" cy="552.5" rx="2.5" ry="1.5" transform="rotate(31.6723 523.5 552.5)" fill="black"/>
<ellipse cx="506.5" cy="537.5" rx="1.5" ry="2.5" fill="black"/>
<circle cx="515" cy="545" r="2" fill="black"/>
<circle cx="617" cy="529" r="2" fill="black"/>
<circle cx="625" cy="537" r="2" fill="black"/>
<circle cx="633" cy="529" r="2" fill="black"/>
<ellipse cx="633.5" cy="544.5" rx="2.5" ry="1.5" fill="black"/>
<ellipse cx="624.5" cy="521.5" rx="1.5" ry="2.5" transform="rotate(25.054 624.5 521.5)" fill="black"/>
<circle cx="641" cy="537" r="2" fill="black"/>
<ellipse cx="625.5" cy="552.5" rx="2.5" ry="1.5" transform="rotate(31.6723 625.5 552.5)" fill="black"/>
<ellipse cx="608.5" cy="537.5" rx="1.5" ry="2.5" fill="black"/>
<circle cx="617" cy="545" r="2" fill="black"/>
<circle cx="719" cy="529" r="2" fill="black"/>
<circle cx="727" cy="537" r="2" fill="black"/>
<circle cx="735" cy="529" r="2" fill="black"/>
<ellipse cx="735.5" cy="544.5" rx="2.5" ry="1.5" fill="black"/>
<ellipse cx="726.5" cy="521.5" rx="1.5" ry="2.5" transform="rotate(25.054 726.5 521.5)" fill="black"/>
<circle cx="743" cy="537" r="2" fill="black"/>
<ellipse cx="727.5" cy="552.5" rx="2.5" ry="1.5" transform="rotate(31.6723 727.5 552.5)" fill="black"/>
<ellipse cx="710.5" cy="537.5" rx="1.5" ry="2.5" fill="black"/>
<circle cx="719" cy="545" r="2" fill="black"/>
<circle cx="821" cy="529" r="2" fill="black"/>
<circle cx="829" cy="537" r="2" fill="black"/>
<circle cx="837" cy="529" r="2" fill="black"/>
<ellipse cx="837.5" cy="544.5" rx="2.5" ry="1.5" fill="black"/>
<ellipse cx="828.5" cy="521.5" rx="1.5" ry="2.5" transform="rotate(25.054 828.5 521.5)" fill="black"/>
<circle cx="845" cy="537" r="2" fill="black"/>
<ellipse cx="829.5" cy="552.5" rx="2.5" ry="1.5" transform="rotate(31.6723 829.5 552.5)" fill="black"/>
<ellipse cx="812.5" cy="537.5" rx="1.5" ry="2.5" fill="black"/>
<circle cx="821" cy="545" r="2" fill="black"/>
<circle cx="440" cy="553" r="2" fill="black"/>
<circle cx="448" cy="561" r="2" fill="black"/>
<circle cx="456" cy="553" r="2" fill="black"/>
<ellipse cx="456.5" cy="568.5" rx="2.5" ry="1.5" fill="black"/>
<ellipse cx="447.5" cy="545.5" rx="1.5" ry="2.5" transform="rotate(25.054 447.5 545.5)" fill="black"/>
<circle cx="464" cy="561" r="2" fill="black"/>
<ellipse cx="448.5" cy="576.5" rx="2.5" ry="1.5" transform="rotate(31.6723 448.5 576.5)" fill="black"/>
<ellipse cx="431.5" cy="561.5" rx="1.5" ry="2.5" fill="black"/>
<circle cx="440" cy="569" r="2" fill="black"/>
<circle cx="540" cy="553" r="2" fill="black"/>
<circle cx="548" cy="561" r="2" fill="black"/>
<circle cx="556" cy="553" r="2" fill="black"/>
<ellipse cx="556.5" cy="568.5" rx="2.5" ry="1.5" fill="black"/>
<ellipse cx="547.5" cy="545.5" rx="1.5" ry="2.5" transform="rotate(25.054 547.5 545.5)" fill="black"/>
<circle cx="564" cy="561" r="2" fill="black"/>
<ellipse cx="548.5" cy="576.5" rx="2.5" ry="1.5" transform="rotate(31.6723 548.5 576.5)" fill="black"/>
<ellipse cx="531.5" cy="561.5" rx="1.5" ry="2.5" fill="black"/>
<circle cx="540" cy="569" r="2" fill="black"/>
<circle cx="489" cy="565" r="2" fill="black"/>
<circle cx="497" cy="573" r="2" fill="black"/>
<circle cx="505" cy="565" r="2" fill="black"/>
<ellipse cx="505.5" cy="580.5" rx="2.5" ry="1.5" fill="black"/>
<ellipse cx="496.5" cy="557.5" rx="1.5" ry="2.5" transform="rotate(25.054 496.5 557.5)" fill="black"/>
<circle cx="513" cy="573" r="2" fill="black"/>
<ellipse cx="497.5" cy="588.5" rx="2.5" ry="1.5" transform="rotate(31.6723 497.5 588.5)" fill="black"/>
<ellipse cx="480.5" cy="573.5" rx="1.5" ry="2.5" fill="black"/>
<circle cx="489" cy="581" r="2" fill="black"/>
<circle cx="587" cy="562" r="2" fill="black"/>
<circle cx="595" cy="570" r="2" fill="black"/>
<circle cx="603" cy="562" r="2" fill="black"/>
<ellipse cx="603.5" cy="577.5" rx="2.5" ry="1.5" fill="black"/>
<ellipse cx="594.5" cy="554.5" rx="1.5" ry="2.5" transform="rotate(25.054 594.5 554.5)" fill="black"/>
<circle cx="611" cy="570" r="2" fill="black"/>
<ellipse cx="595.5" cy="585.5" rx="2.5" ry="1.5" transform="rotate(31.6723 595.5 585.5)" fill="black"/>
<ellipse cx="578.5" cy="570.5" rx="1.5" ry="2.5" fill="black"/>
<circle cx="587" cy="578" r="2" fill="black"/>
<circle cx="796" cy="559" r="2" fill="black"/>
<circle cx="804" cy="567" r="2" fill="black"/>
<circle cx="812" cy="559" r="2" fill="black"/>
<ellipse cx="812.5" cy="574.5" rx="2.5" ry="1.5" fill="black"/>
<ellipse cx="803.5" cy="551.5" rx="1.5" ry="2.5" transform="rotate(25.054 803.5 551.5)" fill="black"/>
<circle cx="820" cy="567" r="2" fill="black"/>
<ellipse cx="804.5" cy="582.5" rx="2.5" ry="1.5" transform="rotate(31.6723 804.5 582.5)" fill="black"/>
<ellipse cx="787.5" cy="567.5" rx="1.5" ry="2.5" fill="black"/>
<circle cx="796" cy="575" r="2" fill="black"/>
<circle cx="642" cy="553" r="2" fill="black"/>
<circle cx="650" cy="561" r="2" fill="black"/>
<circle cx="658" cy="553" r="2" fill="black"/>
<ellipse cx="658.5" cy="568.5" rx="2.5" ry="1.5" fill="black"/>
<ellipse cx="649.5" cy="545.5" rx="1.5" ry="2.5" transform="rotate(25.054 649.5 545.5)" fill="black"/>
<circle cx="666" cy="561" r="2" fill="black"/>
<ellipse cx="650.5" cy="576.5" rx="2.5" ry="1.5" transform="rotate(31.6723 650.5 576.5)" fill="black"/>
<ellipse cx="633.5" cy="561.5" rx="1.5" ry="2.5" fill="black"/>
<circle cx="642" cy="569" r="2" fill="black"/>
<circle cx="744" cy="553" r="2" fill="black"/>
<circle cx="752" cy="561" r="2" fill="black"/>
<circle cx="760" cy="553" r="2" fill="black"/>
<ellipse cx="760.5" cy="568.5" rx="2.5" ry="1.5" fill="black"/>
<ellipse cx="751.5" cy="545.5" rx="1.5" ry="2.5" transform="rotate(25.054 751.5 545.5)" fill="black"/>
<circle cx="768" cy="561" r="2" fill="black"/>
<ellipse cx="752.5" cy="576.5" rx="2.5" ry="1.5" transform="rotate(31.6723 752.5 576.5)" fill="black"/>
<ellipse cx="735.5" cy="561.5" rx="1.5" ry="2.5" fill="black"/>
<circle cx="744" cy="569" r="2" fill="black"/>
<circle cx="846" cy="553" r="2" fill="black"/>
<circle cx="854" cy="561" r="2" fill="black"/>
<circle cx="862" cy="553" r="2" fill="black"/>
<ellipse cx="862.5" cy="568.5" rx="2.5" ry="1.5" fill="black"/>
<ellipse cx="853.5" cy="545.5" rx="1.5" ry="2.5" transform="rotate(25.054 853.5 545.5)" fill="black"/>
<circle cx="870" cy="561" r="2" fill="black"/>
<ellipse cx="854.5" cy="576.5" rx="2.5" ry="1.5" transform="rotate(31.6723 854.5 576.5)" fill="black"/>
<ellipse cx="837.5" cy="561.5" rx="1.5" ry="2.5" fill="black"/>
<circle cx="846" cy="569" r="2" fill="black"/>
<circle cx="440" cy="505" r="2" fill="black"/>
<circle cx="448" cy="513" r="2" fill="black"/>
<circle cx="456" cy="505" r="2" fill="black"/>
<ellipse cx="456.5" cy="520.5" rx="2.5" ry="1.5" fill="black"/>
<ellipse cx="447.5" cy="497.5" rx="1.5" ry="2.5" transform="rotate(25.054 447.5 497.5)" fill="black"/>
<circle cx="464" cy="513" r="2" fill="black"/>
<ellipse cx="448.5" cy="528.5" rx="2.5" ry="1.5" transform="rotate(31.6723 448.5 528.5)" fill="black"/>
<ellipse cx="431.5" cy="513.5" rx="1.5" ry="2.5" fill="black"/>
<circle cx="440" cy="521" r="2" fill="black"/>
<circle cx="642" cy="505" r="2" fill="black"/>
<circle cx="650" cy="513" r="2" fill="black"/>
<circle cx="658" cy="505" r="2" fill="black"/>
<ellipse cx="658.5" cy="520.5" rx="2.5" ry="1.5" fill="black"/>
<ellipse cx="649.5" cy="497.5" rx="1.5" ry="2.5" transform="rotate(25.054 649.5 497.5)" fill="black"/>
<circle cx="666" cy="513" r="2" fill="black"/>
<ellipse cx="650.5" cy="528.5" rx="2.5" ry="1.5" transform="rotate(31.6723 650.5 528.5)" fill="black"/>
<ellipse cx="633.5" cy="513.5" rx="1.5" ry="2.5" fill="black"/>
<circle cx="642" cy="521" r="2" fill="black"/>
<circle cx="846" cy="505" r="2" fill="black"/>
<circle cx="854" cy="513" r="2" fill="black"/>
<circle cx="862" cy="505" r="2" fill="black"/>
<ellipse cx="862.5" cy="520.5" rx="2.5" ry="1.5" fill="black"/>
<ellipse cx="853.5" cy="497.5" rx="1.5" ry="2.5" transform="rotate(25.054 853.5 497.5)" fill="black"/>
<circle cx="870" cy="513" r="2" fill="black"/>
<ellipse cx="854.5" cy="528.5" rx="2.5" ry="1.5" transform="rotate(31.6723 854.5 528.5)" fill="black"/>
<ellipse cx="837.5" cy="513.5" rx="1.5" ry="2.5" fill="black"/>
<circle cx="846" cy="521" r="2" fill="black"/>
<circle cx="466" cy="529" r="2" fill="black"/>
<circle cx="474" cy="537" r="2" fill="black"/>
<circle cx="482" cy="529" r="2" fill="black"/>
<ellipse cx="482.5" cy="544.5" rx="2.5" ry="1.5" fill="black"/>
<ellipse cx="473.5" cy="521.5" rx="1.5" ry="2.5" transform="rotate(25.054 473.5 521.5)" fill="black"/>
<circle cx="490" cy="537" r="2" fill="black"/>
<ellipse cx="474.5" cy="552.5" rx="2.5" ry="1.5" transform="rotate(31.6723 474.5 552.5)" fill="black"/>
<ellipse cx="457.5" cy="537.5" rx="1.5" ry="2.5" fill="black"/>
<circle cx="466" cy="545" r="2" fill="black"/>
<circle cx="566" cy="529" r="2" fill="black"/>
<circle cx="574" cy="537" r="2" fill="black"/>
<circle cx="582" cy="529" r="2" fill="black"/>
<ellipse cx="582.5" cy="544.5" rx="2.5" ry="1.5" fill="black"/>
<ellipse cx="573.5" cy="521.5" rx="1.5" ry="2.5" transform="rotate(25.054 573.5 521.5)" fill="black"/>
<circle cx="590" cy="537" r="2" fill="black"/>
<ellipse cx="574.5" cy="552.5" rx="2.5" ry="1.5" transform="rotate(31.6723 574.5 552.5)" fill="black"/>
<ellipse cx="557.5" cy="537.5" rx="1.5" ry="2.5" fill="black"/>
<circle cx="566" cy="545" r="2" fill="black"/>
<circle cx="668" cy="529" r="2" fill="black"/>
<circle cx="676" cy="537" r="2" fill="black"/>
<circle cx="684" cy="529" r="2" fill="black"/>
<ellipse cx="684.5" cy="544.5" rx="2.5" ry="1.5" fill="black"/>
<ellipse cx="675.5" cy="521.5" rx="1.5" ry="2.5" transform="rotate(25.054 675.5 521.5)" fill="black"/>
<circle cx="692" cy="537" r="2" fill="black"/>
<ellipse cx="676.5" cy="552.5" rx="2.5" ry="1.5" transform="rotate(31.6723 676.5 552.5)" fill="black"/>
<ellipse cx="659.5" cy="537.5" rx="1.5" ry="2.5" fill="black"/>
<circle cx="668" cy="545" r="2" fill="black"/>
<circle cx="770" cy="529" r="2" fill="black"/>
<circle cx="778" cy="537" r="2" fill="black"/>
<circle cx="786" cy="529" r="2" fill="black"/>
<ellipse cx="786.5" cy="544.5" rx="2.5" ry="1.5" fill="black"/>
<ellipse cx="777.5" cy="521.5" rx="1.5" ry="2.5" transform="rotate(25.054 777.5 521.5)" fill="black"/>
<circle cx="794" cy="537" r="2" fill="black"/>
<ellipse cx="778.5" cy="552.5" rx="2.5" ry="1.5" transform="rotate(31.6723 778.5 552.5)" fill="black"/>
<ellipse cx="761.5" cy="537.5" rx="1.5" ry="2.5" fill="black"/>
<circle cx="770" cy="545" r="2" fill="black"/>
<circle cx="872" cy="529" r="2" fill="black"/>
<circle cx="880" cy="537" r="2" fill="black"/>
<circle cx="888" cy="529" r="2" fill="black"/>
<ellipse cx="888.5" cy="544.5" rx="2.5" ry="1.5" fill="black"/>
<ellipse cx="879.5" cy="521.5" rx="1.5" ry="2.5" transform="rotate(25.054 879.5 521.5)" fill="black"/>
<circle cx="896" cy="537" r="2" fill="black"/>
<ellipse cx="880.5" cy="552.5" rx="2.5" ry="1.5" transform="rotate(31.6723 880.5 552.5)" fill="black"/>
<ellipse cx="863.5" cy="537.5" rx="1.5" ry="2.5" fill="black"/>
<circle cx="872" cy="545" r="2" fill="black"/>
<ellipse opacity="0.5" cx="742.5" cy="481.5" rx="39.5" ry="8.5" fill="#191930"/>
<path d="M741 441C741 441 757 442.5 775 435V470.698C775 476.388 760.245 481 741.5 481C722.755 481 708 476.388 708 470.698V435C725 442 741 441 741 441Z" fill="#E66A6A"/>
<path d="M741 441C741 441 757 442.5 775 435V470.698C775 476.388 760.245 481 741.5 481C722.755 481 708 476.388 708 470.698V435C725 442 741 441 741 441Z" fill="url(#paint0_linear)"/>
<path d="M774.5 475.5C774.5 482.127 760.211 488 739.5 488C718.789 488 699.5 475 702 470" stroke="black"/>
<path d="M777.5 428C777.5 429.429 776.595 430.878 774.751 432.272C772.916 433.661 770.229 434.932 766.864 436.009C760.139 438.161 750.818 439.5 740.5 439.5C730.182 439.5 720.861 438.161 714.136 436.009C710.771 434.932 708.084 433.661 706.249 432.272C704.405 430.878 703.5 429.429 703.5 428C703.5 426.571 704.405 425.122 706.249 423.728C708.084 422.339 710.771 421.068 714.136 419.991C720.861 417.839 730.182 416.5 740.5 416.5C750.818 416.5 760.139 417.839 766.864 419.991C770.229 421.068 772.916 422.339 774.751 423.728C776.595 425.122 777.5 426.571 777.5 428Z" stroke="black"/>
<ellipse cx="740.5" cy="423" rx="37.5" ry="12" fill="#C1CADF"/>
<path d="M777.5 416C777.5 417.429 776.595 418.878 774.751 420.272C772.916 421.661 770.229 422.932 766.864 424.009C760.139 426.161 750.818 427.5 740.5 427.5C730.182 427.5 720.861 426.161 714.136 424.009C710.771 422.932 708.084 421.661 706.249 420.272C704.405 418.878 703.5 417.429 703.5 416C703.5 414.571 704.405 413.122 706.249 411.728C708.084 410.339 710.771 409.068 714.136 407.991C720.861 405.839 730.182 404.5 740.5 404.5C750.818 404.5 760.139 405.839 766.864 407.991C770.229 409.068 772.916 410.339 774.751 411.728C776.595 413.122 777.5 414.571 777.5 416Z" stroke="black"/>
<path d="M733.154 451.838C735.526 450.425 740.372 449.301 741.644 451.437C742.916 453.572 741.338 456.275 738.965 457.688C736.593 459.101 735.347 460.407 734.076 458.272C732.804 456.137 730.781 453.251 733.154 451.838Z" fill="#F7A4A4"/>
<path d="M761 466.991C761 469.752 758.485 474.991 756 474.991C753.515 474.991 752.962 471.484 752 469.491C752 466.729 753 466.076 756 465.484C758.5 464.991 761 464.229 761 466.991Z" fill="#F7A4A4"/>
<path d="M768.077 449.716C768.077 452.477 766.562 455.507 764.077 455.507C762.077 454.437 760.577 451.937 760.077 450.007C759.577 446 761.591 446 764.077 446C766.562 446 768.077 446.954 768.077 449.716Z" fill="#F7A4A4"/>
<path d="M739.134 456.432C738.026 457.256 737.951 459.032 737.128 457.923C736.304 456.815 736.535 455.249 737.643 454.426C738.752 453.602 740.318 453.833 741.141 454.941C741.965 456.05 740.243 455.609 739.134 456.432Z" fill="black"/>
<path d="M764.009 452.009C762.665 452.327 761.894 453.929 761.576 452.585C761.258 451.241 762.089 449.894 763.433 449.576C764.776 449.258 766.123 450.089 766.442 451.433C766.76 452.776 765.352 451.691 764.009 452.009Z" fill="black"/>
<ellipse opacity="0.5" cx="604.5" cy="481.5" rx="39.5" ry="8.5" fill="#191930"/>
<path d="M603 441C603 441 619 442.5 637 435V470.698C637 476.388 622.245 481 603.5 481C584.755 481 570 476.388 570 470.698V435C587 442 603 441 603 441Z" fill="#E66A6A"/>
<path d="M603 441C603 441 619 442.5 637 435V470.698C637 476.388 622.245 481 603.5 481C584.755 481 570 476.388 570 470.698V435C587 442 603 441 603 441Z" fill="url(#paint1_linear)"/>
<path d="M639 476C639 482.627 622.211 488 601.5 488C580.789 488 561.5 481 564 476C566.5 471 576.5 471 579 471.5" stroke="black"/>
<path d="M639.5 428C639.5 429.429 638.595 430.878 636.751 432.272C634.916 433.661 632.229 434.932 628.864 436.009C622.139 438.161 612.818 439.5 602.5 439.5C592.182 439.5 582.861 438.161 576.136 436.009C572.771 434.932 570.084 433.661 568.249 432.272C566.405 430.878 565.5 429.429 565.5 428C565.5 426.571 566.405 425.122 568.249 423.728C570.084 422.339 572.771 421.068 576.136 419.991C582.861 417.839 592.182 416.5 602.5 416.5C612.818 416.5 622.139 417.839 628.864 419.991C632.229 421.068 634.916 422.339 636.751 423.728C638.595 425.122 639.5 426.571 639.5 428Z" stroke="black"/>
<ellipse cx="602.5" cy="423" rx="37.5" ry="12" fill="#C1CADF"/>
<path d="M639.5 416C639.5 417.429 638.595 418.878 636.751 420.272C634.916 421.661 632.229 422.932 628.864 424.009C622.139 426.161 612.818 427.5 602.5 427.5C592.182 427.5 582.861 426.161 576.136 424.009C572.771 422.932 570.084 421.661 568.249 420.272C566.405 418.878 565.5 417.429 565.5 416C565.5 414.571 566.405 413.122 568.249 411.728C570.084 410.339 572.771 409.068 576.136 407.991C582.861 405.839 592.182 404.5 602.5 404.5C612.818 404.5 622.139 405.839 628.864 407.991C632.229 409.068 634.916 410.339 636.751 411.728C638.595 413.122 639.5 414.571 639.5 416Z" stroke="black"/>
<path d="M583.154 452.838C585.526 451.425 590.372 450.301 591.644 452.437C592.916 454.572 591.338 457.275 588.965 458.688C586.593 460.101 585.347 461.407 584.076 459.272C582.804 457.137 580.781 454.251 583.154 452.838Z" fill="#F7A4A4"/>
<path d="M607 469.991C607 472.752 604.485 477.991 602 477.991C599.515 477.991 598.962 474.484 598 472.491C598 469.729 599 469.076 602 468.484C604.5 467.991 607 467.229 607 469.991Z" fill="#F7A4A4"/>
<path d="M624.077 456.716C624.077 459.477 622.562 462.507 620.077 462.507C618.077 461.437 616.577 458.937 616.077 457.007C615.577 453 617.591 453 620.077 453C622.562 453 624.077 453.954 624.077 456.716Z" fill="#F7A4A4"/>
<path d="M589.31 457.31C588.053 457.881 587.605 459.601 587.034 458.344C586.463 457.087 587.019 455.605 588.276 455.034C589.533 454.463 591.015 455.019 591.586 456.276C592.157 457.533 590.567 456.739 589.31 457.31Z" fill="black"/>
<path d="M619.542 457.793C618.163 457.726 616.978 459.051 617.045 457.672C617.111 456.293 618.283 455.229 619.662 455.295C621.041 455.362 622.105 456.534 622.039 457.913C621.972 459.292 620.921 457.859 619.542 457.793Z" fill="black"/>
<ellipse opacity="0.5" cx="482.5" cy="482.5" rx="39.5" ry="8.5" fill="#191930"/>
<path d="M480 441C480 441 496 442.5 514 435V470.698C514 476.388 499.245 481 480.5 481C461.755 481 447 476.388 447 470.698V435C464 442 480 441 480 441Z" fill="#E66A6A"/>
<path d="M480 441C480 441 496 442.5 514 435V470.698C514 476.388 499.245 481 480.5 481C461.755 481 447 476.388 447 470.698V435C464 442 480 441 480 441Z" fill="url(#paint2_linear)"/>
<path d="M443 474C443 480.627 459.789 486 480.5 486C501.211 486 519.5 481 518 474C516.5 467 503 467.5 503 467.5" stroke="black"/>
<path d="M517.5 426C517.5 427.429 516.595 428.878 514.751 430.272C512.916 431.661 510.229 432.932 506.864 434.009C500.139 436.161 490.818 437.5 480.5 437.5C470.182 437.5 460.861 436.161 454.136 434.009C450.771 432.932 448.084 431.661 446.249 430.272C444.405 428.878 443.5 427.429 443.5 426C443.5 424.571 444.405 423.122 446.249 421.728C448.084 420.339 450.771 419.068 454.136 417.991C460.861 415.839 470.182 414.5 480.5 414.5C490.818 414.5 500.139 415.839 506.864 417.991C510.229 419.068 512.916 420.339 514.751 421.728C516.595 423.122 517.5 424.571 517.5 426Z" stroke="black"/>
<ellipse cx="480.5" cy="421" rx="37.5" ry="12" fill="#C1CADF"/>
<path d="M517.5 414C517.5 415.429 516.595 416.878 514.751 418.272C512.916 419.661 510.229 420.932 506.864 422.009C500.139 424.161 490.818 425.5 480.5 425.5C470.182 425.5 460.861 424.161 454.136 422.009C450.771 420.932 448.084 419.661 446.249 418.272C444.405 416.878 443.5 415.429 443.5 414C443.5 412.571 444.405 411.122 446.249 409.728C448.084 408.339 450.771 407.068 454.136 405.991C460.861 403.839 470.182 402.5 480.5 402.5C490.818 402.5 500.139 403.839 506.864 405.991C510.229 407.068 512.916 408.339 514.751 409.728C516.595 411.122 517.5 412.571 517.5 414Z" stroke="black"/>
<path d="M464 453C464 455.761 462.485 460.5 460 460.5C457.515 460.5 456 457.761 456 455C456 452.239 455.515 450.5 458 450.5C460.485 450.5 464 450.239 464 453Z" fill="#F7A4A4"/>
<path d="M478.5 465.5C478.5 468.261 475.985 473.5 473.5 473.5C471.015 473.5 470.462 469.993 469.5 468C469.5 465.239 470.5 464.585 473.5 463.993C476 463.5 478.5 462.739 478.5 465.5Z" fill="#F7A4A4"/>
<path d="M493 453.778C493 456.54 491.485 459.569 489 459.569C487 458.5 485.5 456 485 454.069C484.5 450.063 486.515 450.063 489 450.063C491.485 450.063 493 451.017 493 453.778Z" fill="#F7A4A4"/>
<path d="M459.511 455.442C458.132 455.376 456.948 456.701 457.014 455.322C457.081 453.943 458.253 452.879 459.632 452.945C461.011 453.011 462.075 454.183 462.009 455.562C461.942 456.941 460.891 455.508 459.511 455.442Z" fill="black"/>
<path d="M489.527 455.617C488.148 455.551 486.963 456.876 487.03 455.497C487.096 454.118 488.268 453.054 489.647 453.12C491.026 453.187 492.09 454.358 492.024 455.738C491.957 457.117 490.906 455.684 489.527 455.617Z" fill="black"/>
<rect opacity="0.1" x="592" y="173" width="204" height="77" fill="#C6BCD8"/>
<rect opacity="0.1" x="323" y="156" width="192" height="144" fill="#C6BCD8"/>
<path d="M1087.72 227.818L1097.81 232.2L1067.39 332.372L1043.54 322.015L1087.72 227.818Z" fill="#3B4158"/>
<path d="M1086.66 227.359L1092.87 230.055L1058.22 328.389L1043.54 322.015L1086.66 227.359Z" fill="#212844"/>
<path d="M1111.69 281.836L1117.13 283.11L1094.45 344.124L1085.27 340.14L1111.69 281.836Z" fill="#3B4158"/>
<ellipse opacity="0.45" cx="1105.5" cy="191" rx="29.5" ry="18" fill="#646482"/>
<ellipse opacity="0.45" cx="1146" cy="170" rx="18" ry="8" fill="#646482"/>
<ellipse opacity="0.45" cx="1135" cy="159.5" rx="15" ry="7.5" fill="#646482"/>
<ellipse opacity="0.45" cx="1167.5" cy="144" rx="9.5" ry="7" fill="#646482"/>
<circle opacity="0.45" cx="1191.5" cy="130.5" r="3.5" fill="#646482"/>
<ellipse opacity="0.45" cx="1176.5" cy="132" rx="3.5" ry="2" fill="#646482"/>
<path d="M283.682 590.092C340.47 586.281 109.607 542.372 19.682 577.592C-70.2433 612.811 193.682 627.092 193.682 627.092" stroke="black"/>
<defs>
<linearGradient id="paint0_linear" x1="741.5" y1="435" x2="741.5" y2="481" gradientUnits="userSpaceOnUse">
<stop stop-color="#DB2828"/>
<stop offset="1" stop-color="white" stop-opacity="0"/>
</linearGradient>
<linearGradient id="paint1_linear" x1="603.5" y1="435" x2="603.5" y2="481" gradientUnits="userSpaceOnUse">
<stop stop-color="#D91B1B"/>
<stop offset="1" stop-color="white" stop-opacity="0"/>
</linearGradient>
<linearGradient id="paint2_linear" x1="480.5" y1="435" x2="480.5" y2="481" gradientUnits="userSpaceOnUse">
<stop stop-color="#FC4040"/>
<stop offset="1" stop-color="white" stop-opacity="0"/>
</linearGradient>
</defs>
</svg>
