<svg width="178" height="60" viewBox="0 0 178 60" fill="none" xmlns="http://www.w3.org/2000/svg">
<rect x="0.5" y="0.5" width="167" height="50" fill="#EE7AA5" stroke="white"/>
<path d="M16.5156 36H11.7812V16.5938L15.2031 13.4062H24.8906V30.2656H16.5156V36ZM20.1562 25.9375V17.7031H16.5156V25.9375H20.1562ZM34.5831 36L31.7706 27.8281H30.5206V36H25.7863V16.5938L29.2238 13.4062H38.8956V27.7656H36.3331L39.3331 36H34.5831ZM34.1613 23.5938V17.7031H30.5206V23.5938H34.1613ZM39.9788 13.4062H50.9475V17.7031H44.6663V22.0625H50.635V26.2812H44.7288V31.7188H51.1038V36H39.9788V13.4062ZM64.1556 36H51.7337V28.9688H56.4681V31.7188H59.4056V28.125L51.89 22.4531V13.4062H64.015V20.125H59.7181V17.7188H56.6244V20.6719L64.1556 26.3281V36ZM77.5044 36H65.0825V28.9688H69.8169V31.7188H72.7544V28.125L65.2388 22.4531V13.4062H77.3638V20.125H73.0669V17.7188H69.9731V20.6719L77.5044 26.3281V36ZM97.0456 36H84.6237V28.9688H89.3581V31.7188H92.2956V28.125L84.78 22.4531V13.4062H96.905V20.125H92.6081V17.7188H89.5144V20.6719L97.0456 26.3281V36ZM111.426 17.7031H107.16V36H102.394V17.7031H97.9725V13.4062H111.426V17.7031ZM116.978 36H112.228V16.9844L115.868 13.4062H125.743V36H121.009V28.5781H116.978V36ZM121.009 24.2812V17.7031H116.978V24.2812H121.009ZM135.217 36L132.404 27.8281H131.154V36H126.42V16.5938L129.857 13.4062H139.529V27.7656H136.967L139.967 36H135.217ZM134.795 23.5938V17.7031H131.154V23.5938H134.795ZM154.066 17.7031H149.8V36H145.034V17.7031H140.613V13.4062H154.066V17.7031Z" fill="white"/>
<rect x="0.5" y="0.5" width="167" height="50" stroke="white"/>
<path d="M9.20711 59.5L1.20711 51.5H167.793L175.793 59.5H9.20711Z" fill="#CC6A8E" stroke="white"/>
<path d="M168.5 1.20711L177.496 10.2029L176.524 58.8165L168.5 50.7929V1.20711Z" fill="#CC6A8E" stroke="white"/>
</svg>
