<svg width="40" height="40" viewBox="0 0 40 40" fill="none" xmlns="http://www.w3.org/2000/svg">
<path d="M24.9467 6.37911C23.6748 6.52599 21.8748 7.64786 20.981 8.84786C20.4654 9.53536 20.1623 10.1916 19.8998 11.1791L19.7686 11.6729L19.7748 12.1979C19.7811 12.4854 19.7967 12.7541 19.8123 12.7979C19.8529 12.901 19.9311 12.9166 20.4811 12.9197C20.9373 12.9229 20.9654 12.9197 21.356 12.8041C22.3998 12.501 23.1654 12.0447 23.7092 11.3979C23.8404 11.2385 24.0373 11.026 24.1404 10.9197C24.4842 10.5822 24.9248 9.83224 25.1685 9.18224C25.4123 8.52911 25.5217 7.92286 25.5529 7.06036L25.5717 6.50724L25.4904 6.42599C25.3998 6.33536 25.3498 6.33224 24.9467 6.37911Z" fill="white"/>
<path d="M24.6564 12.8381C24.0377 12.8693 22.372 13.3318 21.1752 13.8006C20.4502 14.0849 20.4502 14.0849 20.3064 14.1099C20.0564 14.1506 19.4439 13.9724 18.3908 13.5474C17.8314 13.3256 17.2564 13.1568 16.4064 12.9631C16.0502 12.8849 15.4595 12.8756 15.2033 12.9474C15.1002 12.9756 14.7752 13.0412 14.4814 13.0912C13.8502 13.2037 13.4939 13.3131 13.0189 13.5474C11.5845 14.2474 10.6064 15.2537 9.83141 16.8287C9.48766 17.5224 9.23453 18.2006 9.04703 18.9224C8.76891 19.9943 8.76266 22.0506 9.03453 23.2974C9.06578 23.4506 9.09391 23.6318 9.09391 23.7037C9.09391 23.8537 9.12203 23.9662 9.38453 25.0006C9.62828 25.9568 9.60328 25.8787 10.0689 27.0474C10.722 28.6881 10.9283 29.0506 12.2627 30.8912C12.8095 31.6443 13.0877 31.9881 13.4908 32.3974C13.9127 32.8287 14.2533 33.0787 14.7345 33.3162C15.2783 33.5818 15.5158 33.6412 16.0158 33.6381C16.6564 33.6381 17.172 33.5068 18.1533 33.0943C18.772 32.8349 18.8127 32.8224 19.9377 32.5912C20.2752 32.5193 20.5877 32.5256 21.0627 32.6037C21.2252 32.6287 21.4689 32.6662 21.6002 32.6849C21.8658 32.7224 22.1345 32.8099 22.8283 33.0881C23.6658 33.4256 24.2564 33.5756 24.8752 33.6131C25.7752 33.6693 26.6439 33.2693 27.572 32.3787C28.5189 31.4631 29.4033 30.2099 30.297 28.5193C30.5377 28.0631 30.922 27.1287 30.9877 26.8474C31.0158 26.7349 31.0627 26.5943 31.097 26.5381C31.1283 26.4818 31.1564 26.4037 31.1564 26.3693C31.1564 26.2568 30.9283 26.0787 30.5252 25.8756C29.7658 25.4849 29.0189 24.8162 28.5158 24.0631C28.1564 23.5224 27.7939 22.7131 27.7033 22.2349C27.5502 21.4474 27.5064 20.5849 27.5939 19.9849C27.6158 19.8287 27.6939 19.5006 27.7689 19.2506C28.0908 18.1662 28.3127 17.7318 28.8158 17.1943C28.9689 17.0349 29.0939 16.8881 29.0939 16.8756C29.0939 16.8224 29.8595 16.1818 30.047 16.0787C30.1502 16.0193 30.2814 15.9287 30.3377 15.8724C30.5095 15.7037 30.4845 15.6381 30.0533 15.1318C29.4752 14.4537 28.747 13.8974 27.8908 13.4818C27.3564 13.2224 26.9877 13.0943 26.472 12.9881C25.9439 12.8756 25.1564 12.8099 24.6564 12.8381Z" fill="white"/>
</svg>
