<svg width="32" height="32" viewBox="0 0 32 32" fill="none" xmlns="http://www.w3.org/2000/svg">
<path d="M19.9569 5.10339C18.9394 5.22089 17.4994 6.11839 16.7844 7.07839C16.372 7.62839 16.1295 8.15339 15.9195 8.94339L15.8145 9.33839L15.8195 9.75839C15.8245 9.98839 15.837 10.2034 15.8495 10.2384C15.882 10.3209 15.9445 10.3334 16.3845 10.3359C16.7494 10.3384 16.7719 10.3359 17.0844 10.2434C17.9194 10.0009 18.5319 9.63589 18.9669 9.11839C19.0719 8.99089 19.2294 8.82089 19.3119 8.73589C19.5869 8.46589 19.9394 7.86589 20.1344 7.34589C20.3294 6.82339 20.4169 6.33839 20.4419 5.64839L20.4569 5.20589L20.3919 5.14089C20.3194 5.06839 20.2794 5.06589 19.9569 5.10339Z" fill="white"/>
<path d="M19.7249 10.2706C19.2299 10.2956 17.8974 10.6656 16.9399 11.0406C16.3599 11.2681 16.3599 11.2681 16.2449 11.2881C16.0449 11.3206 15.5549 11.1781 14.7124 10.8381C14.2649 10.6606 13.8049 10.5256 13.1249 10.3706C12.8399 10.3081 12.3674 10.3006 12.1624 10.3581C12.0799 10.3806 11.8199 10.4331 11.5849 10.4731C11.0799 10.5631 10.7949 10.6506 10.4149 10.8381C9.26743 11.3981 8.48493 12.2031 7.86493 13.4631C7.58993 14.0181 7.38743 14.5606 7.23743 15.1381C7.01493 15.9956 7.00993 17.6406 7.22743 18.6381C7.25243 18.7606 7.27493 18.9056 7.27493 18.9631C7.27493 19.0831 7.29743 19.1731 7.50743 20.0006C7.70243 20.7656 7.68243 20.7031 8.05493 21.6381C8.57743 22.9506 8.74243 23.2406 9.80993 24.7131C10.2474 25.3156 10.4699 25.5906 10.7924 25.9181C11.1299 26.2631 11.4024 26.4631 11.7874 26.6531C12.2224 26.8656 12.4124 26.9131 12.8124 26.9106C13.3249 26.9106 13.7374 26.8056 14.5224 26.4756C15.0174 26.2681 15.0499 26.2581 15.9499 26.0731C16.2199 26.0156 16.4699 26.0206 16.8499 26.0831C16.9799 26.1031 17.1749 26.1331 17.2799 26.1481C17.4924 26.1781 17.7074 26.2481 18.2624 26.4706C18.9324 26.7406 19.4049 26.8606 19.8999 26.8906C20.6199 26.9356 21.3149 26.6156 22.0574 25.9031C22.8149 25.1706 23.5224 24.1681 24.2374 22.8156C24.4299 22.4506 24.7374 21.7031 24.7899 21.4781C24.8124 21.3881 24.8499 21.2756 24.8774 21.2306C24.9024 21.1856 24.9249 21.1231 24.9249 21.0956C24.9249 21.0056 24.7424 20.8631 24.4199 20.7006C23.8124 20.3881 23.2149 19.8531 22.8124 19.2506C22.5249 18.8181 22.2349 18.1706 22.1624 17.7881C22.0399 17.1581 22.0049 16.4681 22.0749 15.9881C22.0924 15.8631 22.1549 15.6006 22.2149 15.4006C22.4724 14.5331 22.6499 14.1856 23.0524 13.7556C23.1749 13.6281 23.2749 13.5106 23.2749 13.5006C23.2749 13.4581 23.8874 12.9456 24.0374 12.8631C24.1199 12.8156 24.2249 12.7431 24.2699 12.6981C24.4074 12.5631 24.3874 12.5106 24.0424 12.1056C23.5799 11.5631 22.9974 11.1181 22.3124 10.7856C21.8849 10.5781 21.5899 10.4756 21.1774 10.3906C20.7549 10.3006 20.1249 10.2481 19.7249 10.2706Z" fill="white"/>
</svg>
