<svg width="163" height="51" fill="none" xmlns="http://www.w3.org/2000/svg">
  <path fill-rule="evenodd" clip-rule="evenodd" d="M120.5 3.032c7.5-.5-1 8.915-1 7.968 0-1.5 2.5-5.5 1.5-4.968-3.559 1.893-3.452 22.985 2 29.825 5.978 7.5 14.769 0 14.769 0-1.846-5.364 4.5-21.5 10-15.5s-6.846 16-6.846 16c.5.636 3.5 3.636 14.846 0 2.617-.737 6.5-1 7 .33 0 .831-10.164 4.17-17 4.17-4 0-6.5-2.5-6.5-2.5-3.346 3.136-7.346 5.136-11 5-4.278-.57-7.906-4.6-9.602-8.83-1.702-4.247-2.46-9.627-2.649-14.804-.107-2.922.1-15.825 4.482-16.691zm24.769 19.325C150.769 23.857 140 34 140 34c-1-4.364 2.423-11.643 5.269-11.643zM34 24.825c.5 3-10 10-10 10S26.345 39 30.845 39c9.166 0 7.471-10.486 11-10.311.948.047 1.807.203 1.91 1.5C43.86 31.486 47 39.058 50 35.032s5-7.217 8-7c3 .217 2.398 7.006 5 6.793C65.602 34.613 69 31 69 31c0-6 5.5-6.5 7-5s-4.5 5-4.5 5c1.5 9 14 1.5 14.5-1.818.152-1.006 1.288-2.682 3.331-2.303 1.078.2 1.12 1.442 1.056 2.303-.105 1.422-.452 4.125.342 5.31.274.409.747.651 1.427.651 2.05 0 2.962-1.54 3.844-.318 1.026 1.422-1.572 2.318-3.844 2.318C87 37.143 86.511 34.884 87 32c-3 4-14 9-17.5 1.5 0 0-4 3.706-6.5 4-5.13.602-4-6.157-5.5-6-3.5 0-5 8.032-9.5 8.532s-5.695-4.168-6.5-6.207c-.402 1.148-1.395 3.566-2.088 4.6-1.632 2.434-5.457 4.966-8.567 4.4C25 42.325 22 38.532 21 36.325c0 0-2.854 2.413-4 .707-1.412-2.102 1.686-2.573 3.038-3.399-.374-2.009-.237-3.942.08-5.337l.009-.036.01-.036c1.167-3.79 5.147-5.668 8.226-6.192 1.546-.263 3.1-.232 4.162.223.538.23 1.475 1.57 1.475 2.57zm-2.5-.136c.654 1.636-8.5 7.636-8.5 7.636-2.862-7 6.425-8.638 8.5-7.636zM14.926 30.137c0-.314 2.5-1.42.5-1.42-6.958 0-8.845 5.388-10.345 6.388-2.807 1.871-5.228-1.24-4.655-3.104.574-1.864 2-2.307 5-3.5 3.14-1.25 5.744-1.5 9.5-1.5 3 0 4 2 2.5 3.5-.276.276-.5.5-1 .5s-1.5-.55-1.5-.864z" fill="white"/>
  <path d="M31.5 4.5c-.757 1.23-3.5 2-4 1.5S30 4.565 30 4c0-1-2.83-2.5-10.5-.5S6.253 13 7.5 29.032c1.085 13.958 10.549 21.364 2.845 21.364-3.345 0-5.86-17.79-6-20.5C3.345 10.396 10.252 3.733 20 1 25.154-.445 34.542-.063 31.5 4.5zM92 9.558c-1.667 7.672-2.5-.001-3.333.851-.834.853-1.667.561-1.667-.851C87 8.145 88.12 7 89.5 7s2.5.852 2.5 2.558z" fill="white" />
</svg>