<svg width="159" height="51" fill="none" xmlns="http://www.w3.org/2000/svg">
  <path fill-rule="evenodd" clip-rule="evenodd" d="M120.5 3.032c7.5-.5-1 8.915-1 7.968 0-1.5 2.5-5.5 1.5-4.968-3.559 1.893-2.333 22.468 2 29.825 6.047 10.268 14.769 0 14.769 0-1.846-5.364 4.5-21.5 10-15.5s-6.846 16-6.846 16c5.577 7 16.999-2.037 17.577-.5 0 .832-5.896 5-12.731 5-4 0-6.5-2.5-6.5-2.5-3.346 3.136-7.346 5.136-11 5-4.278-.57-7.907-4.6-9.602-8.83-1.702-4.247-2.46-9.627-2.649-14.804-.107-2.922.099-15.825 4.482-16.691zm24.769 19.325C150.769 23.857 140 34 140 34c-1-4.364 2.423-11.643 5.269-11.643zM34.5 24.657C35 27.657 24 34.5 24 34.5c1.5 5.5 4.5 6.5 6.5 6.5 5.5 0 8-10.032 10.5-12 3-1.5 2.396.203 2.5 1.5.104 1.297 2.4 12 6.5 6.5 4.098-5.501 5-7.221 8.5-7.032 3.5.189 1.065 9.7 5 10.032 3-.293 5-2 5.5-3.5 1-7.5 7-7.065 7-5.532C76 32.5 71.5 33 72 38c2 6 15-1 15-3 0-1.15.344-3.697 2.387-3.319 1.078.2 2.113 1.819 0 4.319 0 1.5-.046 2.817.342 3.317 1.087 1.622 1.82-2.635 2.77-1.317.952 1.317-1.041 4-2.77 4-1.73 0-2.73-1.5-2.73-4.5-4.999 5-15.499 8-17.499 1 0 0-2.5 3.5-6.5 3.5-5.5 0-4.5-7.5-5.5-9s-4 8.499-9.5 9c-5.5.5-6.5-9-6.5-10-5.5 10-8 10.99-11 11.495-3 .505-8-2.495-9-7.495 0 0-3.83 1.999-4.5 1-.671-1 2.648-3.174 4-4-.5-7.5 3-13.5 11.525-10.778.538.23 1.975 1.434 1.975 2.434zm-2.5 0C33.026 25.5 23.5 32 23.5 32c-1-7 5.719-9.63 8.5-7.343zM15.5 29.5c0-1 1.926-.783-.074-.783C8.468 28.717 4.5 33.5 3 34.5.193 36.371-.147 33.865.426 32c.574-1.863 2-2.306 5-3.5 3.14-1.248 5.744-1.5 9.5-1.5 3 0 4.074 1 2.574 2.5-.517.517-2 1-2 0z" fill="white"/>
  <path d="M31.5 4.5c-.757 1.23-3.5 2-4 1.5S30 4.565 30 4c0-1-4.5-2.065-10.5-.5S6.753 12.968 8 29c1.086 13.958 10.049 21.396 2.345 21.396-3.345 0-5.86-17.79-6-20.5C3.345 10.396 10.252 3.733 20 1 25.154-.445 34.542-.063 31.5 4.5zM91.377 19.046c1.979 1.461-.957.847-.802 3.346.07 1.123-.704 1.87-1.954 1.211-1.25-.66-1.317-2.319-.673-3.54.645-1.22 1.92-1.813 3.429-1.017z" fill="white"/>
</svg>