<svg width="32" height="32" viewBox="0 0 32 32" fill="none" xmlns="http://www.w3.org/2000/svg">
<path d="M15.9995 5.03613C9.94313 5.03613 5.0332 9.94593 5.0332 16.0023C5.0332 22.059 9.94313 26.9684 15.9995 26.9684C22.0566 26.9684 26.966 22.059 26.966 16.0023C26.966 9.94632 22.0566 5.03666 15.9994 5.03666L15.9995 5.03613V5.03613ZM21.0286 20.8526C20.8322 21.1747 20.4105 21.2768 20.0884 21.0791C17.5136 19.5064 14.2723 19.1502 10.455 20.0223C10.0872 20.1061 9.72051 19.8757 9.6367 19.5077C9.5525 19.1397 9.78206 18.773 10.1508 18.6892C14.3282 17.7345 17.9115 18.1458 20.8021 19.9123C21.1242 20.1101 21.2264 20.5304 21.0286 20.8526V20.8526ZM22.3709 17.8662C22.1234 18.2689 21.597 18.3959 21.195 18.1484C18.2472 16.3361 13.7538 15.8114 10.2672 16.8698C9.81506 17.0064 9.33748 16.7515 9.20024 16.3001C9.06405 15.848 9.31901 15.3713 9.77041 15.2338C13.7531 14.0254 18.7042 14.6107 22.0894 16.6909C22.4914 16.9384 22.6184 17.4648 22.3709 17.8663V17.8662ZM22.4861 14.7569C18.9517 12.6576 13.1204 12.4645 9.74592 13.4887C9.20404 13.6531 8.63099 13.3472 8.46677 12.8053C8.30256 12.2631 8.6082 11.6905 9.15048 11.5257C13.0242 10.3498 19.4638 10.577 23.533 12.9927C24.0214 13.2819 24.1812 13.9114 23.8918 14.3982C23.6037 14.8856 22.9725 15.0463 22.4867 14.7569H22.4861Z" fill="#1ED760"/>
</svg>
