<svg width="40" height="40" viewBox="0 0 40 40" fill="none" xmlns="http://www.w3.org/2000/svg">
<g clip-path="url(#clip0)">
<path d="M19.9994 6.29541C12.4289 6.29541 6.2915 12.4327 6.2915 20.0032C6.2915 27.574 12.4289 33.7108 19.9994 33.7108C27.5708 33.7108 33.7075 27.574 33.7075 20.0032C33.7075 12.4331 27.5708 6.29606 19.9993 6.29606L19.9994 6.29541V6.29541ZM26.2858 26.0659C26.0403 26.4686 25.5132 26.5963 25.1105 26.3491C21.892 24.3832 17.8404 23.938 13.0688 25.0281C12.609 25.1329 12.1506 24.8448 12.0459 24.3848C11.9406 23.9249 12.2276 23.4665 12.6885 23.3618C17.9103 22.1683 22.3893 22.6825 26.0026 24.8906C26.4053 25.1378 26.533 25.6633 26.2858 26.0659V26.0659ZM27.9636 22.333C27.6543 22.8363 26.9962 22.9951 26.4937 22.6857C22.809 20.4204 17.1923 19.7645 12.834 21.0875C12.2688 21.2582 11.6718 20.9396 11.5003 20.3754C11.3301 19.8102 11.6488 19.2144 12.213 19.0425C17.1913 17.5319 23.3803 18.2636 27.6117 20.8639C28.1142 21.1732 28.273 21.8313 27.9636 22.3331V22.333ZM28.1077 18.4463C23.6897 15.8222 16.4005 15.5809 12.1824 16.8611C11.505 17.0666 10.7887 16.6842 10.5835 16.0068C10.3782 15.3292 10.7603 14.6133 11.4381 14.4074C16.2802 12.9375 24.3297 13.2215 29.4162 16.2411C30.0268 16.6027 30.2265 17.3895 29.8647 17.998C29.5046 18.6072 28.7156 18.8081 28.1083 18.4463H28.1077Z" fill="#1ED760"/>
</g>
<defs>
<clipPath id="clip0">
<rect width="27.5" height="27.5" fill="white" transform="translate(6.25 6.25)"/>
</clipPath>
</defs>
</svg>
